<svg id="Layer_1" data-name="Layer 1" xmlns="http://www.w3.org/2000/svg" viewBox="0 0 1024 1024"><defs><style>.cls-1,.cls-2,.cls-3,.cls-4,.cls-5,.cls-6,.cls-7,.cls-8,.cls-9{fill:none;stroke-width:2px;}.cls-1{stroke:#fa7f00;}.cls-2{stroke:#906023;}.cls-3{stroke:#f07300;}.cls-4{stroke:#8b5923;}.cls-5{stroke:#875423;}.cls-6{stroke:#844e23;}.cls-7{stroke:#e96700;}.cls-8{stroke:#909da3;}.cls-9{stroke:#ffc380;}.cls-10{fill:#f27005;}.cls-11{fill:#212332;}.cls-12{fill:#fff;}.cls-13{fill:#2a2d3e;}</style></defs><title>Artboard 1</title><path class="cls-1" d="M818.24,368.92l.24,3.6a.29.29,0,0,0,.35.31,1.53,1.53,0,0,0,.36-.07c.27-.09.37,0,.3.28l-.12.46a.58.58,0,0,1-.71.41.56.56,0,0,1-.37-.3,9.88,9.88,0,0,0-2.27-3,6.38,6.38,0,0,0-3.36-1.31,25.24,25.24,0,0,1-3.94-.89c-1.71-.53-3-.89-3.91-1.07q-7.23-1.43-14.33-3.36c-2.12-.58-4.5-.29-6.86-1.08a.86.86,0,0,0-.45,0L778,364.09a1,1,0,0,1-.87-.17c-1.52-1.09-2.82-.95-3.89.44,0,0,0,.05,0,.06a.71.71,0,0,1,.22.16q.13.15-.06.21c-.71.21-1,.64-.76,1.28a1.42,1.42,0,0,1-.93,1.76l-6,1.88a1.15,1.15,0,0,1-.87-.08,1.81,1.81,0,0,0-1.62-.1.14.14,0,0,0,0,.27l.47.05c.21,0,.22.08,0,.18l-.24.13h-.06a11.23,11.23,0,0,0-10.52,1,1.14,1.14,0,0,1-.7.17,1.67,1.67,0,0,0-1.68.84,15.17,15.17,0,0,0-1.66,3.47,1.14,1.14,0,0,1-.57.67,1.27,1.27,0,0,0-.66,1.64.15.15,0,0,1,0,.17l-.23.23c-.06.06-.09.05-.09,0V378a.33.33,0,0,0-.09-.23q-.16-.19-.33-.12c-.25.11-.42.05-.51-.2-.4-1-1.32-1.45-2.77-1.38-.77,0-.81.21-.1.51.39.17.47.32.24.44a.21.21,0,0,1-.29-.09.08.08,0,0,1,0-.05l-.53-2.29a.11.11,0,0,0-.13-.09.1.1,0,0,0-.09.12h0a2.17,2.17,0,0,0,.11.66c.15.44.08.48-.21.11a5.84,5.84,0,0,1-.41-.64.49.49,0,0,0-.66-.25l-.47.17"/><path class="cls-2" d="M741.07,374.69q-57.41-93.12-162.63-122.26c-7.43-2.05-17.3-3.84-25.92-6a1.56,1.56,0,0,1-.84-.53c-13.64-16.15-31-25-52.42-20.08-13.41,3.08-21.56,10.93-31.09,20.06a4.56,4.56,0,0,1-2.62,1.27,310.22,310.22,0,0,0-73.07,24.56C350.42,292,313.94,325,288,363.51"/><path class="cls-1" d="M288,363.51q-.48-.25-.36-1.05a.14.14,0,0,0-.11-.18l-.44-.14a.13.13,0,0,0-.16.09.11.11,0,0,0,0,.08,1.62,1.62,0,0,1-1,2.3c-.13.06-.21,0-.22-.13a.48.48,0,0,1,.32-.51s.05,0,0-.05a0,0,0,0,0-.05-.05.62.62,0,0,1-.26-.09.28.28,0,0,0-.41,0,2,2,0,0,0-.44,2.52.4.4,0,0,1-.08.53l-.25.25a.43.43,0,0,1-.62,0,.47.47,0,0,1-.13-.35,7.11,7.11,0,0,0-1.22-4.61c-.15-.23-.31-.25-.5-.06l-.24.24a.5.5,0,0,1-.62.11,3.94,3.94,0,0,0-3.29,0,.43.43,0,0,1-.61-.22.81.81,0,0,1-.06-.61c0-.08.05-.08.06,0,.13.81-.26,1.27-1.18,1.4a1.42,1.42,0,0,1-.9-.15l-1.39-.71a.62.62,0,0,0-.78.11,5.58,5.58,0,0,1-.46.39c-.19.14-.28.09-.29-.14v-.39a.2.2,0,0,0-.19-.19.19.19,0,0,0-.16.09c-1.09,1.63-2.46,2.09-4.1,1.36a2.48,2.48,0,0,0-.94-.21l-7-.19a1.42,1.42,0,0,1-.9-.34,2.32,2.32,0,0,0-1.31-.63,25.48,25.48,0,0,0-9.76,1.48,10.79,10.79,0,0,1-4.21,1,2.45,2.45,0,0,0-1,.19,2.12,2.12,0,0,1-2.11-.24q-.56-.37-.72.27a1.64,1.64,0,0,1-.86,1.18,2.09,2.09,0,0,1-2.67-.71.08.08,0,0,0-.15,0,1,1,0,0,1-.2.17,1.77,1.77,0,0,1-.86.31l-6.48.23a1.17,1.17,0,0,0-.89.42,1.61,1.61,0,0,1-1.46.57,3.16,3.16,0,0,0-1,.07,29.69,29.69,0,0,0-7,2.61.89.89,0,0,1-.66.08l-.85-.21a.63.63,0,0,0-.84.47l-.11.33a.56.56,0,0,1-.62.44,3.89,3.89,0,0,0-3.45,1.63,1.94,1.94,0,0,1-.71.59l-4.85,2.35a1.09,1.09,0,0,1-1.15-.09A5.08,5.08,0,0,1,203,371.8a0,0,0,0,1,0,0h0l.17.24a.13.13,0,0,0,.18,0s0,0,0-.06l.19-.59a.31.31,0,0,1,.34-.24h.45c.22,0,.24,0,.05-.16l-.31-.19A.5.5,0,0,1,204,370a7.41,7.41,0,0,0,1.07-3.8"/><path class="cls-3" d="M849.43,516.19l-.53,1.2a.67.67,0,0,0-.06.44,6.72,6.72,0,0,1,0,1.51.77.77,0,0,1-.84.71.8.8,0,0,1-.71-.62,15.23,15.23,0,0,0-1.32-3.78,2.13,2.13,0,0,0-2-1.26c-.66,0-1.1-.52-1.31-1.49a.77.77,0,0,0-.73-.65l-2.18-.19a.23.23,0,0,0-.22.11c-.21.35-.43.44-.67.27a.65.65,0,0,0-1,.12,1.63,1.63,0,0,1-2.7,0,.16.16,0,0,1,0-.19s0-.08,0-.11.06-.15,0-.15h-2.57a.75.75,0,0,1-.74-.68l-.15-1.9c0-.54-.33-.75-.86-.63l-4.55,1a.6.6,0,0,1-.77-.41c-.07-.17-.25-.26-.54-.25a.18.18,0,0,0-.18.16c0,.29-.17.42-.36.41-.5,0-1-.29-1-.57a.25.25,0,0,1,0-.25.38.38,0,0,0,0-.38c-.06-.17-.11-.17-.14,0a.54.54,0,0,1-.49.43l-.48.09q-2,.54-3.43-2.28c-.21-.41-.48-.46-.82-.17s-.81.3-1.16-.18a.53.53,0,0,0-.74-.11.61.61,0,0,0-.15.17,1.69,1.69,0,0,1-1.65,1,1.4,1.4,0,0,1-1.32-1.48,1.27,1.27,0,0,1,0-.26,2.33,2.33,0,0,0-.53-2.09,1,1,0,0,0-.76-.39,26.42,26.42,0,0,0-7,.67.32.32,0,0,1-.36-.16c-.19-.33-.08-.39.32-.2s.27.27.06.45c-2.21,1.88-3.72-.56-5.95.22a.76.76,0,0,1-.64-.05l-.81-.45c-.19-.11-.31-.06-.36.17s-.22.32-.52.32a16.13,16.13,0,0,0-2.42.16,8.41,8.41,0,0,1-2.4,0,63.67,63.67,0,0,1-7.68-1.76.66.66,0,0,1-.22-.12,1.51,1.51,0,0,1-.17-.2c-.11-.15-.2-.13-.27,0a36.93,36.93,0,0,0-2.77,10.28q-.6,5.41-.85,14.17a1.7,1.7,0,0,1-.29.92,2.63,2.63,0,0,0-.41,1.4,106,106,0,0,1-2.21,17.51,1.69,1.69,0,0,1-1.3,1.49"/><path class="cls-4" d="M741.07,374.69q47.41,80.44,34.57,173.56"/><path class="cls-5" d="M775.64,548.25a280.68,280.68,0,0,1-31.44,96.46"/><path class="cls-6" d="M744.2,644.71c-14.45,26.34-31.57,48.58-51.88,69.63-6,6.16-9.23,11.38-13.86,18.61-10,15.64-28.83,29.28-47.49,33.48q-6.32,1.43-19.06,1.42-102.82,0-205.66.16c-26.35,0-50.41-15.37-64.23-37.27-4.08-6.47-7.69-12.41-13.19-18.08q-11.68-12-22.19-25.18"/><path class="cls-5" d="M306.64,687.48A305.92,305.92,0,0,1,271,629.27q-1.32-2.81-3.07-7.09c-2.43-6-5.4-12.64-7.3-17.87a264.05,264.05,0,0,1-13.26-52.86"/><path class="cls-4" d="M247.35,551.45a267.16,267.16,0,0,1-2.23-60.64q5.15-69.56,42.88-127.3"/><path class="cls-3" d="M247.35,551.45l-.43,3.55a.13.13,0,0,1-.15.13l-.27,0q-.8-.14-.27.75a5.17,5.17,0,0,1-.42,6.46c-.23.29-.43.26-.59-.08l-.24-.51a.1.1,0,0,0-.14-.05l0,0-.19.19c-.25.27-.42.22-.51-.13l-.46-1.82a.73.73,0,0,0-.52-.55L238,557.78a1.33,1.33,0,0,0-.94.05.87.87,0,0,1-1.26-.4,1,1,0,0,0-.64-.49,7.86,7.86,0,0,1-3.46-2,.89.89,0,0,0-.55-.26,6.37,6.37,0,0,1-3.41-1.4,1,1,0,0,0-.9-.22.76.76,0,0,1-1-.62.64.64,0,0,0-.41-.45l-2.83-1a.69.69,0,0,0-.7.13,2.23,2.23,0,0,1-2,.49,1.79,1.79,0,0,1-1-.5,2.34,2.34,0,0,0-1.56-.68.64.64,0,0,1-.58-.4,2.52,2.52,0,0,0-1.4-1.26,1,1,0,0,0-.81,0,4,4,0,0,1-3.12.09,8.75,8.75,0,0,0-4.37-.51q-1.51.21-2.82.3a8.76,8.76,0,0,0-2.84.69c-.06,0-.09,0-.08-.07s-.09-.25-.29-.32a.83.83,0,0,0-.58,0l-5,1.8a1,1,0,0,1-.77,0,2.85,2.85,0,0,0-1.44-.22,2.43,2.43,0,0,0-1.11.36c-.42.25-.88.16-1.39-.29a.74.74,0,0,0-.93,0,7.71,7.71,0,0,1-6.43,1.42,1.07,1.07,0,0,0-.78.15l-5,3.18a.68.68,0,0,1-.92-.16,3.89,3.89,0,0,1-.55-3.42s0,0,0,0l.23.23a.1.1,0,0,0,.13,0c.38-.23.5-.45.36-.67a.9.9,0,0,0-1-.36.49.49,0,0,0-.32.55,1.45,1.45,0,0,1,0,.36c0,.17-.09.19-.19,0a1,1,0,0,1-.15-.66,13.07,13.07,0,0,0-.79-7,1.66,1.66,0,0,1-.08-1,3.61,3.61,0,0,0-.57-3.36"/><path class="cls-7" d="M806.09,679.25l-3.72-4.69a.44.44,0,0,1,.07-.68,2.63,2.63,0,0,0,.76-3.58,1,1,0,0,1,0-1,5,5,0,0,0,.19-4.38,1.39,1.39,0,0,0-.48-.62,9.92,9.92,0,0,1-1.25-1.07,6.3,6.3,0,0,0-1.24-1,29.28,29.28,0,0,0-5.42-2.19.93.93,0,0,1-.61-.52,2.88,2.88,0,0,0-1.25-1.35,1.36,1.36,0,0,1-.6-.65,3.43,3.43,0,0,0-3.28-2.2,1.28,1.28,0,0,1-.78-.31L786,652.75a2.19,2.19,0,0,0-.68-.39,17.89,17.89,0,0,0-6.27-.91,2.11,2.11,0,0,1-1-.22l-1.56-.77c-.07,0-.08-.08,0-.14a.55.55,0,0,0,.12-.24c.08-.37-.06-.5-.42-.4-1.79.49-2.92-.1-3.37-1.78a1,1,0,0,0-.92-.72l-3.22,0a.9.9,0,0,1-.77-.43,1.31,1.31,0,0,0-1.72-.53.68.68,0,0,1-.83-.3,2.09,2.09,0,0,0-2-1.29c-2.88-.23-5.12.18-7.23-2.17a.94.94,0,0,0-.74-.34l-6.75-.08a.5.5,0,0,0-.47.24,6,6,0,0,0-1,2,.13.13,0,0,1-.18.09,3.19,3.19,0,0,0-2.83.34"/><path class="cls-7" d="M306.64,687.48q.72,1.72-1.07-.63a.35.35,0,0,0-.58.4l3.31,5.4a.13.13,0,0,1-.05.18.12.12,0,0,1-.1,0l-.95-.33a.71.71,0,0,0-.86.26,6.07,6.07,0,0,1-4.59,2.55.66.66,0,0,0-.62.46.91.91,0,0,1-.32.42,1.09,1.09,0,0,1-.84,0,19.64,19.64,0,0,0-5.64-.61,1.13,1.13,0,0,1-.78-.27,24.15,24.15,0,0,0-7.43-4.23,8.54,8.54,0,0,0-1,.06,2.36,2.36,0,0,1-2.2-1,1,1,0,0,0-.82-.41,4.73,4.73,0,0,1-3.43-1.54,1.68,1.68,0,0,0-.77-.48,4.23,4.23,0,0,1-1.79-1,1.6,1.6,0,0,1-.41-.64,2.24,2.24,0,0,0-1.33-1.33,1.26,1.26,0,0,1-.61-.53l-3.08-5.12a.24.24,0,0,0-.33-.06.25.25,0,0,0-.1.25l.1.34c.17.56,0,.73-.56.52a6.08,6.08,0,0,1-2.59-1.87,1.66,1.66,0,0,0-1-.6,2.4,2.4,0,0,1-1.91-1.43.9.9,0,0,0-.9-.56l-6.1.1a1.41,1.41,0,0,0-1.38,1.4v4a1.34,1.34,0,0,0,.22.75,5.47,5.47,0,0,0,1.4,1.4.68.68,0,0,1-.26,1.23,3.28,3.28,0,0,0-2.62,2.21.88.88,0,0,1-.69.57l-.82.12a1.69,1.69,0,0,0-.94.45,2.75,2.75,0,0,1-3.54.38,1.25,1.25,0,0,0-.79-.2,1.85,1.85,0,0,0-.75.31.71.71,0,0,1-.74.06c-.51-.24-.84-.17-1,.2a.5.5,0,0,1-.73.3,2,2,0,0,0-1.32-.12c-1.83.51-3,.13-4.76-.81a.72.72,0,0,0-.87.08c-.12.1-.16.07-.12-.08a.87.87,0,0,1,.14-.31.28.28,0,0,0-.1-.47,4.4,4.4,0,0,0-3.86-.36,1.61,1.61,0,0,0-.74.54,1.64,1.64,0,0,1-1.44.64,1.45,1.45,0,0,1-.75-.24c-.37-.25-.72-.17-1,.23A19.81,19.81,0,0,0,227.3,693c0,.11-.12.14-.25.07s-.35-.06-.42.16.05.47.39.58a1,1,0,0,0,.56.06.19.19,0,0,1,.26.14,1.67,1.67,0,0,1-1,2.18"/><path class="cls-8" d="M633.1,355.68a.43.43,0,0,1-.55.26.39.39,0,0,1-.14-.08q-49.14-44.5-98.43-88.37a35.13,35.13,0,0,0-46.62-.14Q459.06,292.19,439.51,310,378.12,366,316.66,421.9a41.53,41.53,0,0,0-8.12,9.37c-5.89,10.33.43,24.38,11.76,27.67q11.93,3.46,21.1-5,79.92-74.08,160.42-147.59c5.25-4.79,9.92-8,15.94-2.57q42.4,38.49,165.3,150.94,7.35,6.74,16.38,5c17.1-3.22,22.73-22.83,9.79-34.42q-15.18-13.59-30.15-26.78a3.66,3.66,0,0,1-1.28-2.58c-.17-2.41-.26-5-.26-7.67q0-23.78-.07-47.55c0-8.9-.91-15.73-7.14-21.28-14.51-12.95-37.11-3.57-36.92,15.82q.09,9.52-.09,19a4.85,4.85,0,0,1-.22,1.44"/><path class="cls-8" d="M378.16,468.86q-21.11,19.31-41.82,38.43-6.63,6.12-8.49,9.46c-5.77,10.36-1.81,25.58,10,29.75q13.55,4.79,23.15-6.5,3.12-3.66,16.71-15.9"/><path class="cls-2" d="M377.7,524.1a33.8,33.8,0,0,1,.26,5.63c-.12,3-.18,4.51-.18,4.54q-.09,77.61,0,155.23,0,21,14.36,33.41a39.29,39.29,0,0,0,25.58,9.56q16.88.15,42.88-.13c8-.08,15-1.38,19.83-7.12,5.61-6.72,4.61-14.49,4.53-23.84q-.06-6.42,1.22-9.6c3.45-8.51,10.39-9.82,19.44-9.86q7.65,0,15.3,0a17.42,17.42,0,0,1,7.33,1.36c11.57,5.56,8.94,18.87,9,29.18,0,11.49,9.1,19.81,20.24,20q9.81.12,33.5-.05,16.62-.12,20-.68c17.73-3,33.32-18.32,33.34-37q0-74.38,0-148.75,0-9.75.34-19.5c0-1,.34-1.47.93-1.39"/><path class="cls-8" d="M645.52,525.11q14,12.48,18.37,16.75c15.66,15.27,40.05-1.14,32.72-21.64a22.09,22.09,0,0,0-6.15-9.19q-23.7-21.18-47.24-42.82"/><path class="cls-2" d="M643.22,468.21q-3.29-3.29-15.65-14.53-29.6-26.9-94.88-87.5-7-6.46-10.81-8.19c-9.62-4.3-22.06-2-29.8,5.09Q452,399.91,390.42,457.17q-9.5,8.83-12.26,11.69"/><path class="cls-9" d="M643.22,468.21c.41,1.19.78,2.36,1.12,3.51a13.64,13.64,0,0,1,.55,3.62q.52,23.32,0,46.66a10.57,10.57,0,0,0,.62,3.11"/><path class="cls-9" d="M377.7,524.1q0-22.77-.41-46.37a28.47,28.47,0,0,1,.26-4.44c.19-1.41.4-2.89.61-4.43"/><path class="cls-2" d="M450.12,681.37c1.16-16.19,15.69-31.32,30.81-35.68q5.11-1.49,15.77-1.53,10.16,0,20.3,0,16.32,0,20,.63A44.05,44.05,0,0,1,571.06,676c1.46,5.42,1.56,12.29,1.71,18.32a.81.81,0,0,0,.77.78q9.32.36,18.72.28,12.62-.12,16.38-9.3,1.58-3.82,1.58-16.32.06-86.68,0-173.37c0-10.73-5.1-15.65-12.54-22.5q-36-33.17-71.93-66.45c-5.89-5.46-11.7-10.21-20.16-6.86q-2.85,1.13-8.12,6.07-37,34.72-74.27,69.27-5.87,5.44-7.93,8.88c-3,5.06-2.75,10.66-2.75,18.39q0,87,.07,174.08c0,7.14,3,14.14,9.78,16.76q3,1.17,10.46,1.14,8.06,0,16.13-.2a.48.48,0,0,0,.53-.53q.21-6.58.67-13"/><path class="cls-8" d="M502.3,517.32a24,24,0,0,0-8.48-32.86h0a24,24,0,0,0-33,8.06h0a24,24,0,0,0,8.48,32.86h0a24,24,0,0,0,33-8.06h0"/><path class="cls-8" d="M565.69,504.88a24,24,0,0,0-24-24h0a24,24,0,1,0,24,24h0"/><path class="cls-8" d="M505.5,565.45a24,24,0,1,0-24,24,24,24,0,0,0,24-24"/><path class="cls-8" d="M560.17,580.87a24.09,24.09,0,1,0-33.86,2.94,24,24,0,0,0,33.86-2.94"/><path class="cls-10" d="M818.24,368.92l.24,3.6a.29.29,0,0,0,.35.31,1.53,1.53,0,0,0,.36-.07c.27-.09.37,0,.3.28l-.12.46a.58.58,0,0,1-.71.41.56.56,0,0,1-.37-.3,9.88,9.88,0,0,0-2.27-3,6.38,6.38,0,0,0-3.36-1.31,25.24,25.24,0,0,1-3.94-.89c-1.71-.53-3-.89-3.91-1.07q-7.23-1.43-14.33-3.36c-2.12-.58-4.5-.29-6.86-1.08a.86.86,0,0,0-.45,0L778,364.09a1,1,0,0,1-.87-.17c-1.52-1.09-2.82-.95-3.89.44,0,0,0,.05,0,.06a.71.71,0,0,1,.22.16q.13.15-.06.21c-.71.21-1,.64-.76,1.28a1.42,1.42,0,0,1-.93,1.76l-6,1.88a1.15,1.15,0,0,1-.87-.08,1.81,1.81,0,0,0-1.62-.1.14.14,0,0,0,0,.27l.47.05c.21,0,.22.08,0,.18l-.24.13h-.06a11.23,11.23,0,0,0-10.52,1,1.14,1.14,0,0,1-.7.17,1.67,1.67,0,0,0-1.68.84,15.17,15.17,0,0,0-1.66,3.47,1.14,1.14,0,0,1-.57.67,1.27,1.27,0,0,0-.66,1.64.15.15,0,0,1,0,.17l-.23.23c-.06.06-.09.05-.09,0V378a.33.33,0,0,0-.09-.23q-.16-.19-.33-.12c-.25.11-.42.05-.51-.2-.4-1-1.32-1.45-2.77-1.38-.77,0-.81.21-.1.51.39.17.47.32.24.44a.21.21,0,0,1-.29-.09.08.08,0,0,1,0-.05l-.53-2.29a.11.11,0,0,0-.13-.09.1.1,0,0,0-.09.12h0a2.17,2.17,0,0,0,.11.66c.15.44.08.48-.21.11a5.84,5.84,0,0,1-.41-.64.49.49,0,0,0-.66-.25l-.47.17q-57.41-93.12-162.63-122.26c-7.43-2.05-17.3-3.84-25.92-6a1.56,1.56,0,0,1-.84-.53c-13.64-16.15-31-25-52.42-20.08-13.41,3.08-21.56,10.93-31.09,20.06a4.56,4.56,0,0,1-2.62,1.27,310.22,310.22,0,0,0-73.07,24.56C350.42,292,313.94,325,288,363.51q-.48-.25-.36-1.05a.14.14,0,0,0-.11-.18l-.44-.14a.13.13,0,0,0-.16.09.11.11,0,0,0,0,.08,1.62,1.62,0,0,1-1,2.3c-.13.06-.21,0-.22-.13a.48.48,0,0,1,.32-.51s.05,0,0-.05a0,0,0,0,0-.05-.05.62.62,0,0,1-.26-.09.28.28,0,0,0-.41,0,2,2,0,0,0-.44,2.52.4.4,0,0,1-.08.53l-.25.25a.43.43,0,0,1-.62,0,.47.47,0,0,1-.13-.35,7.11,7.11,0,0,0-1.22-4.61c-.15-.23-.31-.25-.5-.06l-.24.24a.5.5,0,0,1-.62.11,3.94,3.94,0,0,0-3.29,0,.43.43,0,0,1-.61-.22.81.81,0,0,1-.06-.61c0-.08.05-.08.06,0,.13.81-.26,1.27-1.18,1.4a1.42,1.42,0,0,1-.9-.15l-1.39-.71a.62.62,0,0,0-.78.11,5.58,5.58,0,0,1-.46.39c-.19.14-.28.09-.29-.14v-.39a.2.2,0,0,0-.19-.19.19.19,0,0,0-.16.09c-1.09,1.63-2.46,2.09-4.1,1.36a2.48,2.48,0,0,0-.94-.21l-7-.19a1.42,1.42,0,0,1-.9-.34,2.32,2.32,0,0,0-1.31-.63,25.48,25.48,0,0,0-9.76,1.48,10.79,10.79,0,0,1-4.21,1,2.45,2.45,0,0,0-1,.19,2.12,2.12,0,0,1-2.11-.24q-.56-.37-.72.27a1.64,1.64,0,0,1-.86,1.18,2.09,2.09,0,0,1-2.67-.71.08.08,0,0,0-.15,0,1,1,0,0,1-.2.17,1.77,1.77,0,0,1-.86.31l-6.48.23a1.17,1.17,0,0,0-.89.42,1.61,1.61,0,0,1-1.46.57,3.16,3.16,0,0,0-1,.07,29.69,29.69,0,0,0-7,2.61.89.89,0,0,1-.66.08l-.85-.21a.63.63,0,0,0-.84.47l-.11.33a.56.56,0,0,1-.62.44,3.89,3.89,0,0,0-3.45,1.63,1.94,1.94,0,0,1-.71.59l-4.85,2.35a1.09,1.09,0,0,1-1.15-.09A5.08,5.08,0,0,1,203,371.8a0,0,0,0,1,0,0h0l.17.24a.13.13,0,0,0,.18,0s0,0,0-.06l.19-.59a.31.31,0,0,1,.34-.24h.45c.22,0,.24,0,.05-.16l-.31-.19A.5.5,0,0,1,204,370a7.41,7.41,0,0,0,1.07-3.8c5.14-9.37,9.32-19.35,15.17-28.28q2.31-3.52,4.56-7.1c3.36-5.36,7.4-10.35,11-15.65q3.53-5.19,6.28-8.62Q256,289.26,263,281.78a363.39,363.39,0,0,1,29.66-27.52q7.8-6.58,15.73-12.36a342.33,342.33,0,0,1,35.3-22.9,416.25,416.25,0,0,1,40.43-19.06q6.62-2.74,16-5.67c7.21-2.25,14.8-5,21.57-6.79q14.08-3.67,36.81-8.23a76.74,76.74,0,0,1,13-1.81c3,0,6.82-1.14,10-1.34a491.36,491.36,0,0,1,53-.35q3.81.18,9.82,1c4.38.62,9.22,1,13.13,1.53q64,9.18,118,39.41a413.58,413.58,0,0,1,41,26.74q8.61,6.28,15.65,12.41a405,405,0,0,1,36.45,36.22c6.17,6.93,11.9,15,16.27,20.7A295.25,295.25,0,0,1,818.24,368.92Z"/><path class="cls-11" d="M741.07,374.69q47.41,80.44,34.57,173.56a280.68,280.68,0,0,1-31.44,96.46c-14.45,26.34-31.57,48.58-51.88,69.63-6,6.16-9.23,11.38-13.86,18.61-10,15.64-28.83,29.28-47.49,33.48q-6.32,1.43-19.06,1.42-102.82,0-205.66.16c-26.35,0-50.41-15.37-64.23-37.27-4.08-6.47-7.69-12.41-13.19-18.08q-11.68-12-22.19-25.18A305.92,305.92,0,0,1,271,629.27q-1.32-2.81-3.07-7.09c-2.43-6-5.4-12.64-7.3-17.87a264.05,264.05,0,0,1-13.26-52.86,267.16,267.16,0,0,1-2.23-60.64q5.15-69.56,42.88-127.3C313.94,325,350.42,292,392.48,271.71a310.22,310.22,0,0,1,73.07-24.56,4.56,4.56,0,0,0,2.62-1.27c9.53-9.13,17.68-17,31.09-20.06,21.43-4.93,38.78,3.93,52.42,20.08a1.56,1.56,0,0,0,.84.53c8.62,2.16,18.49,3.95,25.92,6Q683.67,281.58,741.07,374.69Zm-108-19a.43.43,0,0,1-.55.26.39.39,0,0,1-.14-.08q-49.14-44.5-98.43-88.37a35.13,35.13,0,0,0-46.62-.14Q459.06,292.19,439.51,310,378.12,366,316.66,421.9a41.53,41.53,0,0,0-8.12,9.37c-5.89,10.33.43,24.38,11.76,27.67q11.93,3.46,21.1-5,79.92-74.08,160.42-147.59c5.25-4.79,9.92-8,15.94-2.57q42.4,38.49,165.3,150.94,7.35,6.74,16.38,5c17.1-3.22,22.73-22.83,9.79-34.42q-15.18-13.59-30.15-26.78a3.66,3.66,0,0,1-1.28-2.58c-.17-2.41-.26-5-.26-7.67q0-23.78-.07-47.55c0-8.9-.91-15.73-7.14-21.28-14.51-12.95-37.11-3.57-36.92,15.82q.09,9.52-.09,19A4.85,4.85,0,0,1,633.1,355.68ZM378.16,468.86q-21.11,19.31-41.82,38.43-6.63,6.12-8.49,9.46c-5.77,10.36-1.81,25.58,10,29.75q13.55,4.79,23.15-6.5,3.12-3.66,16.71-15.9a33.8,33.8,0,0,1,.26,5.63c-.12,3-.18,4.51-.18,4.54q-.09,77.61,0,155.23,0,21,14.36,33.41a39.29,39.29,0,0,0,25.58,9.56q16.88.15,42.88-.13c8-.08,15-1.38,19.83-7.12,5.61-6.72,4.61-14.49,4.53-23.84q-.06-6.42,1.22-9.6c3.45-8.51,10.39-9.82,19.44-9.86q7.65,0,15.3,0a17.42,17.42,0,0,1,7.33,1.36c11.57,5.56,8.94,18.87,9,29.18,0,11.49,9.1,19.81,20.24,20q9.81.12,33.5-.05,16.62-.12,20-.68c17.73-3,33.32-18.32,33.34-37q0-74.38,0-148.75,0-9.75.34-19.5c0-1,.34-1.47.93-1.39q14,12.48,18.37,16.75c15.66,15.27,40.05-1.14,32.72-21.64a22.09,22.09,0,0,0-6.15-9.19q-23.7-21.18-47.24-42.82-3.29-3.29-15.65-14.53-29.6-26.9-94.88-87.5-7-6.46-10.81-8.19c-9.62-4.3-22.06-2-29.8,5.09Q452,399.91,390.42,457.17,380.92,466,378.16,468.86Z"/><path class="cls-12" d="M633.1,355.68a4.85,4.85,0,0,0,.22-1.44q.18-9.48.09-19c-.19-19.39,22.41-28.77,36.92-15.82,6.23,5.55,7.12,12.38,7.14,21.28q.07,23.78.07,47.55c0,2.71.09,5.26.26,7.67a3.66,3.66,0,0,0,1.28,2.58q15,13.19,30.15,26.78c12.94,11.59,7.31,31.2-9.79,34.42q-9,1.71-16.38-5Q560.17,342.23,517.76,303.74c-6-5.46-10.69-2.22-15.94,2.57Q421.31,379.81,341.4,453.9q-9.18,8.5-21.1,5c-11.33-3.29-17.65-17.34-11.76-27.67a41.53,41.53,0,0,1,8.12-9.37Q378.12,366,439.51,310q19.55-17.82,47.85-42.66a35.13,35.13,0,0,1,46.62.14q49.29,43.88,98.43,88.37a.43.43,0,0,0,.61,0A.64.64,0,0,0,633.1,355.68Z"/><path class="cls-10" d="M643.22,468.21c.41,1.19.78,2.36,1.12,3.51a13.64,13.64,0,0,1,.55,3.62q.52,23.32,0,46.66a10.57,10.57,0,0,0,.62,3.11c-.59-.08-.9.38-.93,1.39q-.36,9.75-.34,19.5.11,74.37,0,148.75c0,18.64-15.61,34-33.34,37q-3.35.56-20,.68-23.68.17-33.5.05c-11.14-.14-20.2-8.46-20.24-20,0-10.31,2.6-23.62-9-29.18A17.42,17.42,0,0,0,521,682q-7.65-.06-15.3,0c-9,0-16,1.35-19.44,9.86q-1.27,3.18-1.22,9.6c.08,9.35,1.08,17.12-4.53,23.84-4.79,5.74-11.86,7-19.83,7.12q-26,.28-42.88.13a39.29,39.29,0,0,1-25.58-9.56q-14.32-12.42-14.36-33.41-.12-77.62,0-155.23s.06-1.55.18-4.54a33.8,33.8,0,0,0-.26-5.63q0-22.77-.41-46.37a28.47,28.47,0,0,1,.26-4.44c.19-1.41.4-2.89.61-4.43q2.77-2.85,12.26-11.69Q452,399.9,492.08,363.08c7.74-7.1,20.18-9.39,29.8-5.09q3.84,1.72,10.81,8.19,65.28,60.6,94.88,87.5Q639.95,464.93,643.22,468.21ZM450.12,681.37c1.16-16.19,15.69-31.32,30.81-35.68q5.11-1.49,15.77-1.53,10.16,0,20.3,0,16.32,0,20,.63A44.05,44.05,0,0,1,571.06,676c1.46,5.42,1.56,12.29,1.71,18.32a.81.81,0,0,0,.77.78q9.32.36,18.72.28,12.62-.12,16.38-9.3,1.58-3.82,1.58-16.32.06-86.68,0-173.37c0-10.73-5.1-15.65-12.54-22.5q-36-33.17-71.93-66.45c-5.89-5.46-11.7-10.21-20.16-6.86q-2.85,1.13-8.12,6.07-37,34.72-74.27,69.27-5.87,5.44-7.93,8.88c-3,5.06-2.75,10.66-2.75,18.39q0,87,.07,174.08c0,7.14,3,14.14,9.78,16.76q3,1.17,10.46,1.14,8.06,0,16.13-.2a.48.48,0,0,0,.53-.53Q449.66,687.84,450.12,681.37Z"/><path class="cls-10" d="M288,363.51q-37.74,57.74-42.88,127.3a267.16,267.16,0,0,0,2.23,60.64l-.43,3.55a.13.13,0,0,1-.15.13l-.27,0q-.8-.14-.27.75a5.17,5.17,0,0,1-.42,6.46c-.23.29-.43.26-.59-.08l-.24-.51a.1.1,0,0,0-.14-.05l0,0-.19.19c-.25.27-.42.22-.51-.13l-.46-1.82a.73.73,0,0,0-.52-.55L238,557.78a1.33,1.33,0,0,0-.94.05.87.87,0,0,1-1.26-.4,1,1,0,0,0-.64-.49,7.86,7.86,0,0,1-3.46-2,.89.89,0,0,0-.55-.26,6.37,6.37,0,0,1-3.41-1.4,1,1,0,0,0-.9-.22.76.76,0,0,1-1-.62.64.64,0,0,0-.41-.45l-2.83-1a.69.69,0,0,0-.7.13,2.23,2.23,0,0,1-2,.49,1.79,1.79,0,0,1-1-.5,2.34,2.34,0,0,0-1.56-.68.64.64,0,0,1-.58-.4,2.52,2.52,0,0,0-1.4-1.26,1,1,0,0,0-.81,0,4,4,0,0,1-3.12.09,8.75,8.75,0,0,0-4.37-.51q-1.51.21-2.82.3a8.76,8.76,0,0,0-2.84.69c-.06,0-.09,0-.08-.07s-.09-.25-.29-.32a.83.83,0,0,0-.58,0l-5,1.8a1,1,0,0,1-.77,0,2.85,2.85,0,0,0-1.44-.22,2.43,2.43,0,0,0-1.11.36c-.42.25-.88.16-1.39-.29a.74.74,0,0,0-.93,0,7.71,7.71,0,0,1-6.43,1.42,1.07,1.07,0,0,0-.78.15l-5,3.18a.68.68,0,0,1-.92-.16,3.89,3.89,0,0,1-.55-3.42s0,0,0,0l.23.23a.1.1,0,0,0,.13,0c.38-.23.5-.45.36-.67a.9.9,0,0,0-1-.36.49.49,0,0,0-.32.55,1.45,1.45,0,0,1,0,.36c0,.17-.09.19-.19,0a1,1,0,0,1-.15-.66,13.07,13.07,0,0,0-.79-7,1.66,1.66,0,0,1-.08-1,3.61,3.61,0,0,0-.57-3.36c-.19-3.29-.74-6.71-.86-9.84a444,444,0,0,1,1.89-60.59q1-9.7,3-19.76,4.44-22.24,9.93-40.14a310.35,310.35,0,0,1,17.32-43.31A7.41,7.41,0,0,1,204,370a.5.5,0,0,0,.19.77l.31.19c.19.11.17.17-.05.16H204a.31.31,0,0,0-.34.24l-.19.59a.13.13,0,0,1-.16.08l-.06-.05-.17-.24s0,0-.06,0,0,0,0,0a5.08,5.08,0,0,0,2.16,3.35,1.09,1.09,0,0,0,1.15.09l4.85-2.35a1.94,1.94,0,0,0,.71-.59,3.89,3.89,0,0,1,3.45-1.63.56.56,0,0,0,.62-.44l.11-.33a.63.63,0,0,1,.84-.47l.85.21a.89.89,0,0,0,.66-.08,29.69,29.69,0,0,1,7-2.61,3.16,3.16,0,0,1,1-.07,1.61,1.61,0,0,0,1.46-.57,1.17,1.17,0,0,1,.89-.42l6.48-.23a1.77,1.77,0,0,0,.86-.31,1,1,0,0,0,.2-.17.09.09,0,0,1,.15,0,2.09,2.09,0,0,0,2.67.71,1.64,1.64,0,0,0,.86-1.18q.16-.65.72-.27a2.12,2.12,0,0,0,2.11.24,2.45,2.45,0,0,1,1-.19,10.79,10.79,0,0,0,4.21-1,25.48,25.48,0,0,1,9.76-1.48,2.32,2.32,0,0,1,1.31.63,1.42,1.42,0,0,0,.9.34l7,.19a2.48,2.48,0,0,1,.94.21c1.64.73,3,.27,4.1-1.36a.19.19,0,0,1,.35.1v.39c0,.23.1.28.29.14a5.58,5.58,0,0,0,.46-.39.62.62,0,0,1,.78-.11l1.39.71a1.42,1.42,0,0,0,.9.15c.92-.13,1.31-.59,1.18-1.4,0-.09,0-.09-.06,0a.81.81,0,0,0,.06.61.43.43,0,0,0,.61.22,3.94,3.94,0,0,1,3.29,0,.5.5,0,0,0,.62-.11l.24-.24c.19-.19.35-.17.5.06a7.11,7.11,0,0,1,1.22,4.61.45.45,0,0,0,.41.48.42.42,0,0,0,.34-.12l.25-.25a.4.4,0,0,0,.08-.53,2,2,0,0,1,.44-2.52.28.28,0,0,1,.41,0,.62.62,0,0,0,.26.09,0,0,0,0,1,.05.05s0,.05,0,.05a.48.48,0,0,0-.32.51c0,.15.09.19.22.13a1.62,1.62,0,0,0,1-2.3.13.13,0,0,1,.08-.17h.08l.44.14a.14.14,0,0,1,.11.18Q287.52,363.26,288,363.51Z"/><path class="cls-10" d="M818.24,368.92c1.09,1.93,2,3.83,2.88,5.68a347.08,347.08,0,0,1,26.38,90,165.08,165.08,0,0,1,1.74,19.88q.48,15.84.19,31.69l-.53,1.2a.67.67,0,0,0-.06.44,6.72,6.72,0,0,1,0,1.51.77.77,0,0,1-.84.71.8.8,0,0,1-.71-.62,15.23,15.23,0,0,0-1.32-3.78,2.13,2.13,0,0,0-2-1.26c-.66,0-1.1-.52-1.31-1.49a.77.77,0,0,0-.73-.65l-2.18-.19a.23.23,0,0,0-.22.11c-.21.35-.43.44-.67.27a.65.65,0,0,0-1,.12,1.63,1.63,0,0,1-2.7,0,.16.16,0,0,1,0-.19s0-.08,0-.11.06-.15,0-.15h-2.57a.75.75,0,0,1-.74-.68l-.15-1.9c0-.54-.33-.75-.86-.63l-4.55,1a.6.6,0,0,1-.77-.41c-.07-.17-.25-.26-.54-.25a.18.18,0,0,0-.18.16c0,.29-.17.42-.36.41-.5,0-1-.29-1-.57a.25.25,0,0,1,0-.25.38.38,0,0,0,0-.38c-.06-.17-.11-.17-.14,0a.54.54,0,0,1-.49.43l-.48.09q-2,.54-3.43-2.28c-.21-.41-.48-.46-.82-.17s-.81.3-1.16-.18a.53.53,0,0,0-.74-.11.61.61,0,0,0-.15.17,1.69,1.69,0,0,1-1.65,1,1.4,1.4,0,0,1-1.32-1.48,1.27,1.27,0,0,1,0-.26,2.33,2.33,0,0,0-.53-2.09,1,1,0,0,0-.76-.39,26.42,26.42,0,0,0-7,.67.32.32,0,0,1-.36-.16c-.19-.33-.08-.39.32-.2s.27.27.06.45c-2.21,1.88-3.72-.56-5.95.22a.76.76,0,0,1-.64-.05l-.81-.45c-.19-.11-.31-.06-.36.17s-.22.32-.52.32a16.13,16.13,0,0,0-2.42.16,8.41,8.41,0,0,1-2.4,0,63.67,63.67,0,0,1-7.68-1.76.66.66,0,0,1-.22-.12,1.51,1.51,0,0,1-.17-.2c-.11-.15-.2-.13-.27,0a36.93,36.93,0,0,0-2.77,10.28q-.6,5.41-.85,14.17a1.7,1.7,0,0,1-.29.92,2.63,2.63,0,0,0-.41,1.4,106,106,0,0,1-2.21,17.51,1.69,1.69,0,0,1-1.3,1.49q12.84-93.12-34.57-173.56l.47-.17a.49.49,0,0,1,.66.25,5.84,5.84,0,0,0,.41.64c.29.37.36.33.21-.11a2.17,2.17,0,0,1-.11-.66.1.1,0,0,1,.09-.12.11.11,0,0,1,.13.09h0l.53,2.29a.21.21,0,0,0,.26.16l0,0c.23-.12.15-.27-.24-.44-.71-.3-.67-.47.1-.51,1.45-.07,2.37.39,2.77,1.38.09.25.26.31.51.2s.22,0,.33.12a.33.33,0,0,1,.09.23v.32c0,.09,0,.1.09,0l.23-.23a.15.15,0,0,0,0-.17,1.27,1.27,0,0,1,.66-1.64,1.14,1.14,0,0,0,.57-.67,15.17,15.17,0,0,1,1.66-3.47,1.67,1.67,0,0,1,1.68-.84,1.14,1.14,0,0,0,.7-.17,11.23,11.23,0,0,1,10.52-1h.06l.24-.13c.18-.1.17-.16,0-.18l-.47-.05a.14.14,0,0,1-.13-.15.16.16,0,0,1,.09-.12,1.81,1.81,0,0,1,1.62.1,1.15,1.15,0,0,0,.87.08l6-1.88a1.42,1.42,0,0,0,.93-1.76c-.2-.64.05-1.07.76-1.28q.2-.06.06-.21a.71.71,0,0,0-.22-.16s0,0,0-.06c1.07-1.39,2.37-1.53,3.89-.44a1,1,0,0,0,.87.17l5.17-1.24a.86.86,0,0,1,.45,0c2.36.79,4.74.5,6.86,1.08q7.1,1.94,14.33,3.36c.9.18,2.2.54,3.91,1.07a25.24,25.24,0,0,0,3.94.89,6.38,6.38,0,0,1,3.36,1.31,9.88,9.88,0,0,1,2.27,3,.58.58,0,0,0,.78.26.56.56,0,0,0,.3-.37l.12-.46c.07-.28,0-.37-.3-.28a1.53,1.53,0,0,1-.36.07.29.29,0,0,1-.35-.31Z"/><path class="cls-13" d="M450.12,681.37q-.47,6.46-.67,13a.48.48,0,0,1-.53.53q-8.09.16-16.13.2-7.44,0-10.46-1.14c-6.74-2.62-9.78-9.62-9.78-16.76q0-87-.07-174.08c0-7.73-.28-13.33,2.75-18.39q2.07-3.43,7.93-8.88,37.23-34.54,74.27-69.27,5.26-4.94,8.12-6.07c8.46-3.35,14.27,1.4,20.16,6.86q35.89,33.29,71.93,66.45c7.44,6.85,12.52,11.77,12.54,22.5q.11,86.68,0,173.37,0,12.5-1.58,16.32-3.76,9.18-16.38,9.3-9.4.07-18.72-.28a.81.81,0,0,1-.77-.78c-.15-6-.25-12.9-1.71-18.32A44.05,44.05,0,0,0,537,644.74q-3.65-.65-20-.63-10.15,0-20.3,0-10.65,0-15.77,1.53C465.81,650.05,451.28,665.18,450.12,681.37Zm52.18-164a24,24,0,0,0-8.48-32.86h0a24,24,0,0,0-33,8.06h0a24,24,0,0,0,8.48,32.86h0a24,24,0,0,0,33-8.06Zm63.39-12.44a24,24,0,0,0-24-24h0a24,24,0,1,0,24,24ZM505.5,565.45a24,24,0,1,0-24,24A24,24,0,0,0,505.5,565.45Zm54.67,15.42a24.09,24.09,0,1,0-33.86,2.94A24,24,0,0,0,560.17,580.87Z"/><path class="cls-12" d="M643.22,468.21q23.53,21.65,47.24,42.82a22.09,22.09,0,0,1,6.15,9.19c7.33,20.5-17.06,36.91-32.72,21.64q-4.36-4.27-18.37-16.75a10.57,10.57,0,0,1-.62-3.11q.52-23.33,0-46.66a13.64,13.64,0,0,0-.55-3.62C644,470.57,643.63,469.4,643.22,468.21Z"/><path class="cls-12" d="M378.16,468.86c-.21,1.54-.42,3-.61,4.43a28.47,28.47,0,0,0-.26,4.44q.4,23.59.41,46.37Q364.11,536.34,361,540q-9.62,11.28-23.15,6.5c-11.8-4.17-15.76-19.39-10-29.75q1.86-3.35,8.49-9.46Q357.05,488.17,378.16,468.86Z"/><ellipse class="cls-12" cx="481.58" cy="504.92" rx="23.84" ry="24.15" transform="translate(-198.99 658.85) rotate(-59.1)"/><circle class="cls-12" cx="541.72" cy="504.88" r="23.97"/><path class="cls-10" d="M849.43,516.19Q850,536.95,848,549.5q-2.19,13.89-4.65,27.74a346.79,346.79,0,0,1-12.13,46.49,232.4,232.4,0,0,1-14.74,35.61c-3.14,6-6.5,13.39-10.41,19.91l-3.72-4.69a.44.44,0,0,1,.07-.68,2.63,2.63,0,0,0,.76-3.58,1,1,0,0,1,0-1,5,5,0,0,0,.19-4.38,1.39,1.39,0,0,0-.48-.62,9.92,9.92,0,0,1-1.25-1.07,6.3,6.3,0,0,0-1.24-1,29.28,29.28,0,0,0-5.42-2.19.93.93,0,0,1-.61-.52,2.88,2.88,0,0,0-1.25-1.35,1.36,1.36,0,0,1-.6-.65,3.43,3.43,0,0,0-3.28-2.2,1.28,1.28,0,0,1-.78-.31L786,652.75a2.19,2.19,0,0,0-.68-.39,17.89,17.89,0,0,0-6.27-.91,2.11,2.11,0,0,1-1-.22l-1.56-.77c-.07,0-.08-.08,0-.14a.55.55,0,0,0,.12-.24c.08-.37-.06-.5-.42-.4-1.79.49-2.92-.1-3.37-1.78a1,1,0,0,0-.92-.72l-3.22,0a.9.9,0,0,1-.77-.43,1.31,1.31,0,0,0-1.72-.53.68.68,0,0,1-.83-.3,2.09,2.09,0,0,0-2-1.29c-2.88-.23-5.12.18-7.23-2.17a.94.94,0,0,0-.74-.34l-6.75-.08a.5.5,0,0,0-.47.24,6,6,0,0,0-1,2,.13.13,0,0,1-.18.09,3.19,3.19,0,0,0-2.83.34,280.68,280.68,0,0,0,31.44-96.46,1.69,1.69,0,0,0,1.3-1.49,106,106,0,0,0,2.21-17.51,2.63,2.63,0,0,1,.41-1.4,1.7,1.7,0,0,0,.29-.92q.25-8.76.85-14.17a36.93,36.93,0,0,1,2.77-10.28c.07-.17.16-.19.27,0a1.51,1.51,0,0,0,.17.2.66.66,0,0,0,.22.12,63.67,63.67,0,0,0,7.68,1.76,8.41,8.41,0,0,0,2.4,0,16.13,16.13,0,0,1,2.42-.16c.3,0,.47-.11.52-.32s.17-.28.36-.17l.81.45a.76.76,0,0,0,.64.05c2.23-.78,3.74,1.66,5.95-.22q.32-.27-.06-.45c-.4-.19-.51-.13-.32.2a.32.32,0,0,0,.36.16,26.42,26.42,0,0,1,7-.67,1,1,0,0,1,.76.39,2.33,2.33,0,0,1,.53,2.09,1.4,1.4,0,0,0,1,1.7,1.09,1.09,0,0,0,.26,0,1.69,1.69,0,0,0,1.65-1,.53.53,0,0,1,.72-.21.61.61,0,0,1,.17.15c.35.48.74.54,1.16.18s.61-.24.82.17q1.41,2.82,3.43,2.28l.48-.09a.54.54,0,0,0,.49-.43c0-.18.08-.18.14,0a.38.38,0,0,1,0,.38c-.19.23,0,.55.51.72a1.65,1.65,0,0,0,.48.1c.19,0,.31-.12.36-.41a.18.18,0,0,1,.18-.16c.29,0,.47.08.54.25a.6.6,0,0,0,.77.41l4.55-1c.53-.12.82.09.86.63l.15,1.9a.75.75,0,0,0,.74.68h2.57s0,0,0,.15,0,.07,0,.11a.16.16,0,0,0,0,.19,1.63,1.63,0,0,0,2.7,0,.65.65,0,0,1,1-.12c.24.17.46.08.67-.27a.23.23,0,0,1,.22-.11l2.18.19a.77.77,0,0,1,.73.65c.21,1,.65,1.47,1.31,1.49a2.13,2.13,0,0,1,2,1.26,15.23,15.23,0,0,1,1.32,3.78.8.8,0,0,0,.94.61.79.79,0,0,0,.61-.7,6.72,6.72,0,0,0,0-1.51.67.67,0,0,1,.06-.44Z"/><path class="cls-10" d="M173.84,539.87a3.61,3.61,0,0,1,.57,3.36,1.66,1.66,0,0,0,.08,1,13.07,13.07,0,0,1,.79,7,1,1,0,0,0,.15.66c.1.15.16.13.19,0a1.45,1.45,0,0,0,0-.36.54.54,0,0,1,.64-.6,1,1,0,0,1,.71.41c.14.22,0,.44-.36.67a.1.1,0,0,1-.13,0l-.23-.23s0,0,0,0a3.89,3.89,0,0,0,.55,3.42.68.68,0,0,0,.92.16l5-3.18a1.07,1.07,0,0,1,.78-.15,7.71,7.71,0,0,0,6.43-1.42.74.74,0,0,1,.93,0c.51.45,1,.54,1.39.29a2.43,2.43,0,0,1,1.11-.36,2.85,2.85,0,0,1,1.44.22,1,1,0,0,0,.77,0l5-1.8a.83.83,0,0,1,.58,0c.2.07.3.18.29.32s0,.1.08.07a8.76,8.76,0,0,1,2.84-.69q1.3-.09,2.82-.3a8.75,8.75,0,0,1,4.37.51,4,4,0,0,0,3.12-.09,1,1,0,0,1,.81,0,2.52,2.52,0,0,1,1.4,1.26.64.64,0,0,0,.58.4,2.34,2.34,0,0,1,1.56.68,1.79,1.79,0,0,0,1,.5,2.23,2.23,0,0,0,2-.49.69.69,0,0,1,.7-.13l2.83,1a.64.64,0,0,1,.41.45.76.76,0,0,0,1,.62,1,1,0,0,1,.9.22,6.37,6.37,0,0,0,3.41,1.4.89.89,0,0,1,.55.26,7.86,7.86,0,0,0,3.46,2,1,1,0,0,1,.64.49.87.87,0,0,0,1.26.4,1.33,1.33,0,0,1,.94-.05l5.12,1.61a.73.73,0,0,1,.52.55l.46,1.82c.09.35.26.4.51.13l.19-.19a.11.11,0,0,1,.15,0l0,0,.24.51c.16.34.36.37.59.08a5.17,5.17,0,0,0,.42-6.46q-.53-.89.27-.75l.27,0a.13.13,0,0,0,.15-.13l.43-3.55a264.05,264.05,0,0,0,13.26,52.86c1.9,5.23,4.87,11.89,7.3,17.87q1.75,4.29,3.07,7.09a305.92,305.92,0,0,0,35.66,58.21q.72,1.72-1.07-.63a.35.35,0,0,0-.58.4l3.31,5.4a.13.13,0,0,1-.05.18.12.12,0,0,1-.1,0l-.95-.33a.71.71,0,0,0-.86.26,6.07,6.07,0,0,1-4.59,2.55.66.66,0,0,0-.62.46.91.91,0,0,1-.32.42,1.09,1.09,0,0,1-.84,0,19.64,19.64,0,0,0-5.64-.61,1.13,1.13,0,0,1-.78-.27,24.15,24.15,0,0,0-7.43-4.23,8.54,8.54,0,0,0-1,.06,2.36,2.36,0,0,1-2.2-1,1,1,0,0,0-.82-.41,4.73,4.73,0,0,1-3.43-1.54,1.68,1.68,0,0,0-.77-.48,4.23,4.23,0,0,1-1.79-1,1.6,1.6,0,0,1-.41-.64,2.24,2.24,0,0,0-1.33-1.33,1.26,1.26,0,0,1-.61-.53l-3.08-5.12a.24.24,0,0,0-.33-.06.25.25,0,0,0-.1.25l.1.34c.17.56,0,.73-.56.52a6.08,6.08,0,0,1-2.59-1.87,1.66,1.66,0,0,0-1-.6,2.4,2.4,0,0,1-1.91-1.43.9.9,0,0,0-.9-.56l-6.1.1a1.41,1.41,0,0,0-1.38,1.4v4a1.34,1.34,0,0,0,.22.75,5.47,5.47,0,0,0,1.4,1.4.68.68,0,0,1-.26,1.23,3.28,3.28,0,0,0-2.62,2.21.88.88,0,0,1-.69.57l-.82.12a1.69,1.69,0,0,0-.94.45,2.75,2.75,0,0,1-3.54.38,1.25,1.25,0,0,0-.79-.2,1.85,1.85,0,0,0-.75.31.71.71,0,0,1-.74.06c-.51-.24-.84-.17-1,.2a.5.5,0,0,1-.73.3,2,2,0,0,0-1.32-.12c-1.83.51-3,.13-4.76-.81a.72.72,0,0,0-.87.08c-.12.1-.16.07-.12-.08a.87.87,0,0,1,.14-.31.28.28,0,0,0-.1-.47,4.4,4.4,0,0,0-3.86-.36,1.61,1.61,0,0,0-.74.54,1.64,1.64,0,0,1-1.44.64,1.45,1.45,0,0,1-.75-.24c-.37-.25-.72-.17-1,.23A19.81,19.81,0,0,0,227.3,693c0,.11-.12.14-.25.07s-.35-.06-.42.16.05.47.39.58a1,1,0,0,0,.56.06.19.19,0,0,1,.26.14,1.67,1.67,0,0,1-1,2.18q-9-14.07-11.69-18.53c-1.52-2.52-2.58-5.8-4.07-8.46a239.14,239.14,0,0,1-15-31.7,329.16,329.16,0,0,1-12.72-40q-5.55-23.44-7-32.25T173.84,539.87Z"/><circle class="cls-12" cx="481.5" cy="565.45" r="24"/><ellipse class="cls-12" cx="541.69" cy="565.42" rx="23.97" ry="24.09" transform="translate(-239.55 618.3) rotate(-50.1)"/><path class="cls-10" d="M806.09,679.25a279.65,279.65,0,0,1-18,28.08q-2.75,3.76-8.43,10.71c-3.83,4.68-7.81,9.93-11.42,14.11a273.74,273.74,0,0,1-32.92,32.41q-6.71,5.54-11,9.1c-7.06,5.91-14.3,10.54-21.75,15.61a327,327,0,0,1-119.64,50.54q-6.5,1.34-13,2.62-7.12,1.41-13.11,2.13a370.28,370.28,0,0,1-117.9-4.62q-8.86-1.79-19.39-4.81-18.61-5.36-29.5-9.37-9.64-3.56-27-11.53-4.78-2.19-11.77-6c-5.17-2.85-10.83-5.54-15.56-8.37-20.24-12.1-39.68-26.08-56.8-42.33q-17.89-17-23-23.09-10.32-12.23-20.07-24.91a131.66,131.66,0,0,1-9-13.31,1.67,1.67,0,0,0,1-2.18.19.19,0,0,0-.26-.14,1,1,0,0,1-.56-.06c-.34-.11-.47-.31-.39-.58s.21-.27.42-.16.21,0,.25-.07a19.81,19.81,0,0,1,2.44-4.86c.33-.4.68-.48,1-.23a1.45,1.45,0,0,0,.75.24,1.64,1.64,0,0,0,1.44-.64,1.61,1.61,0,0,1,.74-.54,4.4,4.4,0,0,1,3.86.36.28.28,0,0,1,.1.47.87.87,0,0,0-.14.31c0,.15,0,.18.12.08a.72.72,0,0,1,.87-.08c1.75.94,2.93,1.32,4.76.81a2,2,0,0,1,1.32.12.5.5,0,0,0,.73-.3c.17-.37.5-.44,1-.2a.71.71,0,0,0,.74-.06,1.85,1.85,0,0,1,.75-.31,1.25,1.25,0,0,1,.79.2,2.75,2.75,0,0,0,3.54-.38,1.69,1.69,0,0,1,.94-.45l.82-.12a.88.88,0,0,0,.69-.57,3.28,3.28,0,0,1,2.62-2.21.67.67,0,0,0,.54-.79.66.66,0,0,0-.28-.44,5.47,5.47,0,0,1-1.4-1.4,1.34,1.34,0,0,1-.22-.75v-4a1.41,1.41,0,0,1,1.38-1.4l6.1-.1a.9.9,0,0,1,.9.56,2.4,2.4,0,0,0,1.91,1.43,1.66,1.66,0,0,1,1,.6,6.08,6.08,0,0,0,2.59,1.87c.55.21.73,0,.56-.52l-.1-.34a.24.24,0,0,1,.18-.29.24.24,0,0,1,.25.1l3.08,5.12a1.26,1.26,0,0,0,.61.53,2.24,2.24,0,0,1,1.33,1.33,1.6,1.6,0,0,0,.41.64,4.23,4.23,0,0,0,1.79,1,1.68,1.68,0,0,1,.77.48,4.73,4.73,0,0,0,3.43,1.54,1,1,0,0,1,.82.41,2.36,2.36,0,0,0,2.2,1,8.54,8.54,0,0,1,1-.06,24.15,24.15,0,0,1,7.43,4.23,1.13,1.13,0,0,0,.78.27,19.64,19.64,0,0,1,5.64.61,1.09,1.09,0,0,0,.84,0,.91.91,0,0,0,.32-.42.66.66,0,0,1,.62-.46,6.07,6.07,0,0,0,4.59-2.55.71.71,0,0,1,.86-.26l.95.33a.13.13,0,0,0,.16-.09.12.12,0,0,0,0-.1l-3.31-5.4a.35.35,0,0,1,.58-.4q1.79,2.35,1.07.63,10.51,13.13,22.19,25.18c5.5,5.67,9.11,11.61,13.19,18.08,13.82,21.9,37.88,37.3,64.23,37.27q102.83-.12,205.66-.16,12.75,0,19.06-1.42c18.66-4.2,37.49-17.84,47.49-33.48,4.63-7.23,7.91-12.45,13.86-18.61,20.31-21.05,37.43-43.29,51.88-69.63a3.19,3.19,0,0,1,2.83-.34.13.13,0,0,0,.18-.09,6,6,0,0,1,1-2,.5.5,0,0,1,.47-.24l6.75.08a.94.94,0,0,1,.74.34c2.11,2.35,4.35,1.94,7.23,2.17a2.09,2.09,0,0,1,2,1.29.68.68,0,0,0,.83.3,1.31,1.31,0,0,1,1.72.53.9.9,0,0,0,.77.43l3.22,0a1,1,0,0,1,.92.72c.45,1.68,1.58,2.27,3.37,1.78.36-.1.5,0,.42.4a.55.55,0,0,1-.12.24c-.06.06-.05.11,0,.14l1.56.77a2.11,2.11,0,0,0,1,.22,17.89,17.89,0,0,1,6.27.91,2.19,2.19,0,0,1,.68.39l2.47,2.16a1.28,1.28,0,0,0,.78.31,3.43,3.43,0,0,1,3.28,2.2,1.36,1.36,0,0,0,.6.65,2.88,2.88,0,0,1,1.25,1.35.93.93,0,0,0,.61.52,29.28,29.28,0,0,1,5.42,2.19,6.3,6.3,0,0,1,1.24,1,9.92,9.92,0,0,0,1.25,1.07,1.39,1.39,0,0,1,.48.62,5,5,0,0,1-.19,4.38,1,1,0,0,0,0,1,2.63,2.63,0,0,1-.76,3.58.44.44,0,0,0-.07.68Z"/></svg>