<?xml version="1.0" encoding="UTF-8" standalone="no"?>
<!DOCTYPE svg PUBLIC "-//W3C//DTD SVG 1.1//EN" "http://www.w3.org/Graphics/SVG/1.1/DTD/svg11.dtd">
<svg xmlns="http://www.w3.org/2000/svg" version="1.1" viewBox="0.00 0.00 1024.00 1024.00">
<g stroke-width="2.00" fill="none" stroke-linecap="butt">
<path stroke="#fa7f00" vector-effect="non-scaling-stroke" d="
  M 818.24 368.92
  L 818.48 372.52
  Q 818.50 372.85 818.83 372.83
  Q 819.01 372.82 819.19 372.76
  Q 819.60 372.62 819.49 373.04
  L 819.37 373.50
  A 0.58 0.58 0.0 0 1 818.29 373.61
  Q 817.41 371.83 816.02 370.58
  Q 814.93 369.60 812.66 369.27
  Q 810.65 368.98 808.72 368.38
  Q 806.16 367.58 804.81 367.31
  Q 797.58 365.88 790.48 363.95
  C 788.36 363.37 785.98 363.66 783.62 362.87
  A 0.89 0.86 -41.3 0 0 783.17 362.85
  L 778.00 364.09
  Q 777.53 364.20 777.13 363.92
  Q 774.85 362.28 773.24 364.36
  Q 773.21 364.41 773.26 364.42
  Q 773.36 364.46 773.48 364.58
  Q 773.62 364.73 773.42 364.79
  Q 772.36 365.11 772.66 366.07
  A 1.42 1.42 0.0 0 1 771.73 367.83
  L 765.72 369.71
  A 1.15 1.14 50.0 0 1 764.85 369.63
  Q 764.07 369.20 763.23 369.53
  A 0.14 0.14 0.0 0 0 763.27 369.80
  L 763.74 369.85
  Q 764.05 369.88 763.78 370.03
  L 763.54 370.16
  Q 763.51 370.18 763.48 370.16
  Q 757.99 368.04 752.96 371.19
  Q 752.64 371.39 752.26 371.36
  Q 751.18 371.26 750.58 372.20
  Q 749.53 373.82 748.92 375.67
  Q 748.77 376.12 748.35 376.34
  Q 747.37 376.85 747.69 377.98
  Q 747.72 378.08 747.65 378.15
  L 747.42 378.38
  Q 747.33 378.47 747.33 378.34
  Q 747.33 378.18 747.33 378.02
  Q 747.33 377.89 747.24 377.79
  Q 747.07 377.60 746.91 377.67
  Q 746.54 377.84 746.40 377.47
  Q 745.80 375.98 743.63 376.09
  Q 742.47 376.15 743.53 376.60
  Q 744.12 376.86 743.77 377.04
  A 0.22 0.21 68.7 0 1 743.46 376.90
  L 742.93 374.61
  A 0.11 0.11 0.0 0 0 742.71 374.64
  Q 742.71 374.97 742.82 375.30
  Q 743.04 375.96 742.61 375.41
  Q 742.39 375.11 742.20 374.77
  Q 741.98 374.36 741.54 374.52
  L 741.07 374.69"
/>
<path stroke="#906023" vector-effect="non-scaling-stroke" d="
  M 741.07 374.69
  Q 683.67 281.57 578.44 252.43
  C 571.01 250.38 561.14 248.59 552.52 246.43
  A 1.62 1.58 -12.0 0 1 551.68 245.90
  C 538.04 229.75 520.69 220.89 499.26 225.82
  C 485.85 228.90 477.70 236.75 468.17 245.88
  C 467.32 246.69 466.62 246.94 465.55 247.15
  Q 427.47 254.88 392.48 271.71
  C 350.42 291.95 313.94 325.00 288.00 363.51"
/>
<path stroke="#fa7f00" vector-effect="non-scaling-stroke" d="
  M 288.00 363.51
  Q 287.52 363.26 287.64 362.46
  Q 287.67 362.32 287.53 362.28
  L 287.09 362.14
  A 0.13 0.13 0.0 0 0 286.93 362.31
  Q 287.54 363.88 285.97 364.61
  Q 285.77 364.70 285.75 364.48
  Q 285.72 364.12 286.07 363.97
  A 0.05 0.05 0.0 0 0 286.06 363.87
  Q 285.92 363.86 285.80 363.78
  Q 285.58 363.62 285.39 363.82
  Q 284.26 364.98 284.95 366.34
  Q 285.11 366.64 284.87 366.87
  L 284.62 367.12
  A 0.45 0.44 70.4 0 1 283.87 366.76
  Q 284.07 364.30 282.65 362.15
  Q 282.43 361.81 282.15 362.09
  L 281.91 362.33
  Q 281.64 362.60 281.29 362.44
  Q 279.68 361.71 278.00 362.42
  Q 277.59 362.59 277.39 362.20
  Q 277.24 361.90 277.33 361.59
  Q 277.37 361.47 277.39 361.60
  Q 277.59 362.81 276.21 363.00
  Q 275.74 363.07 275.31 362.85
  L 273.92 362.14
  Q 273.49 361.92 273.14 362.25
  Q 272.92 362.46 272.68 362.64
  Q 272.40 362.85 272.39 362.50
  L 272.38 362.11
  A 0.19 0.19 0.0 0 0 272.03 362.01
  Q 270.39 364.46 267.93 363.37
  Q 267.49 363.17 266.99 363.16
  L 259.96 362.97
  Q 259.45 362.96 259.06 362.63
  Q 258.31 362.01 257.75 362.00
  Q 251.48 361.99 247.99 363.48
  Q 245.59 364.50 243.78 364.49
  Q 243.28 364.49 242.82 364.68
  Q 241.74 365.13 240.71 364.44
  Q 240.16 364.06 239.99 364.71
  Q 239.74 365.63 239.13 365.89
  Q 237.56 366.55 236.46 365.18
  Q 236.38 365.09 236.31 365.18
  Q 236.21 365.29 236.11 365.35
  Q 235.66 365.64 235.25 365.66
  L 228.77 365.89
  Q 228.23 365.91 227.88 366.31
  Q 227.31 366.97 226.42 366.88
  Q 225.93 366.84 225.45 366.95
  Q 221.76 367.82 218.44 369.56
  Q 218.13 369.73 217.78 369.64
  L 216.93 369.43
  Q 216.29 369.28 216.09 369.90
  L 215.98 370.23
  Q 215.84 370.69 215.36 370.67
  Q 213.21 370.58 211.91 372.30
  Q 211.63 372.68 211.20 372.89
  L 206.35 375.24
  Q 205.75 375.53 205.20 375.15
  Q 203.44 373.93 203.04 371.80
  A 0.04 0.04 0.0 0 1 203.11 371.77
  Q 203.20 371.89 203.28 372.01
  A 0.13 0.12 35.8 0 0 203.50 371.98
  L 203.69 371.39
  Q 203.77 371.14 204.03 371.15
  L 204.48 371.15
  Q 204.81 371.16 204.53 370.99
  L 204.22 370.80
  Q 203.75 370.51 204.03 370.03
  Q 205.11 368.16 205.10 366.23"
/>
<path stroke="#f07300" vector-effect="non-scaling-stroke" d="
  M 849.43 516.19
  L 848.90 517.39
  Q 848.80 517.60 848.84 517.83
  Q 848.95 518.51 848.89 519.34
  A 0.79 0.78 41.6 0 1 847.34 519.43
  Q 846.96 517.55 846.02 515.65
  Q 845.41 514.42 844.03 514.39
  Q 843.04 514.36 842.72 512.90
  Q 842.59 512.31 841.99 512.25
  L 839.81 512.06
  A 0.24 0.22 15.9 0 0 839.59 512.17
  Q 839.28 512.69 838.92 512.44
  Q 838.38 512.07 837.95 512.56
  Q 836.68 513.99 835.25 512.57
  Q 835.16 512.48 835.20 512.38
  Q 835.22 512.32 835.24 512.27
  Q 835.32 512.12 835.25 512.12
  L 832.68 512.12
  A 0.75 0.74 87.5 0 1 831.94 511.44
  L 831.79 509.54
  Q 831.73 508.73 830.93 508.91
  L 826.38 509.91
  Q 825.82 510.04 825.61 509.50
  Q 825.50 509.24 825.07 509.25
  Q 824.92 509.26 824.89 509.41
  Q 824.82 509.84 824.53 509.82
  A 0.93 0.49 11.6 0 1 823.54 509.00
  Q 823.65 508.86 823.56 508.62
  Q 823.47 508.36 823.42 508.63
  Q 823.35 508.99 822.93 509.06
  Q 822.55 509.13 822.45 509.15
  Q 820.43 509.69 819.02 506.87
  Q 818.71 506.26 818.20 506.70
  Q 817.57 507.24 817.04 506.52
  A 0.53 0.53 0.0 0 0 816.15 506.58
  Q 815.58 507.64 814.50 507.59
  A 1.40 1.40 0.0 0 1 813.22 505.85
  Q 813.49 504.75 812.69 503.76
  Q 812.40 503.39 811.93 503.37
  Q 808.36 503.23 804.89 504.04
  A 0.32 0.32 0.0 0 1 804.53 503.88
  Q 804.25 503.39 804.85 503.68
  Q 805.23 503.86 804.91 504.13
  C 802.70 506.01 801.19 503.57 798.96 504.35
  Q 798.63 504.47 798.32 504.30
  L 797.51 503.85
  Q 797.22 503.68 797.15 504.02
  Q 797.08 504.34 796.63 504.34
  Q 795.40 504.33 794.21 504.50
  Q 792.82 504.68 791.81 504.52
  Q 787.92 503.88 784.13 502.76
  Q 784.00 502.72 783.91 502.64
  Q 783.81 502.54 783.74 502.44
  Q 783.58 502.22 783.47 502.48
  Q 781.25 507.75 780.70 512.76
  Q 780.10 518.17 779.85 526.93
  Q 779.84 527.43 779.56 527.85
  Q 779.18 528.41 779.15 529.25
  Q 778.83 537.64 776.94 546.76
  Q 776.68 548.02 775.64 548.25"
/>
<path stroke="#8b5923" vector-effect="non-scaling-stroke" d="
  M 741.07 374.69
  Q 788.48 455.13 775.64 548.25"
/>
<path stroke="#875423" vector-effect="non-scaling-stroke" d="
  M 775.64 548.25
  Q 768.66 599.48 744.20 644.71"
/>
<path stroke="#844e23" vector-effect="non-scaling-stroke" d="
  M 744.20 644.71
  C 729.75 671.05 712.63 693.29 692.32 714.34
  C 686.37 720.50 683.09 725.72 678.46 732.95
  C 668.46 748.59 649.63 762.23 630.97 766.43
  Q 624.66 767.85 611.91 767.85
  Q 509.08 767.89 406.25 768.01
  C 379.90 768.04 355.84 752.64 342.02 730.74
  C 337.94 724.27 334.33 718.33 328.83 712.66
  Q 317.15 700.61 306.64 687.48"
/>
<path stroke="#875423" vector-effect="non-scaling-stroke" d="
  M 306.64 687.48
  Q 285.55 660.36 270.98 629.27
  Q 269.66 626.47 267.91 622.18
  C 265.48 616.20 262.51 609.54 260.61 604.31
  Q 251.25 578.59 247.35 551.45"
/>
<path stroke="#8b5923" vector-effect="non-scaling-stroke" d="
  M 247.35 551.45
  Q 242.81 521.98 245.12 490.81
  Q 250.26 421.25 288.00 363.51"
/>
<path stroke="#f07300" vector-effect="non-scaling-stroke" d="
  M 247.35 551.45
  L 246.92 555.00
  Q 246.91 555.13 246.77 555.13
  Q 246.63 555.13 246.50 555.11
  Q 245.70 554.97 246.23 555.86
  Q 248.29 559.34 245.81 562.32
  Q 245.46 562.75 245.22 562.24
  L 244.98 561.73
  A 0.11 0.10 -34.3 0 0 244.81 561.70
  Q 244.70 561.80 244.62 561.89
  Q 244.24 562.29 244.11 561.76
  L 243.65 559.94
  Q 243.55 559.52 243.13 559.39
  L 238.01 557.78
  Q 237.53 557.63 237.07 557.83
  Q 236.22 558.19 235.81 557.43
  A 1.03 1.00 -6.7 0 0 235.17 556.94
  Q 233.20 556.42 231.71 554.99
  A 0.91 0.89 69.8 0 0 231.16 554.73
  Q 229.21 554.52 227.75 553.33
  A 1.07 1.05 58.3 0 0 226.85 553.11
  Q 226.03 553.29 225.83 552.49
  A 0.66 0.63 3.8 0 0 225.42 552.04
  L 222.59 551.02
  A 0.71 0.70 34.2 0 0 221.89 551.15
  Q 221.09 551.85 219.92 551.64
  Q 219.36 551.54 218.96 551.14
  Q 218.34 550.52 217.40 550.46
  Q 216.99 550.43 216.82 550.06
  Q 216.38 549.17 215.42 548.80
  Q 215.01 548.65 214.61 548.83
  Q 213.08 549.50 211.49 548.92
  Q 209.27 548.10 207.12 548.41
  Q 205.61 548.62 204.30 548.71
  Q 202.83 548.82 201.46 549.40
  Q 201.37 549.44 201.38 549.33
  Q 201.39 549.12 201.09 549.01
  Q 200.80 548.90 200.51 549.00
  L 195.51 550.80
  Q 195.12 550.94 194.74 550.77
  Q 194.09 550.48 193.30 550.55
  Q 192.70 550.60 192.19 550.91
  Q 191.56 551.29 190.80 550.62
  A 0.74 0.73 47.4 0 0 189.87 550.58
  Q 186.98 552.73 183.44 552.00
  Q 183.02 551.92 182.66 552.15
  L 177.67 555.33
  A 0.69 0.68 -34.8 0 1 176.75 555.17
  Q 175.71 553.81 176.20 551.75
  Q 176.21 551.71 176.24 551.74
  L 176.47 551.97
  Q 176.53 552.02 176.60 551.98
  Q 177.17 551.64 176.96 551.31
  A 0.78 0.61 29.9 0 0 175.61 551.50
  Q 175.64 551.68 175.62 551.86
  Q 175.58 552.12 175.43 551.90
  Q 175.23 551.59 175.28 551.24
  Q 175.84 547.42 174.49 544.19
  A 1.63 1.60 40.7 0 1 174.41 543.23
  Q 174.90 541.09 173.84 539.87"
/>
<path stroke="#e96700" vector-effect="non-scaling-stroke" d="
  M 806.09 679.25
  L 802.37 674.56
  Q 802.08 674.19 802.44 673.88
  Q 804.28 672.32 803.20 670.30
  Q 802.92 669.78 803.20 669.25
  Q 804.31 667.15 803.39 664.87
  Q 803.24 664.49 802.91 664.25
  Q 802.23 663.76 801.66 663.18
  Q 800.82 662.34 800.42 662.13
  Q 797.82 660.77 795.00 659.94
  Q 794.58 659.82 794.39 659.42
  Q 793.98 658.53 793.14 658.07
  Q 792.73 657.85 792.54 657.42
  Q 791.61 655.29 789.26 655.22
  Q 788.82 655.20 788.48 654.91
  L 786.01 652.75
  Q 785.71 652.49 785.33 652.36
  Q 782.26 651.34 779.06 651.45
  Q 778.52 651.47 778.04 651.23
  L 776.48 650.46
  Q 776.37 650.41 776.46 650.32
  Q 776.55 650.22 776.58 650.08
  Q 776.70 649.53 776.16 649.68
  Q 773.47 650.42 772.79 647.90
  A 0.97 0.96 82.8 0 0 771.87 647.18
  L 768.65 647.15
  Q 768.15 647.14 767.88 646.72
  Q 767.27 645.78 766.16 646.19
  A 0.68 0.67 64.5 0 1 765.33 645.89
  C 764.82 645.00 764.42 644.69 763.36 644.60
  C 760.48 644.37 758.24 644.78 756.13 642.43
  Q 755.83 642.09 755.39 642.09
  L 748.64 642.01
  Q 748.34 642.00 748.17 642.25
  Q 747.46 643.24 747.21 644.28
  Q 747.17 644.42 747.03 644.37
  Q 745.67 643.86 744.20 644.71"
/>
<path stroke="#e96700" vector-effect="non-scaling-stroke" d="
  M 306.64 687.48
  Q 307.36 689.21 305.57 686.85
  A 0.35 0.35 0.0 0 0 304.99 687.25
  L 308.30 692.65
  A 0.13 0.13 0.0 0 1 308.15 692.84
  L 307.20 692.51
  Q 306.67 692.33 306.34 692.77
  Q 304.61 695.09 301.75 695.32
  Q 301.30 695.35 301.13 695.78
  Q 301.02 696.05 300.81 696.20
  Q 300.54 696.38 299.97 696.24
  Q 297.17 695.52 294.33 695.63
  Q 293.89 695.64 293.55 695.36
  Q 290.22 692.59 286.12 691.13
  A 1.10 0.05 -5.9 0 0 285.13 691.19
  Q 283.80 691.32 282.93 690.23
  Q 282.61 689.83 282.11 689.82
  Q 280.03 689.74 278.68 688.28
  Q 278.36 687.94 277.91 687.80
  Q 276.88 687.50 276.12 686.77
  Q 275.84 686.50 275.71 686.13
  Q 275.37 685.20 274.38 684.80
  Q 273.99 684.64 273.77 684.27
  L 270.69 679.15
  A 0.24 0.24 0.0 0 0 270.26 679.34
  L 270.36 679.68
  Q 270.62 680.52 269.80 680.20
  Q 268.24 679.60 267.21 678.33
  Q 266.80 677.83 266.17 677.73
  Q 264.85 677.53 264.26 676.30
  Q 263.99 675.73 263.36 675.74
  L 257.26 675.84
  A 1.41 1.40 -0.6 0 0 255.88 677.24
  L 255.88 681.25
  Q 255.88 681.66 256.10 682.00
  Q 256.61 682.77 257.50 683.40
  A 0.68 0.68 0.0 0 1 257.24 684.63
  Q 255.33 684.98 254.62 686.84
  Q 254.43 687.32 253.93 687.41
  Q 253.51 687.49 253.11 687.53
  Q 252.57 687.60 252.17 687.98
  Q 250.62 689.46 248.63 688.36
  Q 248.16 688.10 247.84 688.16
  Q 247.47 688.22 247.09 688.47
  Q 246.74 688.71 246.35 688.53
  Q 245.59 688.17 245.34 688.73
  Q 245.12 689.24 244.61 689.03
  Q 243.91 688.74 243.29 688.91
  C 241.46 689.42 240.28 689.04 238.53 688.10
  Q 238.06 687.85 237.66 688.18
  Q 237.48 688.33 237.54 688.10
  Q 237.58 687.93 237.68 687.79
  Q 237.91 687.50 237.58 687.32
  Q 235.68 686.24 233.72 686.96
  Q 233.27 687.12 232.98 687.50
  Q 232.43 688.19 231.54 688.14
  Q 231.13 688.12 230.79 687.90
  Q 230.24 687.53 229.74 688.13
  Q 228.73 689.34 227.30 692.99
  Q 227.24 693.16 227.05 693.06
  Q 226.74 692.89 226.63 693.22
  Q 226.51 693.63 227.02 693.80
  Q 227.38 693.92 227.58 693.86
  Q 227.78 693.80 227.84 694.00
  Q 228.29 695.46 226.81 696.18"
/>
<path stroke="#909da3" vector-effect="non-scaling-stroke" d="
  M 633.10 355.68
  A 0.43 0.43 0.0 0 1 632.41 355.86
  Q 583.27 311.36 533.98 267.49
  C 520.71 255.67 500.77 255.58 487.36 267.35
  Q 459.05 292.19 439.51 310.01
  Q 378.11 365.98 316.66 421.90
  Q 310.91 427.13 308.54 431.27
  C 302.65 441.60 308.97 455.65 320.30 458.94
  Q 332.22 462.41 341.40 453.90
  Q 421.32 379.81 501.82 306.31
  C 507.07 301.52 511.74 298.28 517.76 303.74
  Q 560.16 342.23 683.06 454.68
  Q 690.41 461.41 699.44 459.70
  C 716.54 456.48 722.17 436.87 709.23 425.28
  Q 694.05 411.69 679.08 398.50
  Q 677.91 397.47 677.80 395.92
  Q 677.54 392.31 677.54 388.25
  Q 677.54 364.48 677.47 340.70
  C 677.45 331.80 676.56 324.97 670.33 319.42
  C 655.82 306.47 633.22 315.85 633.41 335.24
  Q 633.50 344.76 633.32 354.24
  Q 633.30 355.10 633.10 355.68"
/>
<path stroke="#909da3" vector-effect="non-scaling-stroke" d="
  M 378.16 468.86
  Q 357.06 488.16 336.34 507.29
  Q 329.71 513.41 327.85 516.75
  C 322.08 527.11 326.04 542.33 337.84 546.50
  Q 351.38 551.28 360.99 540.00
  Q 364.11 536.34 377.70 524.10"
/>
<path stroke="#906023" vector-effect="non-scaling-stroke" d="
  M 377.70 524.10
  Q 378.07 527.01 377.96 529.73
  Q 377.78 534.22 377.78 534.27
  Q 377.69 611.88 377.81 689.50
  Q 377.84 710.49 392.17 722.91
  C 399.34 729.12 408.33 732.39 417.75 732.47
  Q 434.62 732.62 460.63 732.34
  C 468.60 732.26 475.67 730.96 480.46 725.22
  C 486.07 718.50 485.07 710.73 484.99 701.38
  Q 484.93 694.96 486.21 691.78
  C 489.66 683.27 496.60 681.96 505.65 681.92
  Q 513.30 681.89 520.95 681.95
  Q 525.55 681.99 528.28 683.31
  C 539.85 688.87 537.22 702.18 537.25 712.49
  C 537.29 723.98 546.35 732.30 557.49 732.44
  Q 567.30 732.56 590.99 732.39
  Q 607.61 732.27 610.96 731.71
  C 628.69 728.73 644.28 713.39 644.30 694.75
  Q 644.35 620.37 644.25 546.00
  Q 644.23 536.25 644.59 526.50
  Q 644.64 524.99 645.52 525.11"
/>
<path stroke="#909da3" vector-effect="non-scaling-stroke" d="
  M 645.52 525.11
  Q 659.52 537.59 663.89 541.86
  C 679.55 557.13 703.94 540.72 696.61 520.22
  Q 694.67 514.80 690.46 511.03
  Q 666.76 489.85 643.22 468.21"
/>
<path stroke="#906023" vector-effect="non-scaling-stroke" d="
  M 643.22 468.21
  Q 639.94 464.93 627.57 453.68
  Q 597.97 426.78 532.69 366.18
  Q 525.72 359.71 521.88 357.99
  C 512.26 353.69 499.82 355.98 492.08 363.08
  Q 451.96 399.90 390.42 457.17
  Q 380.93 466.01 378.16 468.86"
/>
<path stroke="#ffc380" vector-effect="non-scaling-stroke" d="
  M 643.22 468.21
  Q 643.83 470.00 644.34 471.72
  Q 644.85 473.42 644.89 475.34
  Q 645.42 498.67 644.90 522.00
  Q 644.88 523.09 645.52 525.11"
/>
<path stroke="#ffc380" vector-effect="non-scaling-stroke" d="
  M 377.70 524.10
  Q 377.69 501.33 377.29 477.73
  Q 377.25 475.48 377.55 473.29
  Q 377.84 471.17 378.16 468.86"
/>
<path stroke="#906023" vector-effect="non-scaling-stroke" d="
  M 450.12 681.37
  C 451.28 665.18 465.81 650.05 480.93 645.69
  Q 486.05 644.21 496.70 644.16
  Q 506.85 644.12 517.00 644.11
  Q 533.32 644.09 536.96 644.74
  C 552.97 647.60 566.82 660.19 571.06 675.98
  C 572.52 681.40 572.62 688.27 572.77 694.30
  A 0.80 0.80 0.0 0 0 573.54 695.08
  Q 582.85 695.44 592.26 695.36
  Q 604.87 695.24 608.64 686.06
  Q 610.21 682.23 610.22 669.74
  Q 610.28 583.06 610.18 496.37
  C 610.16 485.64 605.08 480.72 597.64 473.87
  Q 561.61 440.71 525.71 407.42
  C 519.82 401.96 514.01 397.21 505.55 400.56
  Q 502.70 401.69 497.43 406.63
  Q 460.39 441.36 423.16 475.90
  Q 417.30 481.34 415.23 484.78
  C 412.20 489.84 412.48 495.44 412.48 503.17
  Q 412.53 590.21 412.55 677.25
  C 412.55 684.39 415.59 691.39 422.33 694.01
  Q 425.35 695.18 432.79 695.15
  Q 440.84 695.11 448.92 694.95
  Q 449.44 694.94 449.45 694.42
  Q 449.66 687.84 450.12 681.37"
/>
<path stroke="#909da3" vector-effect="non-scaling-stroke" d="
  M 502.3023 517.3220
  A 24.15 23.84 30.9 0 0 493.8228 484.4637
  A 24.15 23.84 30.9 0 0 460.8577 492.5180
  A 24.15 23.84 30.9 0 0 469.3372 525.3763
  A 24.15 23.84 30.9 0 0 502.3023 517.3220"
/>
<path stroke="#909da3" vector-effect="non-scaling-stroke" d="
  M 565.69 504.88
  A 23.97 23.97 0.0 0 0 541.72 480.91
  A 23.97 23.97 0.0 0 0 517.75 504.88
  A 23.97 23.97 0.0 0 0 541.72 528.85
  A 23.97 23.97 0.0 0 0 565.69 504.88"
/>
<path stroke="#909da3" vector-effect="non-scaling-stroke" d="
  M 505.50 565.45
  A 24.00 24.00 0.0 0 0 481.50 541.45
  A 24.00 24.00 0.0 0 0 457.50 565.45
  A 24.00 24.00 0.0 0 0 481.50 589.45
  A 24.00 24.00 0.0 0 0 505.50 565.45"
/>
<path stroke="#909da3" vector-effect="non-scaling-stroke" d="
  M 560.1710 580.8725
  A 24.09 23.97 39.9 0 0 557.0655 547.0311
  A 24.09 23.97 39.9 0 0 523.2090 549.9675
  A 24.09 23.97 39.9 0 0 526.3145 583.8089
  A 24.09 23.97 39.9 0 0 560.1710 580.8725"
/>
</g>
<path fill="#ff8600" d="
  M 818.24 368.92
  L 818.48 372.52
  Q 818.50 372.85 818.83 372.83
  Q 819.01 372.82 819.19 372.76
  Q 819.60 372.62 819.49 373.04
  L 819.37 373.50
  A 0.58 0.58 0.0 0 1 818.29 373.61
  Q 817.41 371.83 816.02 370.58
  Q 814.93 369.60 812.66 369.27
  Q 810.65 368.98 808.72 368.38
  Q 806.16 367.58 804.81 367.31
  Q 797.58 365.88 790.48 363.95
  C 788.36 363.37 785.98 363.66 783.62 362.87
  A 0.89 0.86 -41.3 0 0 783.17 362.85
  L 778.00 364.09
  Q 777.53 364.20 777.13 363.92
  Q 774.85 362.28 773.24 364.36
  Q 773.21 364.41 773.26 364.42
  Q 773.36 364.46 773.48 364.58
  Q 773.62 364.73 773.42 364.79
  Q 772.36 365.11 772.66 366.07
  A 1.42 1.42 0.0 0 1 771.73 367.83
  L 765.72 369.71
  A 1.15 1.14 50.0 0 1 764.85 369.63
  Q 764.07 369.20 763.23 369.53
  A 0.14 0.14 0.0 0 0 763.27 369.80
  L 763.74 369.85
  Q 764.05 369.88 763.78 370.03
  L 763.54 370.16
  Q 763.51 370.18 763.48 370.16
  Q 757.99 368.04 752.96 371.19
  Q 752.64 371.39 752.26 371.36
  Q 751.18 371.26 750.58 372.20
  Q 749.53 373.82 748.92 375.67
  Q 748.77 376.12 748.35 376.34
  Q 747.37 376.85 747.69 377.98
  Q 747.72 378.08 747.65 378.15
  L 747.42 378.38
  Q 747.33 378.47 747.33 378.34
  Q 747.33 378.18 747.33 378.02
  Q 747.33 377.89 747.24 377.79
  Q 747.07 377.60 746.91 377.67
  Q 746.54 377.84 746.40 377.47
  Q 745.80 375.98 743.63 376.09
  Q 742.47 376.15 743.53 376.60
  Q 744.12 376.86 743.77 377.04
  A 0.22 0.21 68.7 0 1 743.46 376.90
  L 742.93 374.61
  A 0.11 0.11 0.0 0 0 742.71 374.64
  Q 742.71 374.97 742.82 375.30
  Q 743.04 375.96 742.61 375.41
  Q 742.39 375.11 742.20 374.77
  Q 741.98 374.36 741.54 374.52
  L 741.07 374.69
  Q 683.67 281.57 578.44 252.43
  C 571.01 250.38 561.14 248.59 552.52 246.43
  A 1.62 1.58 -12.0 0 1 551.68 245.90
  C 538.04 229.75 520.69 220.89 499.26 225.82
  C 485.85 228.90 477.70 236.75 468.17 245.88
  C 467.32 246.69 466.62 246.94 465.55 247.15
  Q 427.47 254.88 392.48 271.71
  C 350.42 291.95 313.94 325.00 288.00 363.51
  Q 287.52 363.26 287.64 362.46
  Q 287.67 362.32 287.53 362.28
  L 287.09 362.14
  A 0.13 0.13 0.0 0 0 286.93 362.31
  Q 287.54 363.88 285.97 364.61
  Q 285.77 364.70 285.75 364.48
  Q 285.72 364.12 286.07 363.97
  A 0.05 0.05 0.0 0 0 286.06 363.87
  Q 285.92 363.86 285.80 363.78
  Q 285.58 363.62 285.39 363.82
  Q 284.26 364.98 284.95 366.34
  Q 285.11 366.64 284.87 366.87
  L 284.62 367.12
  A 0.45 0.44 70.4 0 1 283.87 366.76
  Q 284.07 364.30 282.65 362.15
  Q 282.43 361.81 282.15 362.09
  L 281.91 362.33
  Q 281.64 362.60 281.29 362.44
  Q 279.68 361.71 278.00 362.42
  Q 277.59 362.59 277.39 362.20
  Q 277.24 361.90 277.33 361.59
  Q 277.37 361.47 277.39 361.60
  Q 277.59 362.81 276.21 363.00
  Q 275.74 363.07 275.31 362.85
  L 273.92 362.14
  Q 273.49 361.92 273.14 362.25
  Q 272.92 362.46 272.68 362.64
  Q 272.40 362.85 272.39 362.50
  L 272.38 362.11
  A 0.19 0.19 0.0 0 0 272.03 362.01
  Q 270.39 364.46 267.93 363.37
  Q 267.49 363.17 266.99 363.16
  L 259.96 362.97
  Q 259.45 362.96 259.06 362.63
  Q 258.31 362.01 257.75 362.00
  Q 251.48 361.99 247.99 363.48
  Q 245.59 364.50 243.78 364.49
  Q 243.28 364.49 242.82 364.68
  Q 241.74 365.13 240.71 364.44
  Q 240.16 364.06 239.99 364.71
  Q 239.74 365.63 239.13 365.89
  Q 237.56 366.55 236.46 365.18
  Q 236.38 365.09 236.31 365.18
  Q 236.21 365.29 236.11 365.35
  Q 235.66 365.64 235.25 365.66
  L 228.77 365.89
  Q 228.23 365.91 227.88 366.31
  Q 227.31 366.97 226.42 366.88
  Q 225.93 366.84 225.45 366.95
  Q 221.76 367.82 218.44 369.56
  Q 218.13 369.73 217.78 369.64
  L 216.93 369.43
  Q 216.29 369.28 216.09 369.90
  L 215.98 370.23
  Q 215.84 370.69 215.36 370.67
  Q 213.21 370.58 211.91 372.30
  Q 211.63 372.68 211.20 372.89
  L 206.35 375.24
  Q 205.75 375.53 205.20 375.15
  Q 203.44 373.93 203.04 371.80
  A 0.04 0.04 0.0 0 1 203.11 371.77
  Q 203.20 371.89 203.28 372.01
  A 0.13 0.12 35.8 0 0 203.50 371.98
  L 203.69 371.39
  Q 203.77 371.14 204.03 371.15
  L 204.48 371.15
  Q 204.81 371.16 204.53 370.99
  L 204.22 370.80
  Q 203.75 370.51 204.03 370.03
  Q 205.11 368.16 205.10 366.23
  C 210.24 356.86 214.42 346.88 220.27 337.95
  Q 222.58 334.42 224.83 330.85
  C 228.19 325.49 232.23 320.50 235.84 315.20
  Q 239.37 310.01 242.12 306.58
  Q 255.97 289.25 263.03 281.78
  Q 274.59 269.53 292.69 254.26
  Q 300.49 247.68 308.42 241.90
  Q 327.77 227.81 343.72 219.00
  Q 360.07 209.97 384.15 199.94
  Q 390.77 197.19 400.12 194.27
  C 407.33 192.02 414.92 189.24 421.69 187.48
  Q 435.77 183.81 458.50 179.25
  Q 467.43 177.46 471.50 177.44
  C 474.47 177.43 478.32 176.30 481.52 176.10
  Q 508.04 174.49 534.56 175.75
  Q 538.37 175.93 544.38 176.78
  C 548.76 177.40 553.60 177.75 557.51 178.31
  Q 621.52 187.49 675.51 217.72
  Q 694.31 228.24 716.55 244.46
  Q 725.16 250.74 732.20 256.87
  Q 750.92 273.17 768.65 293.09
  C 774.82 300.02 780.55 308.06 784.92 313.79
  Q 804.63 339.59 818.24 368.92
  Z"
/>
<path fill="#213a46" d="
  M 741.07 374.69
  Q 788.48 455.13 775.64 548.25
  Q 768.66 599.48 744.20 644.71
  C 729.75 671.05 712.63 693.29 692.32 714.34
  C 686.37 720.50 683.09 725.72 678.46 732.95
  C 668.46 748.59 649.63 762.23 630.97 766.43
  Q 624.66 767.85 611.91 767.85
  Q 509.08 767.89 406.25 768.01
  C 379.90 768.04 355.84 752.64 342.02 730.74
  C 337.94 724.27 334.33 718.33 328.83 712.66
  Q 317.15 700.61 306.64 687.48
  Q 285.55 660.36 270.98 629.27
  Q 269.66 626.47 267.91 622.18
  C 265.48 616.20 262.51 609.54 260.61 604.31
  Q 251.25 578.59 247.35 551.45
  Q 242.81 521.98 245.12 490.81
  Q 250.26 421.25 288.00 363.51
  C 313.94 325.00 350.42 291.95 392.48 271.71
  Q 427.47 254.88 465.55 247.15
  C 466.62 246.94 467.32 246.69 468.17 245.88
  C 477.70 236.75 485.85 228.90 499.26 225.82
  C 520.69 220.89 538.04 229.75 551.68 245.90
  A 1.62 1.58 -12.0 0 0 552.52 246.43
  C 561.14 248.59 571.01 250.38 578.44 252.43
  Q 683.67 281.57 741.07 374.69
  Z
  M 633.10 355.68
  A 0.43 0.43 0.0 0 1 632.41 355.86
  Q 583.27 311.36 533.98 267.49
  C 520.71 255.67 500.77 255.58 487.36 267.35
  Q 459.05 292.19 439.51 310.01
  Q 378.11 365.98 316.66 421.90
  Q 310.91 427.13 308.54 431.27
  C 302.65 441.60 308.97 455.65 320.30 458.94
  Q 332.22 462.41 341.40 453.90
  Q 421.32 379.81 501.82 306.31
  C 507.07 301.52 511.74 298.28 517.76 303.74
  Q 560.16 342.23 683.06 454.68
  Q 690.41 461.41 699.44 459.70
  C 716.54 456.48 722.17 436.87 709.23 425.28
  Q 694.05 411.69 679.08 398.50
  Q 677.91 397.47 677.80 395.92
  Q 677.54 392.31 677.54 388.25
  Q 677.54 364.48 677.47 340.70
  C 677.45 331.80 676.56 324.97 670.33 319.42
  C 655.82 306.47 633.22 315.85 633.41 335.24
  Q 633.50 344.76 633.32 354.24
  Q 633.30 355.10 633.10 355.68
  Z
  M 378.16 468.86
  Q 357.06 488.16 336.34 507.29
  Q 329.71 513.41 327.85 516.75
  C 322.08 527.11 326.04 542.33 337.84 546.50
  Q 351.38 551.28 360.99 540.00
  Q 364.11 536.34 377.70 524.10
  Q 378.07 527.01 377.96 529.73
  Q 377.78 534.22 377.78 534.27
  Q 377.69 611.88 377.81 689.50
  Q 377.84 710.49 392.17 722.91
  C 399.34 729.12 408.33 732.39 417.75 732.47
  Q 434.62 732.62 460.63 732.34
  C 468.60 732.26 475.67 730.96 480.46 725.22
  C 486.07 718.50 485.07 710.73 484.99 701.38
  Q 484.93 694.96 486.21 691.78
  C 489.66 683.27 496.60 681.96 505.65 681.92
  Q 513.30 681.89 520.95 681.95
  Q 525.55 681.99 528.28 683.31
  C 539.85 688.87 537.22 702.18 537.25 712.49
  C 537.29 723.98 546.35 732.30 557.49 732.44
  Q 567.30 732.56 590.99 732.39
  Q 607.61 732.27 610.96 731.71
  C 628.69 728.73 644.28 713.39 644.30 694.75
  Q 644.35 620.37 644.25 546.00
  Q 644.23 536.25 644.59 526.50
  Q 644.64 524.99 645.52 525.11
  Q 659.52 537.59 663.89 541.86
  C 679.55 557.13 703.94 540.72 696.61 520.22
  Q 694.67 514.80 690.46 511.03
  Q 666.76 489.85 643.22 468.21
  Q 639.94 464.93 627.57 453.68
  Q 597.97 426.78 532.69 366.18
  Q 525.72 359.71 521.88 357.99
  C 512.26 353.69 499.82 355.98 492.08 363.08
  Q 451.96 399.90 390.42 457.17
  Q 380.93 466.01 378.16 468.86
  Z"
/>
<path fill="#ffffff" d="
  M 633.10 355.68
  Q 633.30 355.10 633.32 354.24
  Q 633.50 344.76 633.41 335.24
  C 633.22 315.85 655.82 306.47 670.33 319.42
  C 676.56 324.97 677.45 331.80 677.47 340.70
  Q 677.54 364.48 677.54 388.25
  Q 677.54 392.31 677.80 395.92
  Q 677.91 397.47 679.08 398.50
  Q 694.05 411.69 709.23 425.28
  C 722.17 436.87 716.54 456.48 699.44 459.70
  Q 690.41 461.41 683.06 454.68
  Q 560.16 342.23 517.76 303.74
  C 511.74 298.28 507.07 301.52 501.82 306.31
  Q 421.32 379.81 341.40 453.90
  Q 332.22 462.41 320.30 458.94
  C 308.97 455.65 302.65 441.60 308.54 431.27
  Q 310.91 427.13 316.66 421.90
  Q 378.11 365.98 439.51 310.01
  Q 459.05 292.19 487.36 267.35
  C 500.77 255.58 520.71 255.67 533.98 267.49
  Q 583.27 311.36 632.41 355.86
  A 0.43 0.43 0.0 0 0 633.10 355.68
  Z"
/>
<path fill="#ff8600" d="
  M 643.22 468.21
  Q 643.83 470.00 644.34 471.72
  Q 644.85 473.42 644.89 475.34
  Q 645.42 498.67 644.90 522.00
  Q 644.88 523.09 645.52 525.11
  Q 644.64 524.99 644.59 526.50
  Q 644.23 536.25 644.25 546.00
  Q 644.35 620.37 644.30 694.75
  C 644.28 713.39 628.69 728.73 610.96 731.71
  Q 607.61 732.27 590.99 732.39
  Q 567.30 732.56 557.49 732.44
  C 546.35 732.30 537.29 723.98 537.25 712.49
  C 537.22 702.18 539.85 688.87 528.28 683.31
  Q 525.55 681.99 520.95 681.95
  Q 513.30 681.89 505.65 681.92
  C 496.60 681.96 489.66 683.27 486.21 691.78
  Q 484.93 694.96 484.99 701.38
  C 485.07 710.73 486.07 718.50 480.46 725.22
  C 475.67 730.96 468.60 732.26 460.63 732.34
  Q 434.62 732.62 417.75 732.47
  C 408.33 732.39 399.34 729.12 392.17 722.91
  Q 377.84 710.49 377.81 689.50
  Q 377.69 611.88 377.78 534.27
  Q 377.78 534.22 377.96 529.73
  Q 378.07 527.01 377.70 524.10
  Q 377.69 501.33 377.29 477.73
  Q 377.25 475.48 377.55 473.29
  Q 377.84 471.17 378.16 468.86
  Q 380.93 466.01 390.42 457.17
  Q 451.96 399.90 492.08 363.08
  C 499.82 355.98 512.26 353.69 521.88 357.99
  Q 525.72 359.71 532.69 366.18
  Q 597.97 426.78 627.57 453.68
  Q 639.94 464.93 643.22 468.21
  Z
  M 450.12 681.37
  C 451.28 665.18 465.81 650.05 480.93 645.69
  Q 486.05 644.21 496.70 644.16
  Q 506.85 644.12 517.00 644.11
  Q 533.32 644.09 536.96 644.74
  C 552.97 647.60 566.82 660.19 571.06 675.98
  C 572.52 681.40 572.62 688.27 572.77 694.30
  A 0.80 0.80 0.0 0 0 573.54 695.08
  Q 582.85 695.44 592.26 695.36
  Q 604.87 695.24 608.64 686.06
  Q 610.21 682.23 610.22 669.74
  Q 610.28 583.06 610.18 496.37
  C 610.16 485.64 605.08 480.72 597.64 473.87
  Q 561.61 440.71 525.71 407.42
  C 519.82 401.96 514.01 397.21 505.55 400.56
  Q 502.70 401.69 497.43 406.63
  Q 460.39 441.36 423.16 475.90
  Q 417.30 481.34 415.23 484.78
  C 412.20 489.84 412.48 495.44 412.48 503.17
  Q 412.53 590.21 412.55 677.25
  C 412.55 684.39 415.59 691.39 422.33 694.01
  Q 425.35 695.18 432.79 695.15
  Q 440.84 695.11 448.92 694.95
  Q 449.44 694.94 449.45 694.42
  Q 449.66 687.84 450.12 681.37
  Z"
/>
<path fill="#f47800" d="
  M 288.00 363.51
  Q 250.26 421.25 245.12 490.81
  Q 242.81 521.98 247.35 551.45
  L 246.92 555.00
  Q 246.91 555.13 246.77 555.13
  Q 246.63 555.13 246.50 555.11
  Q 245.70 554.97 246.23 555.86
  Q 248.29 559.34 245.81 562.32
  Q 245.46 562.75 245.22 562.24
  L 244.98 561.73
  A 0.11 0.10 -34.3 0 0 244.81 561.70
  Q 244.70 561.80 244.62 561.89
  Q 244.24 562.29 244.11 561.76
  L 243.65 559.94
  Q 243.55 559.52 243.13 559.39
  L 238.01 557.78
  Q 237.53 557.63 237.07 557.83
  Q 236.22 558.19 235.81 557.43
  A 1.03 1.00 -6.7 0 0 235.17 556.94
  Q 233.20 556.42 231.71 554.99
  A 0.91 0.89 69.8 0 0 231.16 554.73
  Q 229.21 554.52 227.75 553.33
  A 1.07 1.05 58.3 0 0 226.85 553.11
  Q 226.03 553.29 225.83 552.49
  A 0.66 0.63 3.8 0 0 225.42 552.04
  L 222.59 551.02
  A 0.71 0.70 34.2 0 0 221.89 551.15
  Q 221.09 551.85 219.92 551.64
  Q 219.36 551.54 218.96 551.14
  Q 218.34 550.52 217.40 550.46
  Q 216.99 550.43 216.82 550.06
  Q 216.38 549.17 215.42 548.80
  Q 215.01 548.65 214.61 548.83
  Q 213.08 549.50 211.49 548.92
  Q 209.27 548.10 207.12 548.41
  Q 205.61 548.62 204.30 548.71
  Q 202.83 548.82 201.46 549.40
  Q 201.37 549.44 201.38 549.33
  Q 201.39 549.12 201.09 549.01
  Q 200.80 548.90 200.51 549.00
  L 195.51 550.80
  Q 195.12 550.94 194.74 550.77
  Q 194.09 550.48 193.30 550.55
  Q 192.70 550.60 192.19 550.91
  Q 191.56 551.29 190.80 550.62
  A 0.74 0.73 47.4 0 0 189.87 550.58
  Q 186.98 552.73 183.44 552.00
  Q 183.02 551.92 182.66 552.15
  L 177.67 555.33
  A 0.69 0.68 -34.8 0 1 176.75 555.17
  Q 175.71 553.81 176.20 551.75
  Q 176.21 551.71 176.24 551.74
  L 176.47 551.97
  Q 176.53 552.02 176.60 551.98
  Q 177.17 551.64 176.96 551.31
  A 0.78 0.61 29.9 0 0 175.61 551.50
  Q 175.64 551.68 175.62 551.86
  Q 175.58 552.12 175.43 551.90
  Q 175.23 551.59 175.28 551.24
  Q 175.84 547.42 174.49 544.19
  A 1.63 1.60 40.7 0 1 174.41 543.23
  Q 174.90 541.09 173.84 539.87
  C 173.65 536.58 173.10 533.16 172.98 530.03
  Q 171.85 499.65 174.87 469.44
  Q 175.84 459.74 177.85 449.68
  Q 182.29 427.43 187.78 409.54
  Q 193.96 389.38 205.10 366.23
  Q 205.11 368.16 204.03 370.03
  Q 203.75 370.51 204.22 370.80
  L 204.53 370.99
  Q 204.81 371.16 204.48 371.15
  L 204.03 371.15
  Q 203.77 371.14 203.69 371.39
  L 203.50 371.98
  A 0.13 0.12 35.8 0 1 203.28 372.01
  Q 203.20 371.89 203.11 371.77
  A 0.04 0.04 0.0 0 0 203.04 371.80
  Q 203.44 373.93 205.20 375.15
  Q 205.75 375.53 206.35 375.24
  L 211.20 372.89
  Q 211.63 372.68 211.91 372.30
  Q 213.21 370.58 215.36 370.67
  Q 215.84 370.69 215.98 370.23
  L 216.09 369.90
  Q 216.29 369.28 216.93 369.43
  L 217.78 369.64
  Q 218.13 369.73 218.44 369.56
  Q 221.76 367.82 225.45 366.95
  Q 225.93 366.84 226.42 366.88
  Q 227.31 366.97 227.88 366.31
  Q 228.23 365.91 228.77 365.89
  L 235.25 365.66
  Q 235.66 365.64 236.11 365.35
  Q 236.21 365.29 236.31 365.18
  Q 236.38 365.09 236.46 365.18
  Q 237.56 366.55 239.13 365.89
  Q 239.74 365.63 239.99 364.71
  Q 240.16 364.06 240.71 364.44
  Q 241.74 365.13 242.82 364.68
  Q 243.28 364.49 243.78 364.49
  Q 245.59 364.50 247.99 363.48
  Q 251.48 361.99 257.75 362.00
  Q 258.31 362.01 259.06 362.63
  Q 259.45 362.96 259.96 362.97
  L 266.99 363.16
  Q 267.49 363.17 267.93 363.37
  Q 270.39 364.46 272.03 362.01
  A 0.19 0.19 0.0 0 1 272.38 362.11
  L 272.39 362.50
  Q 272.40 362.85 272.68 362.64
  Q 272.92 362.46 273.14 362.25
  Q 273.49 361.92 273.92 362.14
  L 275.31 362.85
  Q 275.74 363.07 276.21 363.00
  Q 277.59 362.81 277.39 361.60
  Q 277.37 361.47 277.33 361.59
  Q 277.24 361.90 277.39 362.20
  Q 277.59 362.59 278.00 362.42
  Q 279.68 361.71 281.29 362.44
  Q 281.64 362.60 281.91 362.33
  L 282.15 362.09
  Q 282.43 361.81 282.65 362.15
  Q 284.07 364.30 283.87 366.76
  A 0.45 0.44 70.4 0 0 284.62 367.12
  L 284.87 366.87
  Q 285.11 366.64 284.95 366.34
  Q 284.26 364.98 285.39 363.82
  Q 285.58 363.62 285.80 363.78
  Q 285.92 363.86 286.06 363.87
  A 0.05 0.05 0.0 0 1 286.07 363.97
  Q 285.72 364.12 285.75 364.48
  Q 285.77 364.70 285.97 364.61
  Q 287.54 363.88 286.93 362.31
  A 0.13 0.13 0.0 0 1 287.09 362.14
  L 287.53 362.28
  Q 287.67 362.32 287.64 362.46
  Q 287.52 363.26 288.00 363.51
  Z"
/>
<path fill="#f47800" d="
  M 818.24 368.92
  Q 819.88 371.82 821.12 374.60
  Q 840.44 417.88 847.50 464.62
  Q 848.92 473.98 849.24 484.50
  Q 849.72 500.34 849.43 516.19
  L 848.90 517.39
  Q 848.80 517.60 848.84 517.83
  Q 848.95 518.51 848.89 519.34
  A 0.79 0.78 41.6 0 1 847.34 519.43
  Q 846.96 517.55 846.02 515.65
  Q 845.41 514.42 844.03 514.39
  Q 843.04 514.36 842.72 512.90
  Q 842.59 512.31 841.99 512.25
  L 839.81 512.06
  A 0.24 0.22 15.9 0 0 839.59 512.17
  Q 839.28 512.69 838.92 512.44
  Q 838.38 512.07 837.95 512.56
  Q 836.68 513.99 835.25 512.57
  Q 835.16 512.48 835.20 512.38
  Q 835.22 512.32 835.24 512.27
  Q 835.32 512.12 835.25 512.12
  L 832.68 512.12
  A 0.75 0.74 87.5 0 1 831.94 511.44
  L 831.79 509.54
  Q 831.73 508.73 830.93 508.91
  L 826.38 509.91
  Q 825.82 510.04 825.61 509.50
  Q 825.50 509.24 825.07 509.25
  Q 824.92 509.26 824.89 509.41
  Q 824.82 509.84 824.53 509.82
  A 0.93 0.49 11.6 0 1 823.54 509.00
  Q 823.65 508.86 823.56 508.62
  Q 823.47 508.36 823.42 508.63
  Q 823.35 508.99 822.93 509.06
  Q 822.55 509.13 822.45 509.15
  Q 820.43 509.69 819.02 506.87
  Q 818.71 506.26 818.20 506.70
  Q 817.57 507.24 817.04 506.52
  A 0.53 0.53 0.0 0 0 816.15 506.58
  Q 815.58 507.64 814.50 507.59
  A 1.40 1.40 0.0 0 1 813.22 505.85
  Q 813.49 504.75 812.69 503.76
  Q 812.40 503.39 811.93 503.37
  Q 808.36 503.23 804.89 504.04
  A 0.32 0.32 0.0 0 1 804.53 503.88
  Q 804.25 503.39 804.85 503.68
  Q 805.23 503.86 804.91 504.13
  C 802.70 506.01 801.19 503.57 798.96 504.35
  Q 798.63 504.47 798.32 504.30
  L 797.51 503.85
  Q 797.22 503.68 797.15 504.02
  Q 797.08 504.34 796.63 504.34
  Q 795.40 504.33 794.21 504.50
  Q 792.82 504.68 791.81 504.52
  Q 787.92 503.88 784.13 502.76
  Q 784.00 502.72 783.91 502.64
  Q 783.81 502.54 783.74 502.44
  Q 783.58 502.22 783.47 502.48
  Q 781.25 507.75 780.70 512.76
  Q 780.10 518.17 779.85 526.93
  Q 779.84 527.43 779.56 527.85
  Q 779.18 528.41 779.15 529.25
  Q 778.83 537.64 776.94 546.76
  Q 776.68 548.02 775.64 548.25
  Q 788.48 455.13 741.07 374.69
  L 741.54 374.52
  Q 741.98 374.36 742.20 374.77
  Q 742.39 375.11 742.61 375.41
  Q 743.04 375.96 742.82 375.30
  Q 742.71 374.97 742.71 374.64
  A 0.11 0.11 0.0 0 1 742.93 374.61
  L 743.46 376.90
  A 0.22 0.21 68.7 0 0 743.77 377.04
  Q 744.12 376.86 743.53 376.60
  Q 742.47 376.15 743.63 376.09
  Q 745.80 375.98 746.40 377.47
  Q 746.54 377.84 746.91 377.67
  Q 747.07 377.60 747.24 377.79
  Q 747.33 377.89 747.33 378.02
  Q 747.33 378.18 747.33 378.34
  Q 747.33 378.47 747.42 378.38
  L 747.65 378.15
  Q 747.72 378.08 747.69 377.98
  Q 747.37 376.85 748.35 376.34
  Q 748.77 376.12 748.92 375.67
  Q 749.53 373.82 750.58 372.20
  Q 751.18 371.26 752.26 371.36
  Q 752.64 371.39 752.96 371.19
  Q 757.99 368.04 763.48 370.16
  Q 763.51 370.18 763.54 370.16
  L 763.78 370.03
  Q 764.05 369.88 763.74 369.85
  L 763.27 369.80
  A 0.14 0.14 0.0 0 1 763.23 369.53
  Q 764.07 369.20 764.85 369.63
  A 1.15 1.14 50.0 0 0 765.72 369.71
  L 771.73 367.83
  A 1.42 1.42 0.0 0 0 772.66 366.07
  Q 772.36 365.11 773.42 364.79
  Q 773.62 364.73 773.48 364.58
  Q 773.36 364.46 773.26 364.42
  Q 773.21 364.41 773.24 364.36
  Q 774.85 362.28 777.13 363.92
  Q 777.53 364.20 778.00 364.09
  L 783.17 362.85
  A 0.89 0.86 -41.3 0 1 783.62 362.87
  C 785.98 363.66 788.36 363.37 790.48 363.95
  Q 797.58 365.88 804.81 367.31
  Q 806.16 367.58 808.72 368.38
  Q 810.65 368.98 812.66 369.27
  Q 814.93 369.60 816.02 370.58
  Q 817.41 371.83 818.29 373.61
  A 0.58 0.58 0.0 0 0 819.37 373.50
  L 819.49 373.04
  Q 819.60 372.62 819.19 372.76
  Q 819.01 372.82 818.83 372.83
  Q 818.50 372.85 818.48 372.52
  L 818.24 368.92
  Z"
/>
<path fill="#213a46" d="
  M 450.12 681.37
  Q 449.66 687.84 449.45 694.42
  Q 449.44 694.94 448.92 694.95
  Q 440.84 695.11 432.79 695.15
  Q 425.35 695.18 422.33 694.01
  C 415.59 691.39 412.55 684.39 412.55 677.25
  Q 412.53 590.21 412.48 503.17
  C 412.48 495.44 412.20 489.84 415.23 484.78
  Q 417.30 481.34 423.16 475.90
  Q 460.39 441.36 497.43 406.63
  Q 502.70 401.69 505.55 400.56
  C 514.01 397.21 519.82 401.96 525.71 407.42
  Q 561.61 440.71 597.64 473.87
  C 605.08 480.72 610.16 485.64 610.18 496.37
  Q 610.28 583.06 610.22 669.74
  Q 610.21 682.23 608.64 686.06
  Q 604.87 695.24 592.26 695.36
  Q 582.85 695.44 573.54 695.08
  A 0.80 0.80 0.0 0 1 572.77 694.30
  C 572.62 688.27 572.52 681.40 571.06 675.98
  C 566.82 660.19 552.97 647.60 536.96 644.74
  Q 533.32 644.09 517.00 644.11
  Q 506.85 644.12 496.70 644.16
  Q 486.05 644.21 480.93 645.69
  C 465.81 650.05 451.28 665.18 450.12 681.37
  Z
  M 502.3023 517.3220
  A 24.15 23.84 30.9 0 0 493.8228 484.4637
  A 24.15 23.84 30.9 0 0 460.8577 492.5180
  A 24.15 23.84 30.9 0 0 469.3372 525.3763
  A 24.15 23.84 30.9 0 0 502.3023 517.3220
  Z
  M 565.69 504.88
  A 23.97 23.97 0.0 0 0 541.72 480.91
  A 23.97 23.97 0.0 0 0 517.75 504.88
  A 23.97 23.97 0.0 0 0 541.72 528.85
  A 23.97 23.97 0.0 0 0 565.69 504.88
  Z
  M 505.50 565.45
  A 24.00 24.00 0.0 0 0 481.50 541.45
  A 24.00 24.00 0.0 0 0 457.50 565.45
  A 24.00 24.00 0.0 0 0 481.50 589.45
  A 24.00 24.00 0.0 0 0 505.50 565.45
  Z
  M 560.1710 580.8725
  A 24.09 23.97 39.9 0 0 557.0655 547.0311
  A 24.09 23.97 39.9 0 0 523.2090 549.9675
  A 24.09 23.97 39.9 0 0 526.3145 583.8089
  A 24.09 23.97 39.9 0 0 560.1710 580.8725
  Z"
/>
<path fill="#ffffff" d="
  M 643.22 468.21
  Q 666.76 489.85 690.46 511.03
  Q 694.67 514.80 696.61 520.22
  C 703.94 540.72 679.55 557.13 663.89 541.86
  Q 659.52 537.59 645.52 525.11
  Q 644.88 523.09 644.90 522.00
  Q 645.42 498.67 644.89 475.34
  Q 644.85 473.42 644.34 471.72
  Q 643.83 470.00 643.22 468.21
  Z"
/>
<path fill="#ffffff" d="
  M 378.16 468.86
  Q 377.84 471.17 377.55 473.29
  Q 377.25 475.48 377.29 477.73
  Q 377.69 501.33 377.70 524.10
  Q 364.11 536.34 360.99 540.00
  Q 351.38 551.28 337.84 546.50
  C 326.04 542.33 322.08 527.11 327.85 516.75
  Q 329.71 513.41 336.34 507.29
  Q 357.06 488.16 378.16 468.86
  Z"
/>
<ellipse fill="#ffffff" cx="0.00" cy="0.00" transform="translate(481.58,504.92) rotate(30.9)" rx="24.15" ry="23.84"/>
<circle fill="#ffffff" cx="541.72" cy="504.88" r="23.97"/>
<path fill="#ec6d00" d="
  M 849.43 516.19
  Q 849.99 536.95 848.02 549.50
  Q 845.83 563.39 843.37 577.24
  Q 839.73 597.77 831.24 623.73
  Q 824.72 643.67 816.50 659.34
  C 813.36 665.33 810.00 672.73 806.09 679.25
  L 802.37 674.56
  Q 802.08 674.19 802.44 673.88
  Q 804.28 672.32 803.20 670.30
  Q 802.92 669.78 803.20 669.25
  Q 804.31 667.15 803.39 664.87
  Q 803.24 664.49 802.91 664.25
  Q 802.23 663.76 801.66 663.18
  Q 800.82 662.34 800.42 662.13
  Q 797.82 660.77 795.00 659.94
  Q 794.58 659.82 794.39 659.42
  Q 793.98 658.53 793.14 658.07
  Q 792.73 657.85 792.54 657.42
  Q 791.61 655.29 789.26 655.22
  Q 788.82 655.20 788.48 654.91
  L 786.01 652.75
  Q 785.71 652.49 785.33 652.36
  Q 782.26 651.34 779.06 651.45
  Q 778.52 651.47 778.04 651.23
  L 776.48 650.46
  Q 776.37 650.41 776.46 650.32
  Q 776.55 650.22 776.58 650.08
  Q 776.70 649.53 776.16 649.68
  Q 773.47 650.42 772.79 647.90
  A 0.97 0.96 82.8 0 0 771.87 647.18
  L 768.65 647.15
  Q 768.15 647.14 767.88 646.72
  Q 767.27 645.78 766.16 646.19
  A 0.68 0.67 64.5 0 1 765.33 645.89
  C 764.82 645.00 764.42 644.69 763.36 644.60
  C 760.48 644.37 758.24 644.78 756.13 642.43
  Q 755.83 642.09 755.39 642.09
  L 748.64 642.01
  Q 748.34 642.00 748.17 642.25
  Q 747.46 643.24 747.21 644.28
  Q 747.17 644.42 747.03 644.37
  Q 745.67 643.86 744.20 644.71
  Q 768.66 599.48 775.64 548.25
  Q 776.68 548.02 776.94 546.76
  Q 778.83 537.64 779.15 529.25
  Q 779.18 528.41 779.56 527.85
  Q 779.84 527.43 779.85 526.93
  Q 780.10 518.17 780.70 512.76
  Q 781.25 507.75 783.47 502.48
  Q 783.58 502.22 783.74 502.44
  Q 783.81 502.54 783.91 502.64
  Q 784.00 502.72 784.13 502.76
  Q 787.92 503.88 791.81 504.52
  Q 792.82 504.68 794.21 504.50
  Q 795.40 504.33 796.63 504.34
  Q 797.08 504.34 797.15 504.02
  Q 797.22 503.68 797.51 503.85
  L 798.32 504.30
  Q 798.63 504.47 798.96 504.35
  C 801.19 503.57 802.70 506.01 804.91 504.13
  Q 805.23 503.86 804.85 503.68
  Q 804.25 503.39 804.53 503.88
  A 0.32 0.32 0.0 0 0 804.89 504.04
  Q 808.36 503.23 811.93 503.37
  Q 812.40 503.39 812.69 503.76
  Q 813.49 504.75 813.22 505.85
  A 1.40 1.40 0.0 0 0 814.50 507.59
  Q 815.58 507.64 816.15 506.58
  A 0.53 0.53 0.0 0 1 817.04 506.52
  Q 817.57 507.24 818.20 506.70
  Q 818.71 506.26 819.02 506.87
  Q 820.43 509.69 822.45 509.15
  Q 822.55 509.13 822.93 509.06
  Q 823.35 508.99 823.42 508.63
  Q 823.47 508.36 823.56 508.62
  Q 823.65 508.86 823.54 509.00
  A 0.93 0.49 11.6 0 0 824.53 509.82
  Q 824.82 509.84 824.89 509.41
  Q 824.92 509.26 825.07 509.25
  Q 825.50 509.24 825.61 509.50
  Q 825.82 510.04 826.38 509.91
  L 830.93 508.91
  Q 831.73 508.73 831.79 509.54
  L 831.94 511.44
  A 0.75 0.74 87.5 0 0 832.68 512.12
  L 835.25 512.12
  Q 835.32 512.12 835.24 512.27
  Q 835.22 512.32 835.20 512.38
  Q 835.16 512.48 835.25 512.57
  Q 836.68 513.99 837.95 512.56
  Q 838.38 512.07 838.92 512.44
  Q 839.28 512.69 839.59 512.17
  A 0.24 0.22 15.9 0 1 839.81 512.06
  L 841.99 512.25
  Q 842.59 512.31 842.72 512.90
  Q 843.04 514.36 844.03 514.39
  Q 845.41 514.42 846.02 515.65
  Q 846.96 517.55 847.34 519.43
  A 0.79 0.78 41.6 0 0 848.89 519.34
  Q 848.95 518.51 848.84 517.83
  Q 848.80 517.60 848.90 517.39
  L 849.43 516.19
  Z"
/>
<path fill="#ec6d00" d="
  M 173.84 539.87
  Q 174.90 541.09 174.41 543.23
  A 1.63 1.60 40.7 0 0 174.49 544.19
  Q 175.84 547.42 175.28 551.24
  Q 175.23 551.59 175.43 551.90
  Q 175.58 552.12 175.62 551.86
  Q 175.64 551.68 175.61 551.50
  A 0.78 0.61 29.9 0 1 176.96 551.31
  Q 177.17 551.64 176.60 551.98
  Q 176.53 552.02 176.47 551.97
  L 176.24 551.74
  Q 176.21 551.71 176.20 551.75
  Q 175.71 553.81 176.75 555.17
  A 0.69 0.68 -34.8 0 0 177.67 555.33
  L 182.66 552.15
  Q 183.02 551.92 183.44 552.00
  Q 186.98 552.73 189.87 550.58
  A 0.74 0.73 47.4 0 1 190.80 550.62
  Q 191.56 551.29 192.19 550.91
  Q 192.70 550.60 193.30 550.55
  Q 194.09 550.48 194.74 550.77
  Q 195.12 550.94 195.51 550.80
  L 200.51 549.00
  Q 200.80 548.90 201.09 549.01
  Q 201.39 549.12 201.38 549.33
  Q 201.37 549.44 201.46 549.40
  Q 202.83 548.82 204.30 548.71
  Q 205.61 548.62 207.12 548.41
  Q 209.27 548.10 211.49 548.92
  Q 213.08 549.50 214.61 548.83
  Q 215.01 548.65 215.42 548.80
  Q 216.38 549.17 216.82 550.06
  Q 216.99 550.43 217.40 550.46
  Q 218.34 550.52 218.96 551.14
  Q 219.36 551.54 219.92 551.64
  Q 221.09 551.85 221.89 551.15
  A 0.71 0.70 34.2 0 1 222.59 551.02
  L 225.42 552.04
  A 0.66 0.63 3.8 0 1 225.83 552.49
  Q 226.03 553.29 226.85 553.11
  A 1.07 1.05 58.3 0 1 227.75 553.33
  Q 229.21 554.52 231.16 554.73
  A 0.91 0.89 69.8 0 1 231.71 554.99
  Q 233.20 556.42 235.17 556.94
  A 1.03 1.00 -6.7 0 1 235.81 557.43
  Q 236.22 558.19 237.07 557.83
  Q 237.53 557.63 238.01 557.78
  L 243.13 559.39
  Q 243.55 559.52 243.65 559.94
  L 244.11 561.76
  Q 244.24 562.29 244.62 561.89
  Q 244.70 561.80 244.81 561.70
  A 0.11 0.10 -34.3 0 1 244.98 561.73
  L 245.22 562.24
  Q 245.46 562.75 245.81 562.32
  Q 248.29 559.34 246.23 555.86
  Q 245.70 554.97 246.50 555.11
  Q 246.63 555.13 246.77 555.13
  Q 246.91 555.13 246.92 555.00
  L 247.35 551.45
  Q 251.25 578.59 260.61 604.31
  C 262.51 609.54 265.48 616.20 267.91 622.18
  Q 269.66 626.47 270.98 629.27
  Q 285.55 660.36 306.64 687.48
  Q 307.36 689.21 305.57 686.85
  A 0.35 0.35 0.0 0 0 304.99 687.25
  L 308.30 692.65
  A 0.13 0.13 0.0 0 1 308.15 692.84
  L 307.20 692.51
  Q 306.67 692.33 306.34 692.77
  Q 304.61 695.09 301.75 695.32
  Q 301.30 695.35 301.13 695.78
  Q 301.02 696.05 300.81 696.20
  Q 300.54 696.38 299.97 696.24
  Q 297.17 695.52 294.33 695.63
  Q 293.89 695.64 293.55 695.36
  Q 290.22 692.59 286.12 691.13
  A 1.10 0.05 -5.9 0 0 285.13 691.19
  Q 283.80 691.32 282.93 690.23
  Q 282.61 689.83 282.11 689.82
  Q 280.03 689.74 278.68 688.28
  Q 278.36 687.94 277.91 687.80
  Q 276.88 687.50 276.12 686.77
  Q 275.84 686.50 275.71 686.13
  Q 275.37 685.20 274.38 684.80
  Q 273.99 684.64 273.77 684.27
  L 270.69 679.15
  A 0.24 0.24 0.0 0 0 270.26 679.34
  L 270.36 679.68
  Q 270.62 680.52 269.80 680.20
  Q 268.24 679.60 267.21 678.33
  Q 266.80 677.83 266.17 677.73
  Q 264.85 677.53 264.26 676.30
  Q 263.99 675.73 263.36 675.74
  L 257.26 675.84
  A 1.41 1.40 -0.6 0 0 255.88 677.24
  L 255.88 681.25
  Q 255.88 681.66 256.10 682.00
  Q 256.61 682.77 257.50 683.40
  A 0.68 0.68 0.0 0 1 257.24 684.63
  Q 255.33 684.98 254.62 686.84
  Q 254.43 687.32 253.93 687.41
  Q 253.51 687.49 253.11 687.53
  Q 252.57 687.60 252.17 687.98
  Q 250.62 689.46 248.63 688.36
  Q 248.16 688.10 247.84 688.16
  Q 247.47 688.22 247.09 688.47
  Q 246.74 688.71 246.35 688.53
  Q 245.59 688.17 245.34 688.73
  Q 245.12 689.24 244.61 689.03
  Q 243.91 688.74 243.29 688.91
  C 241.46 689.42 240.28 689.04 238.53 688.10
  Q 238.06 687.85 237.66 688.18
  Q 237.48 688.33 237.54 688.10
  Q 237.58 687.93 237.68 687.79
  Q 237.91 687.50 237.58 687.32
  Q 235.68 686.24 233.72 686.96
  Q 233.27 687.12 232.98 687.50
  Q 232.43 688.19 231.54 688.14
  Q 231.13 688.12 230.79 687.90
  Q 230.24 687.53 229.74 688.13
  Q 228.73 689.34 227.30 692.99
  Q 227.24 693.16 227.05 693.06
  Q 226.74 692.89 226.63 693.22
  Q 226.51 693.63 227.02 693.80
  Q 227.38 693.92 227.58 693.86
  Q 227.78 693.80 227.84 694.00
  Q 228.29 695.46 226.81 696.18
  Q 217.81 682.11 215.12 677.65
  C 213.60 675.13 212.54 671.85 211.05 669.19
  Q 201.81 652.69 196.03 637.49
  Q 187.43 614.85 183.31 597.48
  Q 177.76 574.03 176.29 565.23
  Q 174.83 556.48 173.84 539.87
  Z"
/>
<circle fill="#ffffff" cx="481.50" cy="565.45" r="24.00"/>
<ellipse fill="#ffffff" cx="0.00" cy="0.00" transform="translate(541.69,565.42) rotate(39.9)" rx="24.09" ry="23.97"/>
<path fill="#e66100" d="
  M 806.09 679.25
  Q 798.08 693.59 788.09 707.33
  Q 785.35 711.10 779.66 718.04
  C 775.83 722.72 771.85 727.97 768.24 732.15
  Q 752.24 750.64 735.32 764.56
  Q 728.61 770.09 724.33 773.66
  C 717.27 779.57 710.03 784.20 702.58 789.27
  Q 647.87 826.52 582.94 839.81
  Q 576.44 841.14 569.91 842.43
  Q 562.79 843.84 556.80 844.56
  Q 497.41 851.70 438.90 839.94
  Q 430.04 838.16 419.51 835.13
  Q 400.89 829.77 390.01 825.76
  Q 380.36 822.20 363.00 814.23
  Q 358.21 812.04 351.23 808.19
  C 346.06 805.34 340.40 802.65 335.67 799.82
  C 315.43 787.72 295.99 773.74 278.87 757.49
  Q 260.98 740.49 255.84 734.40
  Q 245.52 722.18 235.77 709.49
  Q 230.94 703.19 226.81 696.18
  Q 228.29 695.46 227.84 694.00
  Q 227.78 693.80 227.58 693.86
  Q 227.38 693.92 227.02 693.80
  Q 226.51 693.63 226.63 693.22
  Q 226.74 692.89 227.05 693.06
  Q 227.24 693.16 227.30 692.99
  Q 228.73 689.34 229.74 688.13
  Q 230.24 687.53 230.79 687.90
  Q 231.13 688.12 231.54 688.14
  Q 232.43 688.19 232.98 687.50
  Q 233.27 687.12 233.72 686.96
  Q 235.68 686.24 237.58 687.32
  Q 237.91 687.50 237.68 687.79
  Q 237.58 687.93 237.54 688.10
  Q 237.48 688.33 237.66 688.18
  Q 238.06 687.85 238.53 688.10
  C 240.28 689.04 241.46 689.42 243.29 688.91
  Q 243.91 688.74 244.61 689.03
  Q 245.12 689.24 245.34 688.73
  Q 245.59 688.17 246.35 688.53
  Q 246.74 688.71 247.09 688.47
  Q 247.47 688.22 247.84 688.16
  Q 248.16 688.10 248.63 688.36
  Q 250.62 689.46 252.17 687.98
  Q 252.57 687.60 253.11 687.53
  Q 253.51 687.49 253.93 687.41
  Q 254.43 687.32 254.62 686.84
  Q 255.33 684.98 257.24 684.63
  A 0.68 0.68 0.0 0 0 257.50 683.40
  Q 256.61 682.77 256.10 682.00
  Q 255.88 681.66 255.88 681.25
  L 255.88 677.24
  A 1.41 1.40 -0.6 0 1 257.26 675.84
  L 263.36 675.74
  Q 263.99 675.73 264.26 676.30
  Q 264.85 677.53 266.17 677.73
  Q 266.80 677.83 267.21 678.33
  Q 268.24 679.60 269.80 680.20
  Q 270.62 680.52 270.36 679.68
  L 270.26 679.34
  A 0.24 0.24 0.0 0 1 270.69 679.15
  L 273.77 684.27
  Q 273.99 684.64 274.38 684.80
  Q 275.37 685.20 275.71 686.13
  Q 275.84 686.50 276.12 686.77
  Q 276.88 687.50 277.91 687.80
  Q 278.36 687.94 278.68 688.28
  Q 280.03 689.74 282.11 689.82
  Q 282.61 689.83 282.93 690.23
  Q 283.80 691.32 285.13 691.19
  A 1.10 0.05 -5.9 0 1 286.12 691.13
  Q 290.22 692.59 293.55 695.36
  Q 293.89 695.64 294.33 695.63
  Q 297.17 695.52 299.97 696.24
  Q 300.54 696.38 300.81 696.20
  Q 301.02 696.05 301.13 695.78
  Q 301.30 695.35 301.75 695.32
  Q 304.61 695.09 306.34 692.77
  Q 306.67 692.33 307.20 692.51
  L 308.15 692.84
  A 0.13 0.13 0.0 0 0 308.30 692.65
  L 304.99 687.25
  A 0.35 0.35 0.0 0 1 305.57 686.85
  Q 307.36 689.21 306.64 687.48
  Q 317.15 700.61 328.83 712.66
  C 334.33 718.33 337.94 724.27 342.02 730.74
  C 355.84 752.64 379.90 768.04 406.25 768.01
  Q 509.08 767.89 611.91 767.85
  Q 624.66 767.85 630.97 766.43
  C 649.63 762.23 668.46 748.59 678.46 732.95
  C 683.09 725.72 686.37 720.50 692.32 714.34
  C 712.63 693.29 729.75 671.05 744.20 644.71
  Q 745.67 643.86 747.03 644.37
  Q 747.17 644.42 747.21 644.28
  Q 747.46 643.24 748.17 642.25
  Q 748.34 642.00 748.64 642.01
  L 755.39 642.09
  Q 755.83 642.09 756.13 642.43
  C 758.24 644.78 760.48 644.37 763.36 644.60
  C 764.42 644.69 764.82 645.00 765.33 645.89
  A 0.68 0.67 64.5 0 0 766.16 646.19
  Q 767.27 645.78 767.88 646.72
  Q 768.15 647.14 768.65 647.15
  L 771.87 647.18
  A 0.97 0.96 82.8 0 1 772.79 647.90
  Q 773.47 650.42 776.16 649.68
  Q 776.70 649.53 776.58 650.08
  Q 776.55 650.22 776.46 650.32
  Q 776.37 650.41 776.48 650.46
  L 778.04 651.23
  Q 778.52 651.47 779.06 651.45
  Q 782.26 651.34 785.33 652.36
  Q 785.71 652.49 786.01 652.75
  L 788.48 654.91
  Q 788.82 655.20 789.26 655.22
  Q 791.61 655.29 792.54 657.42
  Q 792.73 657.85 793.14 658.07
  Q 793.98 658.53 794.39 659.42
  Q 794.58 659.82 795.00 659.94
  Q 797.82 660.77 800.42 662.13
  Q 800.82 662.34 801.66 663.18
  Q 802.23 663.76 802.91 664.25
  Q 803.24 664.49 803.39 664.87
  Q 804.31 667.15 803.20 669.25
  Q 802.92 669.78 803.20 670.30
  Q 804.28 672.32 802.44 673.88
  Q 802.08 674.19 802.37 674.56
  L 806.09 679.25
  Z"
/>
</svg>
