<?xml version="1.0" encoding="utf-8"?>
<!-- Generator: Adobe Illustrator 22.1.0, SVG Export Plug-In . SVG Version: 6.00 Build 0)  -->
<svg version="1.1" id="Layer_1" xmlns="http://www.w3.org/2000/svg" xmlns:xlink="http://www.w3.org/1999/xlink" x="0px" y="0px"
	 viewBox="0 0 1024 1024" style="enable-background:new 0 0 1024 1024;" xml:space="preserve">
<style type="text/css">
	.st0{fill:none;stroke:#FA7F00;stroke-width:2;}
	.st1{fill:none;stroke:#906023;stroke-width:2;}
	.st2{fill:none;stroke:#F07300;stroke-width:2;}
	.st3{fill:none;stroke:#8B5923;stroke-width:2;}
	.st4{fill:none;stroke:#875423;stroke-width:2;}
	.st5{fill:none;stroke:#844E23;stroke-width:2;}
	.st6{fill:none;stroke:#E96700;stroke-width:2;}
	.st7{fill:none;stroke:#909DA3;stroke-width:2;}
	.st8{fill:none;stroke:#FFC380;stroke-width:2;}
	.st9{fill:#F27005;}
	.st10{fill:#212332;}
	.st11{fill:#FFFFFF;}
	.st12{fill:#2A2D3E;}
</style>
<g>
	<path vector-effect="non-scaling-stroke" class="st0" d="M818.2,368.9l0.2,3.6c0,0.2,0.1,0.3,0.4,0.3c0.1,0,0.2,0,0.4-0.1
		c0.3-0.1,0.4,0,0.3,0.3l-0.1,0.5c-0.1,0.3-0.4,0.5-0.7,0.4c-0.2,0-0.3-0.2-0.4-0.3c-0.6-1.2-1.3-2.2-2.3-3
		c-0.7-0.7-1.8-1.1-3.4-1.3c-1.3-0.2-2.7-0.5-3.9-0.9c-1.7-0.5-3-0.9-3.9-1.1c-4.8-1-9.6-2.1-14.3-3.4c-2.1-0.6-4.5-0.3-6.9-1.1
		c-0.1,0-0.3-0.1-0.5,0l-5.2,1.2c-0.3,0.1-0.6,0-0.9-0.2c-1.5-1.1-2.8-0.9-3.9,0.4c0,0,0,0.1,0,0.1c0.1,0,0.1,0.1,0.2,0.2
		c0.1,0.1,0.1,0.2-0.1,0.2c-0.7,0.2-1,0.6-0.8,1.3c0.2,0.7-0.2,1.5-0.9,1.8l-6,1.9c-0.3,0.1-0.6,0.1-0.9-0.1
		c-0.5-0.3-1.1-0.3-1.6-0.1c-0.1,0-0.1,0.1-0.1,0.2c0,0.1,0.1,0.1,0.1,0.1l0.5,0.1c0.2,0,0.2,0.1,0,0.2l-0.2,0.1c0,0,0,0-0.1,0
		c-3.7-1.4-7.2-1.1-10.5,1c-0.2,0.1-0.4,0.2-0.7,0.2c-0.7-0.1-1.3,0.2-1.7,0.8c-0.7,1.1-1.3,2.2-1.7,3.5c-0.1,0.3-0.3,0.5-0.6,0.7
		c-0.7,0.3-0.9,0.9-0.7,1.6c0,0.1,0,0.1,0,0.2l-0.2,0.2c-0.1,0.1-0.1,0-0.1,0c0-0.1,0-0.2,0-0.3c0-0.1,0-0.2-0.1-0.2
		c-0.1-0.1-0.2-0.2-0.3-0.1c-0.2,0.1-0.4,0-0.5-0.2c-0.4-1-1.3-1.5-2.8-1.4c-0.8,0-0.8,0.2-0.1,0.5c0.4,0.2,0.5,0.3,0.2,0.4
		c-0.1,0.1-0.2,0-0.3-0.1c0,0,0,0,0-0.1l-0.5-2.3c0-0.1-0.1-0.1-0.1-0.1s-0.1,0.1-0.1,0.1l0,0c0,0.2,0,0.4,0.1,0.7
		c0.1,0.4,0.1,0.5-0.2,0.1c-0.1-0.2-0.3-0.4-0.4-0.6c-0.1-0.3-0.4-0.4-0.7-0.3l-0.5,0.2"/>
	<path vector-effect="non-scaling-stroke" class="st1" d="M741.1,374.7c-38.3-62.1-92.5-102.8-162.6-122.3c-7.4-2-17.3-3.8-25.9-6
		c-0.3-0.1-0.6-0.3-0.8-0.5c-13.6-16.1-31-25-52.4-20.1c-13.4,3.1-21.6,10.9-31.1,20.1c-0.9,0.8-1.6,1.1-2.6,1.3
		c-25.4,5.2-49.7,13.3-73.1,24.6C350.4,292,313.9,325,288,363.5"/>
	<path vector-effect="non-scaling-stroke" class="st0" d="M288,363.5c-0.3-0.2-0.4-0.5-0.4-1.1c0-0.1,0-0.2-0.1-0.2l-0.4-0.1
		c-0.1,0-0.1,0-0.2,0.1c0,0,0,0.1,0,0.1c0.4,1,0.1,1.8-1,2.3c-0.1,0.1-0.2,0-0.2-0.1c0-0.2,0.1-0.4,0.3-0.5c0,0,0,0,0-0.1
		c0,0,0,0-0.1,0c-0.1,0-0.2,0-0.3-0.1c-0.1-0.1-0.3-0.1-0.4,0c-0.8,0.8-0.9,1.6-0.4,2.5c0.1,0.2,0.1,0.4-0.1,0.5l-0.3,0.3
		c-0.2,0.2-0.5,0.2-0.6,0c-0.1-0.1-0.1-0.2-0.1-0.3c0.1-1.6-0.3-3.2-1.2-4.6c-0.1-0.2-0.3-0.2-0.5-0.1l-0.2,0.2
		c-0.2,0.2-0.4,0.2-0.6,0.1c-1.1-0.5-2.2-0.5-3.3,0c-0.3,0.1-0.5,0-0.6-0.2c-0.1-0.2-0.1-0.4-0.1-0.6c0-0.1,0-0.1,0.1,0
		c0.1,0.8-0.3,1.3-1.2,1.4c-0.3,0-0.6,0-0.9-0.1l-1.4-0.7c-0.3-0.1-0.5-0.1-0.8,0.1c-0.1,0.1-0.3,0.3-0.5,0.4
		c-0.2,0.1-0.3,0.1-0.3-0.1l0-0.4c0-0.1-0.1-0.2-0.2-0.2c-0.1,0-0.1,0-0.2,0.1c-1.1,1.6-2.5,2.1-4.1,1.4c-0.3-0.1-0.6-0.2-0.9-0.2
		l-7-0.2c-0.3,0-0.6-0.1-0.9-0.3c-0.5-0.4-0.9-0.6-1.3-0.6c-4.2,0-7.4,0.5-9.8,1.5c-1.6,0.7-3,1-4.2,1c-0.3,0-0.7,0.1-1,0.2
		c-0.7,0.3-1.4,0.2-2.1-0.2c-0.4-0.3-0.6-0.2-0.7,0.3c-0.2,0.6-0.5,1-0.9,1.2c-1,0.4-1.9,0.2-2.7-0.7c-0.1-0.1-0.1-0.1-0.2,0
		c-0.1,0.1-0.1,0.1-0.2,0.2c-0.3,0.2-0.6,0.3-0.9,0.3l-6.5,0.2c-0.4,0-0.7,0.2-0.9,0.4c-0.4,0.4-0.9,0.6-1.5,0.6c-0.3,0-0.6,0-1,0.1
		c-2.5,0.6-4.8,1.4-7,2.6c-0.2,0.1-0.4,0.1-0.7,0.1l-0.9-0.2c-0.4-0.1-0.7,0.1-0.8,0.5l-0.1,0.3c-0.1,0.3-0.3,0.5-0.6,0.4
		c-1.4-0.1-2.6,0.5-3.4,1.6c-0.2,0.3-0.4,0.5-0.7,0.6l-4.8,2.3c-0.4,0.2-0.8,0.2-1.2-0.1c-1.2-0.8-1.9-1.9-2.2-3.4c0,0,0,0,0,0
		c0,0,0,0,0,0c0.1,0.1,0.1,0.2,0.2,0.2c0,0.1,0.1,0.1,0.2,0c0,0,0,0,0-0.1l0.2-0.6c0.1-0.2,0.2-0.2,0.3-0.2h0.4c0.2,0,0.2,0,0.1-0.2
		l-0.3-0.2c-0.3-0.2-0.4-0.4-0.2-0.8c0.7-1.2,1.1-2.5,1.1-3.8"/>
	<path vector-effect="non-scaling-stroke" class="st2" d="M849.4,516.2l-0.5,1.2c-0.1,0.1-0.1,0.3-0.1,0.4c0.1,0.5,0.1,1,0,1.5
		c0,0.4-0.4,0.7-0.8,0.7c-0.3,0-0.6-0.3-0.7-0.6c-0.3-1.3-0.7-2.5-1.3-3.8c-0.4-0.8-1.1-1.2-2-1.3c-0.7,0-1.1-0.5-1.3-1.5
		c-0.1-0.4-0.3-0.6-0.7-0.7l-2.2-0.2c-0.1,0-0.2,0-0.2,0.1c-0.2,0.3-0.4,0.4-0.7,0.3c-0.4-0.2-0.7-0.2-1,0.1c-0.8,1-1.7,1-2.7,0
		c-0.1-0.1-0.1-0.1,0-0.2c0,0,0-0.1,0-0.1c0.1-0.1,0.1-0.2,0-0.2h-2.6c-0.4,0-0.7-0.3-0.7-0.7l-0.2-1.9c0-0.5-0.3-0.8-0.9-0.6
		l-4.5,1c-0.4,0.1-0.6,0-0.8-0.4c-0.1-0.2-0.3-0.3-0.5-0.3c-0.1,0-0.2,0.1-0.2,0.2c0,0.3-0.2,0.4-0.4,0.4c-0.5,0-1-0.3-1-0.6
		c0-0.1,0-0.2,0.1-0.3c0.1-0.1,0.1-0.2,0-0.4c-0.1-0.2-0.1-0.2-0.1,0c0,0.2-0.2,0.4-0.5,0.4c-0.3,0-0.4,0.1-0.5,0.1
		c-1.3,0.4-2.5-0.4-3.4-2.3c-0.2-0.4-0.5-0.5-0.8-0.2c-0.4,0.4-0.8,0.3-1.2-0.2c-0.2-0.2-0.5-0.3-0.7-0.1c-0.1,0-0.1,0.1-0.1,0.2
		c-0.4,0.7-0.9,1-1.7,1c-0.8,0-1.4-0.7-1.3-1.5c0-0.1,0-0.2,0-0.3c0.2-0.7,0-1.4-0.5-2.1c-0.2-0.2-0.4-0.4-0.8-0.4
		c-2.4-0.1-4.7,0.1-7,0.7c-0.1,0-0.3,0-0.4-0.2c-0.2-0.3-0.1-0.4,0.3-0.2c0.3,0.1,0.3,0.3,0.1,0.5c-2.2,1.9-3.7-0.6-5.9,0.2
		c-0.2,0.1-0.4,0.1-0.6-0.1l-0.8-0.4c-0.2-0.1-0.3-0.1-0.4,0.2c0,0.2-0.2,0.3-0.5,0.3c-0.8,0-1.6,0-2.4,0.2c-0.9,0.1-1.7,0.1-2.4,0
		c-2.6-0.4-5.2-1-7.7-1.8c-0.1,0-0.2-0.1-0.2-0.1c-0.1-0.1-0.1-0.1-0.2-0.2c-0.1-0.1-0.2-0.1-0.3,0c-1.5,3.5-2.4,6.9-2.8,10.3
		c-0.4,3.6-0.7,8.3-0.9,14.2c0,0.3-0.1,0.6-0.3,0.9c-0.3,0.4-0.4,0.8-0.4,1.4c-0.2,5.6-1,11.4-2.2,17.5c-0.2,0.8-0.6,1.3-1.3,1.5"/>
	<path vector-effect="non-scaling-stroke" class="st3" d="M741.1,374.7c31.6,53.6,43.1,111.5,34.6,173.6"/>
	<path vector-effect="non-scaling-stroke" class="st4" d="M775.6,548.3c-4.7,34.2-15.1,66.3-31.4,96.5"/>
	<path vector-effect="non-scaling-stroke" class="st5" d="M744.2,644.7c-14.5,26.3-31.6,48.6-51.9,69.6c-6,6.2-9.2,11.4-13.9,18.6
		c-10,15.6-28.8,29.3-47.5,33.5c-4.2,0.9-10.6,1.4-19.1,1.4c-68.6,0-137.1,0.1-205.7,0.2c-26.4,0-50.4-15.4-64.2-37.3
		c-4.1-6.5-7.7-12.4-13.2-18.1c-7.8-8-15.2-16.4-22.2-25.2"/>
	<path vector-effect="non-scaling-stroke" class="st4" d="M306.6,687.5c-14.1-18.1-25.9-37.5-35.7-58.2c-0.9-1.9-1.9-4.2-3.1-7.1
		c-2.4-6-5.4-12.6-7.3-17.9c-6.2-17.1-10.7-34.8-13.3-52.9"/>
	<path vector-effect="non-scaling-stroke" class="st3" d="M247.4,551.5c-3-19.6-3.8-39.9-2.2-60.6c3.4-46.4,17.7-88.8,42.9-127.3"/>
	<path vector-effect="non-scaling-stroke" class="st2" d="M247.4,551.5l-0.4,3.5c0,0.1-0.1,0.1-0.1,0.1c-0.1,0-0.2,0-0.3,0
		c-0.5-0.1-0.6,0.2-0.3,0.8c1.4,2.3,1.2,4.5-0.4,6.5c-0.2,0.3-0.4,0.3-0.6-0.1l-0.2-0.5c0-0.1-0.1-0.1-0.1-0.1c0,0,0,0,0,0
		c-0.1,0.1-0.1,0.1-0.2,0.2c-0.3,0.3-0.4,0.2-0.5-0.1l-0.5-1.8c-0.1-0.3-0.2-0.5-0.5-0.5l-5.1-1.6c-0.3-0.1-0.6-0.1-0.9,0
		c-0.6,0.2-1,0.1-1.3-0.4c-0.1-0.2-0.4-0.4-0.6-0.5c-1.3-0.3-2.5-1-3.5-2c-0.1-0.1-0.3-0.2-0.6-0.3c-1.3-0.1-2.4-0.6-3.4-1.4
		c-0.3-0.2-0.6-0.3-0.9-0.2c-0.5,0.1-0.9-0.1-1-0.6c0-0.2-0.2-0.4-0.4-0.5l-2.8-1c-0.2-0.1-0.5,0-0.7,0.1c-0.5,0.5-1.2,0.6-2,0.5
		c-0.4-0.1-0.7-0.2-1-0.5c-0.4-0.4-0.9-0.6-1.6-0.7c-0.3,0-0.5-0.2-0.6-0.4c-0.3-0.6-0.8-1-1.4-1.3c-0.3-0.1-0.5-0.1-0.8,0
		c-1,0.4-2.1,0.5-3.1,0.1c-1.5-0.5-2.9-0.7-4.4-0.5c-1,0.1-1.9,0.2-2.8,0.3c-1,0.1-1.9,0.3-2.8,0.7c-0.1,0-0.1,0-0.1-0.1
		c0-0.1-0.1-0.2-0.3-0.3c-0.2-0.1-0.4-0.1-0.6,0l-5,1.8c-0.3,0.1-0.5,0.1-0.8,0c-0.4-0.2-0.9-0.3-1.4-0.2c-0.4,0-0.8,0.2-1.1,0.4
		c-0.4,0.3-0.9,0.2-1.4-0.3c-0.3-0.2-0.7-0.2-0.9,0c-1.9,1.4-4.1,1.9-6.4,1.4c-0.3-0.1-0.5,0-0.8,0.2l-5,3.2
		c-0.3,0.2-0.7,0.1-0.9-0.2c-0.7-0.9-0.9-2-0.6-3.4c0,0,0,0,0,0l0.2,0.2c0,0,0.1,0,0.1,0c0.4-0.2,0.5-0.4,0.4-0.7
		c-0.2-0.3-0.7-0.5-1-0.4c-0.2,0.1-0.4,0.3-0.3,0.6c0,0.1,0,0.2,0,0.4c0,0.2-0.1,0.2-0.2,0c-0.1-0.2-0.2-0.4-0.1-0.7
		c0.4-2.5,0.1-4.9-0.8-7c-0.1-0.3-0.2-0.6-0.1-1c0.3-1.4,0.1-2.5-0.6-3.4"/>
	<path vector-effect="non-scaling-stroke" class="st6" d="M806.1,679.3l-3.7-4.7c-0.2-0.2-0.2-0.5,0.1-0.7c1.2-1,1.5-2.2,0.8-3.6
		c-0.2-0.3-0.2-0.7,0-1c0.7-1.4,0.8-2.9,0.2-4.4c-0.1-0.3-0.3-0.5-0.5-0.6c-0.5-0.3-0.9-0.7-1.3-1.1c-0.6-0.6-1-0.9-1.2-1
		c-1.7-0.9-3.5-1.6-5.4-2.2c-0.3-0.1-0.5-0.3-0.6-0.5c-0.3-0.6-0.7-1-1.3-1.3c-0.3-0.1-0.5-0.4-0.6-0.7c-0.6-1.4-1.7-2.2-3.3-2.2
		c-0.3,0-0.6-0.1-0.8-0.3l-2.5-2.2c-0.2-0.2-0.4-0.3-0.7-0.4c-2-0.7-4.1-1-6.3-0.9c-0.4,0-0.7-0.1-1-0.2l-1.6-0.8
		c-0.1,0-0.1-0.1,0-0.1c0.1-0.1,0.1-0.1,0.1-0.2c0.1-0.4-0.1-0.5-0.4-0.4c-1.8,0.5-2.9-0.1-3.4-1.8c-0.1-0.4-0.5-0.7-0.9-0.7l-3.2,0
		c-0.3,0-0.6-0.2-0.8-0.4c-0.4-0.6-1-0.8-1.7-0.5c-0.3,0.1-0.7,0-0.8-0.3c-0.5-0.9-0.9-1.2-2-1.3c-2.9-0.2-5.1,0.2-7.2-2.2
		c-0.2-0.2-0.4-0.3-0.7-0.3l-6.8-0.1c-0.2,0-0.4,0.1-0.5,0.2c-0.5,0.7-0.8,1.3-1,2c0,0.1-0.1,0.1-0.2,0.1c-0.9-0.3-1.9-0.2-2.8,0.3"
		/>
	<path vector-effect="non-scaling-stroke" class="st6" d="M306.6,687.5c0.5,1.2,0.1,0.9-1.1-0.6c-0.1-0.2-0.3-0.2-0.5-0.1
		c-0.2,0.1-0.2,0.3-0.1,0.5l3.3,5.4c0,0.1,0,0.1,0,0.2c0,0-0.1,0-0.1,0l-0.9-0.3c-0.4-0.1-0.6,0-0.9,0.3c-1.2,1.5-2.7,2.4-4.6,2.5
		c-0.3,0-0.5,0.2-0.6,0.5c-0.1,0.2-0.2,0.3-0.3,0.4c-0.2,0.1-0.5,0.1-0.8,0c-1.9-0.5-3.7-0.7-5.6-0.6c-0.3,0-0.6-0.1-0.8-0.3
		c-2.2-1.8-4.7-3.3-7.4-4.2c-0.1,0-0.5,0-1,0.1c-0.9,0.1-1.6-0.2-2.2-1c-0.2-0.3-0.5-0.4-0.8-0.4c-1.4-0.1-2.5-0.6-3.4-1.5
		c-0.2-0.2-0.5-0.4-0.8-0.5c-0.7-0.2-1.3-0.5-1.8-1c-0.2-0.2-0.3-0.4-0.4-0.6c-0.2-0.6-0.7-1.1-1.3-1.3c-0.3-0.1-0.5-0.3-0.6-0.5
		l-3.1-5.1c-0.1-0.1-0.2-0.1-0.3-0.1c-0.1,0.1-0.1,0.2-0.1,0.2l0.1,0.3c0.2,0.6,0,0.7-0.6,0.5c-1-0.4-1.9-1-2.6-1.9
		c-0.3-0.3-0.6-0.5-1-0.6c-0.9-0.1-1.5-0.6-1.9-1.4c-0.2-0.4-0.5-0.6-0.9-0.6l-6.1,0.1c-0.8,0-1.4,0.6-1.4,1.4v4
		c0,0.3,0.1,0.5,0.2,0.8c0.3,0.5,0.8,1,1.4,1.4c0.3,0.2,0.4,0.6,0.2,0.9c-0.1,0.1-0.3,0.3-0.4,0.3c-1.3,0.2-2.1,1-2.6,2.2
		c-0.1,0.3-0.4,0.5-0.7,0.6c-0.3,0.1-0.6,0.1-0.8,0.1c-0.4,0-0.7,0.2-0.9,0.4c-1,1-2.2,1.1-3.5,0.4c-0.3-0.2-0.6-0.2-0.8-0.2
		c-0.2,0-0.5,0.1-0.8,0.3c-0.2,0.2-0.5,0.2-0.7,0.1c-0.5-0.2-0.8-0.2-1,0.2c-0.1,0.3-0.4,0.4-0.7,0.3c-0.5-0.2-0.9-0.2-1.3-0.1
		c-1.8,0.5-3,0.1-4.8-0.8c-0.3-0.2-0.6-0.1-0.9,0.1c-0.1,0.1-0.2,0.1-0.1-0.1c0-0.1,0.1-0.2,0.1-0.3c0.2-0.2,0.1-0.3-0.1-0.5
		c-1.3-0.7-2.6-0.8-3.9-0.4c-0.3,0.1-0.5,0.3-0.7,0.5c-0.4,0.5-0.8,0.7-1.4,0.6c-0.3,0-0.5-0.1-0.8-0.2c-0.4-0.2-0.7-0.2-1,0.2
		c-0.7,0.8-1.5,2.4-2.4,4.9c0,0.1-0.1,0.1-0.3,0.1c-0.2-0.1-0.3-0.1-0.4,0.2c-0.1,0.3,0,0.5,0.4,0.6c0.2,0.1,0.4,0.1,0.6,0.1
		s0.2,0,0.3,0.1c0.3,1,0,1.7-1,2.2"/>
	<path vector-effect="non-scaling-stroke" class="st7" d="M633.1,355.7c-0.1,0.2-0.3,0.3-0.5,0.3c-0.1,0-0.1,0-0.1-0.1
		c-32.8-29.7-65.6-59.1-98.4-88.4c-13.3-11.8-33.2-11.9-46.6-0.1c-18.9,16.6-34.8,30.8-47.8,42.7c-40.9,37.3-81.9,74.6-122.9,111.9
		c-3.8,3.5-6.5,6.6-8.1,9.4c-5.9,10.3,0.4,24.4,11.8,27.7c7.9,2.3,15,0.6,21.1-5c53.3-49.4,106.8-98.6,160.4-147.6
		c5.3-4.8,9.9-8,15.9-2.6c28.3,25.7,83.4,76,165.3,150.9c4.9,4.5,10.4,6.2,16.4,5c17.1-3.2,22.7-22.8,9.8-34.4
		c-10.1-9.1-20.2-18-30.1-26.8c-0.8-0.7-1.2-1.5-1.3-2.6c-0.2-2.4-0.3-5-0.3-7.7c0-15.8,0-31.7-0.1-47.5c0-8.9-0.9-15.7-7.1-21.3
		c-14.5-13-37.1-3.6-36.9,15.8c0.1,6.3,0,12.7-0.1,19C633.3,354.8,633.2,355.3,633.1,355.7"/>
	<path vector-effect="non-scaling-stroke" class="st7" d="M378.2,468.9c-14.1,12.9-28,25.7-41.8,38.4c-4.4,4.1-7.3,7.2-8.5,9.5
		c-5.8,10.4-1.8,25.6,10,29.8c9,3.2,16.7,1,23.1-6.5c2.1-2.4,7.6-7.7,16.7-15.9"/>
	<path vector-effect="non-scaling-stroke" class="st1" d="M377.7,524.1c0.2,1.9,0.3,3.8,0.3,5.6c-0.1,3-0.2,4.5-0.2,4.5
		c-0.1,51.7-0.1,103.5,0,155.2c0,14,4.8,25.1,14.4,33.4c7.2,6.2,16.2,9.5,25.6,9.6c11.2,0.1,25.5,0.1,42.9-0.1
		c8-0.1,15-1.4,19.8-7.1c5.6-6.7,4.6-14.5,4.5-23.8c0-4.3,0.4-7.5,1.2-9.6c3.5-8.5,10.4-9.8,19.4-9.9c5.1,0,10.2,0,15.3,0
		c3.1,0,5.5,0.5,7.3,1.4c11.6,5.6,8.9,18.9,9,29.2c0,11.5,9.1,19.8,20.2,20c6.5,0.1,17.7,0.1,33.5,0c11.1-0.1,17.7-0.3,20-0.7
		c17.7-3,33.3-18.3,33.3-37c0-49.6,0-99.2,0-148.8c0-6.5,0.1-13,0.3-19.5c0-1,0.3-1.5,0.9-1.4"/>
	<path vector-effect="non-scaling-stroke" class="st7" d="M645.5,525.1c9.3,8.3,15.5,13.9,18.4,16.8c15.7,15.3,40-1.1,32.7-21.6
		c-1.3-3.6-3.3-6.7-6.1-9.2c-15.8-14.1-31.5-28.4-47.2-42.8"/>
	<path vector-effect="non-scaling-stroke" class="st1" d="M643.2,468.2c-2.2-2.2-7.4-7-15.6-14.5c-19.7-17.9-51.4-47.1-94.9-87.5
		c-4.6-4.3-8.3-7-10.8-8.2c-9.6-4.3-22.1-2-29.8,5.1c-26.7,24.5-60.6,55.9-101.7,94.1c-6.3,5.9-10.4,9.8-12.3,11.7"/>
	<path vector-effect="non-scaling-stroke" class="st8" d="M643.2,468.2c0.4,1.2,0.8,2.4,1.1,3.5c0.3,1.1,0.5,2.3,0.5,3.6
		c0.4,15.6,0.4,31.1,0,46.7c0,0.7,0.2,1.8,0.6,3.1"/>
	<path vector-effect="non-scaling-stroke" class="st8" d="M377.7,524.1c0-15.2-0.1-30.6-0.4-46.4c0-1.5,0.1-3,0.3-4.4
		c0.2-1.4,0.4-2.9,0.6-4.4"/>
	<path vector-effect="non-scaling-stroke" class="st1" d="M450.1,681.4c1.2-16.2,15.7-31.3,30.8-35.7c3.4-1,8.7-1.5,15.8-1.5
		c6.8,0,13.5,0,20.3,0c10.9,0,17.5,0.2,20,0.6c16,2.9,29.9,15.5,34.1,31.2c1.5,5.4,1.6,12.3,1.7,18.3c0,0.4,0.3,0.8,0.8,0.8
		c6.2,0.2,12.4,0.3,18.7,0.3c8.4-0.1,13.9-3.2,16.4-9.3c1-2.6,1.6-8,1.6-16.3c0-57.8,0-115.6,0-173.4c0-10.7-5.1-15.6-12.5-22.5
		c-24-22.1-48-44.3-71.9-66.4c-5.9-5.5-11.7-10.2-20.2-6.9c-1.9,0.8-4.6,2.8-8.1,6.1c-24.7,23.2-49.4,46.2-74.3,69.3
		c-3.9,3.6-6.6,6.6-7.9,8.9c-3,5.1-2.8,10.7-2.8,18.4c0,58,0.1,116.1,0.1,174.1c0,7.1,3,14.1,9.8,16.8c2,0.8,5.5,1.2,10.5,1.1
		c5.4,0,10.7-0.1,16.1-0.2c0.3,0,0.5-0.2,0.5-0.5C449.6,690,449.8,685.7,450.1,681.4"/>
	<path vector-effect="non-scaling-stroke" class="st7" d="M502.3,517.3c6.8-11.3,3-26-8.5-32.9c0,0,0,0,0,0
		c-11.4-6.8-26.2-3.2-33,8.1c0,0,0,0,0,0c-6.8,11.3-3,26,8.5,32.9l0,0C480.8,532.2,495.5,528.6,502.3,517.3L502.3,517.3"/>
	<path vector-effect="non-scaling-stroke" class="st7" d="M565.7,504.9c0-13.2-10.7-24-24-24c0,0,0,0,0,0c-13.2,0-24,10.7-24,24
		c0,13.2,10.7,24,24,24C555,528.8,565.7,518.1,565.7,504.9L565.7,504.9"/>
	<path vector-effect="non-scaling-stroke" class="st7" d="M505.5,565.5c0-13.3-10.7-24-24-24s-24,10.7-24,24s10.7,24,24,24
		S505.5,578.7,505.5,565.5"/>
	<path vector-effect="non-scaling-stroke" class="st7" d="M560.2,580.9c8.5-10.2,7.1-25.3-3.1-33.8c-10.2-8.5-25.4-7.2-33.9,2.9
		c-8.5,10.2-7.1,25.3,3.1,33.8C536.5,592.3,551.7,591,560.2,580.9"/>
</g>
<path class="st9" d="M818.2,368.9l0.2,3.6c0,0.2,0.1,0.3,0.4,0.3c0.1,0,0.2,0,0.4-0.1c0.3-0.1,0.4,0,0.3,0.3l-0.1,0.5
	c-0.1,0.3-0.4,0.5-0.7,0.4c-0.2,0-0.3-0.2-0.4-0.3c-0.6-1.2-1.3-2.2-2.3-3c-0.7-0.7-1.8-1.1-3.4-1.3c-1.3-0.2-2.7-0.5-3.9-0.9
	c-1.7-0.5-3-0.9-3.9-1.1c-4.8-1-9.6-2.1-14.3-3.4c-2.1-0.6-4.5-0.3-6.9-1.1c-0.1,0-0.3-0.1-0.5,0l-5.2,1.2c-0.3,0.1-0.6,0-0.9-0.2
	c-1.5-1.1-2.8-0.9-3.9,0.4c0,0,0,0.1,0,0.1c0.1,0,0.1,0.1,0.2,0.2c0.1,0.1,0.1,0.2-0.1,0.2c-0.7,0.2-1,0.6-0.8,1.3
	c0.2,0.7-0.2,1.5-0.9,1.8l-6,1.9c-0.3,0.1-0.6,0.1-0.9-0.1c-0.5-0.3-1.1-0.3-1.6-0.1c-0.1,0-0.1,0.1-0.1,0.2c0,0.1,0.1,0.1,0.1,0.1
	l0.5,0.1c0.2,0,0.2,0.1,0,0.2l-0.2,0.1c0,0,0,0-0.1,0c-3.7-1.4-7.2-1.1-10.5,1c-0.2,0.1-0.4,0.2-0.7,0.2c-0.7-0.1-1.3,0.2-1.7,0.8
	c-0.7,1.1-1.3,2.2-1.7,3.5c-0.1,0.3-0.3,0.5-0.6,0.7c-0.7,0.3-0.9,0.9-0.7,1.6c0,0.1,0,0.1,0,0.2l-0.2,0.2c-0.1,0.1-0.1,0-0.1,0
	c0-0.1,0-0.2,0-0.3c0-0.1,0-0.2-0.1-0.2c-0.1-0.1-0.2-0.2-0.3-0.1c-0.2,0.1-0.4,0-0.5-0.2c-0.4-1-1.3-1.5-2.8-1.4
	c-0.8,0-0.8,0.2-0.1,0.5c0.4,0.2,0.5,0.3,0.2,0.4c-0.1,0.1-0.2,0-0.3-0.1c0,0,0,0,0-0.1l-0.5-2.3c0-0.1-0.1-0.1-0.1-0.1
	s-0.1,0.1-0.1,0.1l0,0c0,0.2,0,0.4,0.1,0.7c0.1,0.4,0.1,0.5-0.2,0.1c-0.1-0.2-0.3-0.4-0.4-0.6c-0.1-0.3-0.4-0.4-0.7-0.3l-0.5,0.2
	c-38.3-62.1-92.5-102.8-162.6-122.3c-7.4-2-17.3-3.8-25.9-6c-0.3-0.1-0.6-0.3-0.8-0.5c-13.6-16.1-31-25-52.4-20.1
	c-13.4,3.1-21.6,10.9-31.1,20.1c-0.9,0.8-1.6,1.1-2.6,1.3c-25.4,5.2-49.7,13.3-73.1,24.6C350.4,292,313.9,325,288,363.5
	c-0.3-0.2-0.4-0.5-0.4-1.1c0-0.1,0-0.2-0.1-0.2l-0.4-0.1c-0.1,0-0.1,0-0.2,0.1c0,0,0,0.1,0,0.1c0.4,1,0.1,1.8-1,2.3
	c-0.1,0.1-0.2,0-0.2-0.1c0-0.2,0.1-0.4,0.3-0.5c0,0,0,0,0-0.1c0,0,0,0-0.1,0c-0.1,0-0.2,0-0.3-0.1c-0.1-0.1-0.3-0.1-0.4,0
	c-0.8,0.8-0.9,1.6-0.4,2.5c0.1,0.2,0.1,0.4-0.1,0.5l-0.3,0.3c-0.2,0.2-0.5,0.2-0.6,0c-0.1-0.1-0.1-0.2-0.1-0.3
	c0.1-1.6-0.3-3.2-1.2-4.6c-0.1-0.2-0.3-0.2-0.5-0.1l-0.2,0.2c-0.2,0.2-0.4,0.2-0.6,0.1c-1.1-0.5-2.2-0.5-3.3,0
	c-0.3,0.1-0.5,0-0.6-0.2c-0.1-0.2-0.1-0.4-0.1-0.6c0-0.1,0-0.1,0.1,0c0.1,0.8-0.3,1.3-1.2,1.4c-0.3,0-0.6,0-0.9-0.1l-1.4-0.7
	c-0.3-0.1-0.5-0.1-0.8,0.1c-0.1,0.1-0.3,0.3-0.5,0.4c-0.2,0.1-0.3,0.1-0.3-0.1l0-0.4c0-0.1-0.1-0.2-0.2-0.2c-0.1,0-0.1,0-0.2,0.1
	c-1.1,1.6-2.5,2.1-4.1,1.4c-0.3-0.1-0.6-0.2-0.9-0.2l-7-0.2c-0.3,0-0.6-0.1-0.9-0.3c-0.5-0.4-0.9-0.6-1.3-0.6
	c-4.2,0-7.4,0.5-9.8,1.5c-1.6,0.7-3,1-4.2,1c-0.3,0-0.7,0.1-1,0.2c-0.7,0.3-1.4,0.2-2.1-0.2c-0.4-0.3-0.6-0.2-0.7,0.3
	c-0.2,0.6-0.5,1-0.9,1.2c-1,0.4-1.9,0.2-2.7-0.7c-0.1-0.1-0.1-0.1-0.2,0c-0.1,0.1-0.1,0.1-0.2,0.2c-0.3,0.2-0.6,0.3-0.9,0.3
	l-6.5,0.2c-0.4,0-0.7,0.2-0.9,0.4c-0.4,0.4-0.9,0.6-1.5,0.6c-0.3,0-0.6,0-1,0.1c-2.5,0.6-4.8,1.4-7,2.6c-0.2,0.1-0.4,0.1-0.7,0.1
	l-0.9-0.2c-0.4-0.1-0.7,0.1-0.8,0.5l-0.1,0.3c-0.1,0.3-0.3,0.5-0.6,0.4c-1.4-0.1-2.6,0.5-3.4,1.6c-0.2,0.3-0.4,0.5-0.7,0.6l-4.8,2.3
	c-0.4,0.2-0.8,0.2-1.2-0.1c-1.2-0.8-1.9-1.9-2.2-3.4c0,0,0,0,0,0c0,0,0,0,0,0c0.1,0.1,0.1,0.2,0.2,0.2c0,0.1,0.1,0.1,0.2,0
	c0,0,0,0,0-0.1l0.2-0.6c0.1-0.2,0.2-0.2,0.3-0.2h0.4c0.2,0,0.2,0,0.1-0.2l-0.3-0.2c-0.3-0.2-0.4-0.4-0.2-0.8
	c0.7-1.2,1.1-2.5,1.1-3.8c5.1-9.4,9.3-19.4,15.2-28.3c1.5-2.4,3.1-4.7,4.6-7.1c3.4-5.4,7.4-10.4,11-15.6c2.4-3.5,4.4-6.3,6.3-8.6
	c9.2-11.6,16.2-19.8,20.9-24.8c7.7-8.2,17.6-17.3,29.7-27.5c5.2-4.4,10.4-8.5,15.7-12.4c12.9-9.4,24.7-17,35.3-22.9
	c10.9-6,24.4-12.4,40.4-19.1c4.4-1.8,9.7-3.7,16-5.7c7.2-2.3,14.8-5,21.6-6.8c9.4-2.4,21.7-5.2,36.8-8.2c6-1.2,10.3-1.8,13-1.8
	c3,0,6.8-1.1,10-1.3c17.7-1.1,35.4-1.2,53-0.4c2.5,0.1,5.8,0.5,9.8,1c4.4,0.6,9.2,1,13.1,1.5c42.7,6.1,82,19.3,118,39.4
	c12.5,7,26.2,15.9,41,26.7c5.7,4.2,11,8.3,15.7,12.4c12.5,10.9,24.6,22.9,36.5,36.2c6.2,6.9,11.9,15,16.3,20.7
	C798.1,331,809.2,349.4,818.2,368.9z"/>
<path class="st10" d="M741.1,374.7c31.6,53.6,43.1,111.5,34.6,173.6c-4.7,34.2-15.1,66.3-31.4,96.5c-14.5,26.3-31.6,48.6-51.9,69.6
	c-6,6.2-9.2,11.4-13.9,18.6c-10,15.6-28.8,29.3-47.5,33.5c-4.2,0.9-10.6,1.4-19.1,1.4c-68.6,0-137.1,0.1-205.7,0.2
	c-26.4,0-50.4-15.4-64.2-37.3c-4.1-6.5-7.7-12.4-13.2-18.1c-7.8-8-15.2-16.4-22.2-25.2c-14.1-18.1-25.9-37.5-35.7-58.2
	c-0.9-1.9-1.9-4.2-3.1-7.1c-2.4-6-5.4-12.6-7.3-17.9c-6.2-17.1-10.7-34.8-13.3-52.9c-3-19.6-3.8-39.9-2.2-60.6
	c3.4-46.4,17.7-88.8,42.9-127.3c25.9-38.5,62.4-71.6,104.5-91.8c23.3-11.2,47.7-19.4,73.1-24.6c1.1-0.2,1.8-0.5,2.6-1.3
	c9.5-9.1,17.7-17,31.1-20.1c21.4-4.9,38.8,3.9,52.4,20.1c0.2,0.3,0.5,0.4,0.8,0.5c8.6,2.2,18.5,4,25.9,6
	C648.6,271.9,702.8,312.6,741.1,374.7z M633.1,355.7c-0.1,0.2-0.3,0.3-0.5,0.3c-0.1,0-0.1,0-0.1-0.1c-32.8-29.7-65.6-59.1-98.4-88.4
	c-13.3-11.8-33.2-11.9-46.6-0.1c-18.9,16.6-34.8,30.8-47.8,42.7c-40.9,37.3-81.9,74.6-122.9,111.9c-3.8,3.5-6.5,6.6-8.1,9.4
	c-5.9,10.3,0.4,24.4,11.8,27.7c7.9,2.3,15,0.6,21.1-5c53.3-49.4,106.8-98.6,160.4-147.6c5.3-4.8,9.9-8,15.9-2.6
	c28.3,25.7,83.4,76,165.3,150.9c4.9,4.5,10.4,6.2,16.4,5c17.1-3.2,22.7-22.8,9.8-34.4c-10.1-9.1-20.2-18-30.1-26.8
	c-0.8-0.7-1.2-1.5-1.3-2.6c-0.2-2.4-0.3-5-0.3-7.7c0-15.8,0-31.7-0.1-47.5c0-8.9-0.9-15.7-7.1-21.3c-14.5-13-37.1-3.6-36.9,15.8
	c0.1,6.3,0,12.7-0.1,19C633.3,354.8,633.2,355.3,633.1,355.7z M378.2,468.9c-14.1,12.9-28,25.7-41.8,38.4c-4.4,4.1-7.3,7.2-8.5,9.5
	c-5.8,10.4-1.8,25.6,10,29.8c9,3.2,16.7,1,23.1-6.5c2.1-2.4,7.6-7.7,16.7-15.9c0.2,1.9,0.3,3.8,0.3,5.6c-0.1,3-0.2,4.5-0.2,4.5
	c-0.1,51.7-0.1,103.5,0,155.2c0,14,4.8,25.1,14.4,33.4c7.2,6.2,16.2,9.5,25.6,9.6c11.2,0.1,25.5,0.1,42.9-0.1c8-0.1,15-1.4,19.8-7.1
	c5.6-6.7,4.6-14.5,4.5-23.8c0-4.3,0.4-7.5,1.2-9.6c3.5-8.5,10.4-9.8,19.4-9.9c5.1,0,10.2,0,15.3,0c3.1,0,5.5,0.5,7.3,1.4
	c11.6,5.6,8.9,18.9,9,29.2c0,11.5,9.1,19.8,20.2,20c6.5,0.1,17.7,0.1,33.5,0c11.1-0.1,17.7-0.3,20-0.7c17.7-3,33.3-18.3,33.3-37
	c0-49.6,0-99.2,0-148.8c0-6.5,0.1-13,0.3-19.5c0-1,0.3-1.5,0.9-1.4c9.3,8.3,15.5,13.9,18.4,16.8c15.7,15.3,40-1.1,32.7-21.6
	c-1.3-3.6-3.3-6.7-6.1-9.2c-15.8-14.1-31.5-28.4-47.2-42.8c-2.2-2.2-7.4-7-15.6-14.5c-19.7-17.9-51.4-47.1-94.9-87.5
	c-4.6-4.3-8.3-7-10.8-8.2c-9.6-4.3-22.1-2-29.8,5.1c-26.7,24.5-60.6,55.9-101.7,94.1C384.1,463.1,380,467,378.2,468.9z"/>
<path class="st11" d="M633.1,355.7c0.1-0.4,0.2-0.9,0.2-1.4c0.1-6.3,0.1-12.7,0.1-19c-0.2-19.4,22.4-28.8,36.9-15.8
	c6.2,5.5,7.1,12.4,7.1,21.3c0,15.9,0.1,31.7,0.1,47.5c0,2.7,0.1,5.3,0.3,7.7c0.1,1,0.5,1.9,1.3,2.6c10,8.8,20,17.7,30.1,26.8
	c12.9,11.6,7.3,31.2-9.8,34.4c-6,1.1-11.5-0.5-16.4-5c-81.9-75-137-125.3-165.3-150.9c-6-5.5-10.7-2.2-15.9,2.6
	c-53.7,49-107.1,98.2-160.4,147.6c-6.1,5.7-13.2,7.4-21.1,5c-11.3-3.3-17.6-17.3-11.8-27.7c1.6-2.8,4.3-5.9,8.1-9.4
	c41-37.3,81.9-74.6,122.9-111.9c13-11.9,29-26.1,47.8-42.7c13.4-11.8,33.4-11.7,46.6,0.1c32.9,29.2,65.7,58.7,98.4,88.4
	c0.2,0.2,0.4,0.1,0.6,0C633.1,355.8,633.1,355.7,633.1,355.7z"/>
<path class="st9" d="M643.2,468.2c0.4,1.2,0.8,2.4,1.1,3.5c0.3,1.1,0.5,2.3,0.5,3.6c0.4,15.6,0.4,31.1,0,46.7c0,0.7,0.2,1.8,0.6,3.1
	c-0.6-0.1-0.9,0.4-0.9,1.4c-0.2,6.5-0.4,13-0.3,19.5c0.1,49.6,0.1,99.2,0,148.8c0,18.6-15.6,34-33.3,37c-2.2,0.4-8.9,0.6-20,0.7
	c-15.8,0.1-27,0.1-33.5,0c-11.1-0.1-20.2-8.5-20.2-20c0-10.3,2.6-23.6-9-29.2c-1.8-0.9-4.3-1.3-7.3-1.4c-5.1,0-10.2-0.1-15.3,0
	c-9,0-16,1.4-19.4,9.9c-0.9,2.1-1.3,5.3-1.2,9.6c0.1,9.3,1.1,17.1-4.5,23.8c-4.8,5.7-11.9,7-19.8,7.1c-17.3,0.2-31.6,0.2-42.9,0.1
	c-9.4-0.1-18.4-3.3-25.6-9.6c-9.6-8.3-14.3-19.4-14.4-33.4c-0.1-51.7-0.1-103.5,0-155.2c0,0,0.1-1.5,0.2-4.5c0.1-1.8,0-3.7-0.3-5.6
	c0-15.2-0.1-30.6-0.4-46.4c0-1.5,0.1-3,0.3-4.4c0.2-1.4,0.4-2.9,0.6-4.4c1.8-1.9,5.9-5.8,12.3-11.7c41-38.2,74.9-69.5,101.7-94.1
	c7.7-7.1,20.2-9.4,29.8-5.1c2.6,1.1,6.2,3.9,10.8,8.2c43.5,40.4,75.1,69.6,94.9,87.5C635.8,461.2,641,466,643.2,468.2z M450.1,681.4
	c1.2-16.2,15.7-31.3,30.8-35.7c3.4-1,8.7-1.5,15.8-1.5c6.8,0,13.5,0,20.3,0c10.9,0,17.5,0.2,20,0.6c16,2.9,29.9,15.5,34.1,31.2
	c1.5,5.4,1.6,12.3,1.7,18.3c0,0.4,0.3,0.8,0.8,0.8c6.2,0.2,12.4,0.3,18.7,0.3c8.4-0.1,13.9-3.2,16.4-9.3c1-2.6,1.6-8,1.6-16.3
	c0-57.8,0-115.6,0-173.4c0-10.7-5.1-15.6-12.5-22.5c-24-22.1-48-44.3-71.9-66.4c-5.9-5.5-11.7-10.2-20.2-6.9
	c-1.9,0.8-4.6,2.8-8.1,6.1c-24.7,23.2-49.4,46.2-74.3,69.3c-3.9,3.6-6.6,6.6-7.9,8.9c-3,5.1-2.8,10.7-2.8,18.4
	c0,58,0.1,116.1,0.1,174.1c0,7.1,3,14.1,9.8,16.8c2,0.8,5.5,1.2,10.5,1.1c5.4,0,10.7-0.1,16.1-0.2c0.3,0,0.5-0.2,0.5-0.5
	C449.6,690,449.8,685.7,450.1,681.4z"/>
<path class="st9" d="M288,363.5c-25.2,38.5-39.5,80.9-42.9,127.3c-1.5,20.8-0.8,41,2.2,60.6l-0.4,3.5c0,0.1-0.1,0.1-0.1,0.1
	c-0.1,0-0.2,0-0.3,0c-0.5-0.1-0.6,0.2-0.3,0.8c1.4,2.3,1.2,4.5-0.4,6.5c-0.2,0.3-0.4,0.3-0.6-0.1l-0.2-0.5c0-0.1-0.1-0.1-0.1-0.1
	c0,0,0,0,0,0c-0.1,0.1-0.1,0.1-0.2,0.2c-0.3,0.3-0.4,0.2-0.5-0.1l-0.5-1.8c-0.1-0.3-0.2-0.5-0.5-0.5l-5.1-1.6
	c-0.3-0.1-0.6-0.1-0.9,0c-0.6,0.2-1,0.1-1.3-0.4c-0.1-0.2-0.4-0.4-0.6-0.5c-1.3-0.3-2.5-1-3.5-2c-0.1-0.1-0.3-0.2-0.6-0.3
	c-1.3-0.1-2.4-0.6-3.4-1.4c-0.3-0.2-0.6-0.3-0.9-0.2c-0.5,0.1-0.9-0.1-1-0.6c0-0.2-0.2-0.4-0.4-0.5l-2.8-1c-0.2-0.1-0.5,0-0.7,0.1
	c-0.5,0.5-1.2,0.6-2,0.5c-0.4-0.1-0.7-0.2-1-0.5c-0.4-0.4-0.9-0.6-1.6-0.7c-0.3,0-0.5-0.2-0.6-0.4c-0.3-0.6-0.8-1-1.4-1.3
	c-0.3-0.1-0.5-0.1-0.8,0c-1,0.4-2.1,0.5-3.1,0.1c-1.5-0.5-2.9-0.7-4.4-0.5c-1,0.1-1.9,0.2-2.8,0.3c-1,0.1-1.9,0.3-2.8,0.7
	c-0.1,0-0.1,0-0.1-0.1c0-0.1-0.1-0.2-0.3-0.3c-0.2-0.1-0.4-0.1-0.6,0l-5,1.8c-0.3,0.1-0.5,0.1-0.8,0c-0.4-0.2-0.9-0.3-1.4-0.2
	c-0.4,0-0.8,0.2-1.1,0.4c-0.4,0.3-0.9,0.2-1.4-0.3c-0.3-0.2-0.7-0.2-0.9,0c-1.9,1.4-4.1,1.9-6.4,1.4c-0.3-0.1-0.5,0-0.8,0.2l-5,3.2
	c-0.3,0.2-0.7,0.1-0.9-0.2c-0.7-0.9-0.9-2-0.6-3.4c0,0,0,0,0,0l0.2,0.2c0,0,0.1,0,0.1,0c0.4-0.2,0.5-0.4,0.4-0.7
	c-0.2-0.3-0.7-0.5-1-0.4c-0.2,0.1-0.4,0.3-0.3,0.6c0,0.1,0,0.2,0,0.4c0,0.2-0.1,0.2-0.2,0c-0.1-0.2-0.2-0.4-0.1-0.7
	c0.4-2.5,0.1-4.9-0.8-7c-0.1-0.3-0.2-0.6-0.1-1c0.3-1.4,0.1-2.5-0.6-3.4c-0.2-3.3-0.7-6.7-0.9-9.8c-0.8-20.3-0.1-40.5,1.9-60.6
	c0.6-6.5,1.6-13.1,3-19.8c3-14.8,6.3-28.2,9.9-40.1c4.1-13.4,9.9-27.9,17.3-43.3c0,1.3-0.4,2.6-1.1,3.8c-0.2,0.3-0.1,0.6,0.2,0.8
	l0.3,0.2c0.2,0.1,0.2,0.2-0.1,0.2H204c-0.2,0-0.3,0.1-0.3,0.2l-0.2,0.6c0,0.1-0.1,0.1-0.2,0.1c0,0,0,0-0.1,0
	c-0.1-0.1-0.1-0.2-0.2-0.2c0,0,0,0-0.1,0c0,0,0,0,0,0c0.3,1.4,1,2.5,2.2,3.4c0.4,0.3,0.8,0.3,1.2,0.1l4.8-2.3
	c0.3-0.1,0.5-0.3,0.7-0.6c0.9-1.1,2-1.7,3.4-1.6c0.3,0,0.5-0.1,0.6-0.4l0.1-0.3c0.1-0.4,0.4-0.6,0.8-0.5l0.9,0.2
	c0.2,0.1,0.5,0,0.7-0.1c2.2-1.2,4.5-2,7-2.6c0.3-0.1,0.6-0.1,1-0.1c0.6,0.1,1.1-0.1,1.5-0.6c0.2-0.3,0.5-0.4,0.9-0.4l6.5-0.2
	c0.3,0,0.6-0.1,0.9-0.3c0.1,0,0.1-0.1,0.2-0.2c0-0.1,0.1-0.1,0.2,0c0.7,0.9,1.6,1.1,2.7,0.7c0.4-0.2,0.7-0.6,0.9-1.2
	c0.1-0.4,0.4-0.5,0.7-0.3c0.7,0.5,1.4,0.5,2.1,0.2c0.3-0.1,0.6-0.2,1-0.2c1.2,0,2.6-0.3,4.2-1c2.3-1,5.6-1.5,9.8-1.5
	c0.4,0,0.8,0.2,1.3,0.6c0.3,0.2,0.6,0.3,0.9,0.3l7,0.2c0.3,0,0.6,0.1,0.9,0.2c1.6,0.7,3,0.3,4.1-1.4c0.1-0.1,0.2-0.1,0.3-0.1
	c0.1,0,0.1,0.1,0.1,0.2l0,0.4c0,0.2,0.1,0.3,0.3,0.1c0.2-0.1,0.3-0.3,0.5-0.4c0.2-0.2,0.5-0.3,0.8-0.1l1.4,0.7
	c0.3,0.1,0.6,0.2,0.9,0.1c0.9-0.1,1.3-0.6,1.2-1.4c0-0.1,0-0.1-0.1,0c-0.1,0.2,0,0.4,0.1,0.6c0.1,0.3,0.3,0.3,0.6,0.2
	c1.1-0.5,2.2-0.5,3.3,0c0.2,0.1,0.4,0.1,0.6-0.1l0.2-0.2c0.2-0.2,0.4-0.2,0.5,0.1c0.9,1.4,1.4,3,1.2,4.6c0,0.2,0.2,0.5,0.4,0.5
	c0.1,0,0.2,0,0.3-0.1l0.3-0.3c0.2-0.2,0.2-0.3,0.1-0.5c-0.5-0.9-0.3-1.7,0.4-2.5c0.1-0.1,0.3-0.1,0.4,0c0.1,0.1,0.2,0.1,0.3,0.1
	c0,0,0.1,0,0.1,0c0,0,0,0.1,0,0.1c-0.2,0.1-0.3,0.3-0.3,0.5c0,0.1,0.1,0.2,0.2,0.1c1-0.5,1.4-1.3,1-2.3c0-0.1,0-0.1,0.1-0.2
	c0,0,0.1,0,0.1,0l0.4,0.1c0.1,0,0.1,0.1,0.1,0.2C287.6,363,287.7,363.3,288,363.5z"/>
<path class="st9" d="M818.2,368.9c1.1,1.9,2.1,3.8,2.9,5.7c12.9,28.9,21.7,58.9,26.4,90c0.9,6.2,1.5,12.9,1.7,19.9
	c0.3,10.6,0.4,21.1,0.2,31.7l-0.5,1.2c-0.1,0.1-0.1,0.3-0.1,0.4c0.1,0.5,0.1,1,0,1.5c0,0.4-0.4,0.7-0.8,0.7c-0.3,0-0.6-0.3-0.7-0.6
	c-0.3-1.3-0.7-2.5-1.3-3.8c-0.4-0.8-1.1-1.2-2-1.3c-0.7,0-1.1-0.5-1.3-1.5c-0.1-0.4-0.3-0.6-0.7-0.7l-2.2-0.2c-0.1,0-0.2,0-0.2,0.1
	c-0.2,0.3-0.4,0.4-0.7,0.3c-0.4-0.2-0.7-0.2-1,0.1c-0.8,1-1.7,1-2.7,0c-0.1-0.1-0.1-0.1,0-0.2c0,0,0-0.1,0-0.1
	c0.1-0.1,0.1-0.2,0-0.2h-2.6c-0.4,0-0.7-0.3-0.7-0.7l-0.2-1.9c0-0.5-0.3-0.8-0.9-0.6l-4.5,1c-0.4,0.1-0.6,0-0.8-0.4
	c-0.1-0.2-0.3-0.3-0.5-0.3c-0.1,0-0.2,0.1-0.2,0.2c0,0.3-0.2,0.4-0.4,0.4c-0.5,0-1-0.3-1-0.6c0-0.1,0-0.2,0.1-0.3
	c0.1-0.1,0.1-0.2,0-0.4c-0.1-0.2-0.1-0.2-0.1,0c0,0.2-0.2,0.4-0.5,0.4c-0.3,0-0.4,0.1-0.5,0.1c-1.3,0.4-2.5-0.4-3.4-2.3
	c-0.2-0.4-0.5-0.5-0.8-0.2c-0.4,0.4-0.8,0.3-1.2-0.2c-0.2-0.2-0.5-0.3-0.7-0.1c-0.1,0-0.1,0.1-0.1,0.2c-0.4,0.7-0.9,1-1.7,1
	c-0.8,0-1.4-0.7-1.3-1.5c0-0.1,0-0.2,0-0.3c0.2-0.7,0-1.4-0.5-2.1c-0.2-0.2-0.4-0.4-0.8-0.4c-2.4-0.1-4.7,0.1-7,0.7
	c-0.1,0-0.3,0-0.4-0.2c-0.2-0.3-0.1-0.4,0.3-0.2c0.3,0.1,0.3,0.3,0.1,0.5c-2.2,1.9-3.7-0.6-5.9,0.2c-0.2,0.1-0.4,0.1-0.6-0.1
	l-0.8-0.4c-0.2-0.1-0.3-0.1-0.4,0.2c0,0.2-0.2,0.3-0.5,0.3c-0.8,0-1.6,0-2.4,0.2c-0.9,0.1-1.7,0.1-2.4,0c-2.6-0.4-5.2-1-7.7-1.8
	c-0.1,0-0.2-0.1-0.2-0.1c-0.1-0.1-0.1-0.1-0.2-0.2c-0.1-0.1-0.2-0.1-0.3,0c-1.5,3.5-2.4,6.9-2.8,10.3c-0.4,3.6-0.7,8.3-0.9,14.2
	c0,0.3-0.1,0.6-0.3,0.9c-0.3,0.4-0.4,0.8-0.4,1.4c-0.2,5.6-1,11.4-2.2,17.5c-0.2,0.8-0.6,1.3-1.3,1.5c8.6-62.1-3-119.9-34.6-173.6
	l0.5-0.2c0.3-0.1,0.5,0,0.7,0.3c0.1,0.2,0.3,0.4,0.4,0.6c0.3,0.4,0.4,0.3,0.2-0.1c-0.1-0.2-0.1-0.4-0.1-0.7c0-0.1,0-0.1,0.1-0.1
	s0.1,0,0.1,0.1l0,0l0.5,2.3c0,0.1,0.1,0.2,0.3,0.2c0,0,0,0,0,0c0.2-0.1,0.2-0.3-0.2-0.4c-0.7-0.3-0.7-0.5,0.1-0.5
	c1.4-0.1,2.4,0.4,2.8,1.4c0.1,0.2,0.3,0.3,0.5,0.2c0.1,0,0.2,0,0.3,0.1c0.1,0.1,0.1,0.1,0.1,0.2c0,0.1,0,0.2,0,0.3
	c0,0.1,0,0.1,0.1,0l0.2-0.2c0,0,0.1-0.1,0-0.2c-0.2-0.8,0-1.3,0.7-1.6c0.3-0.1,0.5-0.4,0.6-0.7c0.4-1.2,1-2.4,1.7-3.5
	c0.4-0.6,1-0.9,1.7-0.8c0.3,0,0.5,0,0.7-0.2c3.4-2.1,6.9-2.4,10.5-1c0,0,0,0,0.1,0l0.2-0.1c0.2-0.1,0.2-0.2,0-0.2l-0.5-0.1
	c-0.1,0-0.1-0.1-0.1-0.2c0-0.1,0-0.1,0.1-0.1c0.6-0.2,1.1-0.2,1.6,0.1c0.3,0.1,0.6,0.2,0.9,0.1l6-1.9c0.7-0.2,1.2-1,0.9-1.8
	c-0.2-0.6,0.1-1.1,0.8-1.3c0.1,0,0.2-0.1,0.1-0.2c-0.1-0.1-0.2-0.1-0.2-0.2c0,0,0,0,0-0.1c1.1-1.4,2.4-1.5,3.9-0.4
	c0.3,0.2,0.6,0.2,0.9,0.2l5.2-1.2c0.2,0,0.3,0,0.5,0c2.4,0.8,4.7,0.5,6.9,1.1c4.7,1.3,9.5,2.4,14.3,3.4c0.9,0.2,2.2,0.5,3.9,1.1
	c1.3,0.4,2.6,0.7,3.9,0.9c1.5,0.2,2.6,0.7,3.4,1.3c0.9,0.8,1.7,1.8,2.3,3c0.1,0.3,0.5,0.4,0.8,0.3c0.1-0.1,0.3-0.2,0.3-0.4l0.1-0.5
	c0.1-0.3,0-0.4-0.3-0.3c-0.1,0-0.2,0.1-0.4,0.1c-0.2,0-0.3-0.1-0.4-0.3L818.2,368.9z"/>
<path class="st12" d="M450.1,681.4c-0.3,4.3-0.5,8.7-0.7,13c0,0.3-0.2,0.5-0.5,0.5c-5.4,0.1-10.8,0.2-16.1,0.2
	c-5,0-8.4-0.4-10.5-1.1c-6.7-2.6-9.8-9.6-9.8-16.8c0-58,0-116.1-0.1-174.1c0-7.7-0.3-13.3,2.8-18.4c1.4-2.3,4-5.3,7.9-8.9
	c24.8-23,49.6-46.1,74.3-69.3c3.5-3.3,6.2-5.3,8.1-6.1c8.5-3.4,14.3,1.4,20.2,6.9c23.9,22.2,47.9,44.3,71.9,66.4
	c7.4,6.9,12.5,11.8,12.5,22.5c0.1,57.8,0.1,115.6,0,173.4c0,8.3-0.5,13.8-1.6,16.3c-2.5,6.1-8,9.2-16.4,9.3
	c-6.3,0.1-12.5,0-18.7-0.3c-0.4,0-0.8-0.4-0.8-0.8c-0.2-6-0.3-12.9-1.7-18.3c-4.2-15.8-18.1-28.4-34.1-31.2c-2.4-0.4-9.1-0.6-20-0.6
	c-6.8,0-13.5,0-20.3,0c-7.1,0-12.4,0.5-15.8,1.5C465.8,650,451.3,665.2,450.1,681.4z M502.3,517.3c6.8-11.3,3-26-8.5-32.9
	c0,0,0,0,0,0c-11.4-6.8-26.2-3.2-33,8.1c0,0,0,0,0,0c-6.8,11.3-3,26,8.5,32.9l0,0C480.8,532.2,495.5,528.6,502.3,517.3L502.3,517.3z
	 M565.7,504.9c0-13.2-10.7-24-24-24c0,0,0,0,0,0c-13.2,0-24,10.7-24,24c0,13.2,10.7,24,24,24C555,528.8,565.7,518.1,565.7,504.9
	L565.7,504.9z M505.5,565.5c0-13.3-10.7-24-24-24s-24,10.7-24,24s10.7,24,24,24S505.5,578.7,505.5,565.5z M560.2,580.9
	c8.5-10.2,7.1-25.3-3.1-33.8c-10.2-8.5-25.4-7.2-33.9,2.9c-8.5,10.2-7.1,25.3,3.1,33.8C536.5,592.3,551.7,591,560.2,580.9z"/>
<path class="st11" d="M643.2,468.2c15.7,14.4,31.4,28.7,47.2,42.8c2.8,2.5,4.9,5.6,6.1,9.2c7.3,20.5-17.1,36.9-32.7,21.6
	c-2.9-2.8-9-8.4-18.4-16.8c-0.4-1.3-0.6-2.4-0.6-3.1c0.3-15.6,0.3-31.1,0-46.7c0-1.3-0.2-2.5-0.5-3.6
	C644,470.6,643.6,469.4,643.2,468.2z"/>
<path class="st11" d="M378.2,468.9c-0.2,1.5-0.4,3-0.6,4.4c-0.2,1.5-0.3,2.9-0.3,4.4c0.3,15.7,0.4,31.2,0.4,46.4
	c-9.1,8.2-14.6,13.5-16.7,15.9c-6.4,7.5-14.1,9.7-23.1,6.5c-11.8-4.2-15.8-19.4-10-29.8c1.2-2.2,4.1-5.4,8.5-9.5
	C350.2,494.5,364.1,481.7,378.2,468.9z"/>
<ellipse transform="matrix(0.5135 -0.8581 0.8581 0.5135 -198.9853 658.8497)" class="st11" cx="481.6" cy="504.9" rx="23.8" ry="24.1"/>
<circle class="st11" cx="541.7" cy="504.9" r="24"/>
<path class="st9" d="M849.4,516.2c0.4,13.8-0.1,24.9-1.4,33.3c-1.5,9.3-3,18.5-4.7,27.7c-2.4,13.7-6.5,29.2-12.1,46.5
	c-4.3,13.3-9.3,25.2-14.7,35.6c-3.1,6-6.5,13.4-10.4,19.9l-3.7-4.7c-0.2-0.2-0.2-0.5,0.1-0.7c1.2-1,1.5-2.2,0.8-3.6
	c-0.2-0.3-0.2-0.7,0-1c0.7-1.4,0.8-2.9,0.2-4.4c-0.1-0.3-0.3-0.5-0.5-0.6c-0.5-0.3-0.9-0.7-1.3-1.1c-0.6-0.6-1-0.9-1.2-1
	c-1.7-0.9-3.5-1.6-5.4-2.2c-0.3-0.1-0.5-0.3-0.6-0.5c-0.3-0.6-0.7-1-1.3-1.3c-0.3-0.1-0.5-0.4-0.6-0.7c-0.6-1.4-1.7-2.2-3.3-2.2
	c-0.3,0-0.6-0.1-0.8-0.3l-2.5-2.2c-0.2-0.2-0.4-0.3-0.7-0.4c-2-0.7-4.1-1-6.3-0.9c-0.4,0-0.7-0.1-1-0.2l-1.6-0.8
	c-0.1,0-0.1-0.1,0-0.1c0.1-0.1,0.1-0.1,0.1-0.2c0.1-0.4-0.1-0.5-0.4-0.4c-1.8,0.5-2.9-0.1-3.4-1.8c-0.1-0.4-0.5-0.7-0.9-0.7l-3.2,0
	c-0.3,0-0.6-0.2-0.8-0.4c-0.4-0.6-1-0.8-1.7-0.5c-0.3,0.1-0.7,0-0.8-0.3c-0.5-0.9-0.9-1.2-2-1.3c-2.9-0.2-5.1,0.2-7.2-2.2
	c-0.2-0.2-0.4-0.3-0.7-0.3l-6.8-0.1c-0.2,0-0.4,0.1-0.5,0.2c-0.5,0.7-0.8,1.3-1,2c0,0.1-0.1,0.1-0.2,0.1c-0.9-0.3-1.9-0.2-2.8,0.3
	c16.3-30.2,26.8-62.3,31.4-96.5c0.7-0.2,1.1-0.6,1.3-1.5c1.3-6.1,2-11.9,2.2-17.5c0-0.6,0.2-1,0.4-1.4c0.2-0.3,0.3-0.6,0.3-0.9
	c0.2-5.8,0.5-10.6,0.9-14.2c0.4-3.3,1.3-6.8,2.8-10.3c0.1-0.2,0.2-0.2,0.3,0c0,0.1,0.1,0.1,0.2,0.2c0.1,0.1,0.1,0.1,0.2,0.1
	c2.5,0.7,5.1,1.3,7.7,1.8c0.7,0.1,1.5,0.1,2.4,0c0.8-0.1,1.6-0.2,2.4-0.2c0.3,0,0.5-0.1,0.5-0.3c0-0.2,0.2-0.3,0.4-0.2l0.8,0.4
	c0.2,0.1,0.4,0.1,0.6,0.1c2.2-0.8,3.7,1.7,5.9-0.2c0.2-0.2,0.2-0.3-0.1-0.5c-0.4-0.2-0.5-0.1-0.3,0.2c0.1,0.1,0.2,0.2,0.4,0.2
	c2.3-0.5,4.7-0.8,7-0.7c0.3,0,0.6,0.1,0.8,0.4c0.5,0.7,0.7,1.4,0.5,2.1c-0.2,0.7,0.3,1.5,1,1.7c0.1,0,0.2,0,0.3,0
	c0.7,0,1.3-0.3,1.7-1c0.1-0.3,0.5-0.3,0.7-0.2c0.1,0,0.1,0.1,0.2,0.1c0.4,0.5,0.7,0.5,1.2,0.2c0.3-0.3,0.6-0.2,0.8,0.2
	c0.9,1.9,2.1,2.6,3.4,2.3c0.1,0,0.2,0,0.5-0.1c0.3,0,0.4-0.2,0.5-0.4c0-0.2,0.1-0.2,0.1,0c0.1,0.2,0.1,0.3,0,0.4
	c-0.2,0.2,0,0.6,0.5,0.7c0.2,0.1,0.3,0.1,0.5,0.1c0.2,0,0.3-0.1,0.4-0.4c0-0.1,0.1-0.2,0.2-0.2c0.3,0,0.5,0.1,0.5,0.3
	c0.1,0.4,0.4,0.5,0.8,0.4l4.5-1c0.5-0.1,0.8,0.1,0.9,0.6l0.2,1.9c0,0.4,0.4,0.7,0.7,0.7h2.6c0,0,0,0,0,0.2c0,0,0,0.1,0,0.1
	c0,0.1,0,0.1,0,0.2c1,0.9,1.9,0.9,2.7,0c0.3-0.3,0.6-0.4,1-0.1c0.2,0.2,0.5,0.1,0.7-0.3c0-0.1,0.1-0.1,0.2-0.1l2.2,0.2
	c0.4,0,0.6,0.3,0.7,0.7c0.2,1,0.6,1.5,1.3,1.5c0.9,0,1.6,0.4,2,1.3c0.6,1.3,1.1,2.5,1.3,3.8c0.1,0.4,0.5,0.7,0.9,0.6
	c0.3-0.1,0.6-0.4,0.6-0.7c0-0.6,0-1.1,0-1.5c0-0.2,0-0.3,0.1-0.4L849.4,516.2z"/>
<path class="st9" d="M173.8,539.9c0.7,0.8,0.9,1.9,0.6,3.4c-0.1,0.3,0,0.7,0.1,1c0.9,2.2,1.2,4.5,0.8,7c0,0.2,0,0.5,0.1,0.7
	c0.1,0.1,0.2,0.1,0.2,0c0-0.1,0-0.2,0-0.4c-0.1-0.4,0.2-0.6,0.6-0.6c0.3,0,0.6,0.2,0.7,0.4c0.1,0.2,0,0.4-0.4,0.7c0,0-0.1,0-0.1,0
	l-0.2-0.2c0,0,0,0,0,0c-0.3,1.4-0.1,2.5,0.6,3.4c0.2,0.3,0.6,0.4,0.9,0.2l5-3.2c0.2-0.2,0.5-0.2,0.8-0.2c2.4,0.5,4.5,0,6.4-1.4
	c0.3-0.2,0.7-0.2,0.9,0c0.5,0.4,1,0.5,1.4,0.3c0.3-0.2,0.7-0.3,1.1-0.4c0.5,0,1,0,1.4,0.2c0.3,0.1,0.5,0.1,0.8,0l5-1.8
	c0.2-0.1,0.4-0.1,0.6,0c0.2,0.1,0.3,0.2,0.3,0.3c0,0.1,0,0.1,0.1,0.1c0.9-0.4,1.9-0.6,2.8-0.7c0.9-0.1,1.8-0.2,2.8-0.3
	c1.4-0.2,2.9,0,4.4,0.5c1.1,0.4,2.1,0.4,3.1-0.1c0.3-0.1,0.5-0.1,0.8,0c0.6,0.2,1.1,0.7,1.4,1.3c0.1,0.2,0.3,0.4,0.6,0.4
	c0.6,0,1.1,0.3,1.6,0.7c0.3,0.3,0.6,0.4,1,0.5c0.8,0.1,1.4,0,2-0.5c0.2-0.2,0.5-0.2,0.7-0.1l2.8,1c0.2,0.1,0.4,0.2,0.4,0.5
	c0.1,0.5,0.5,0.7,1,0.6c0.3-0.1,0.6,0,0.9,0.2c1,0.8,2.1,1.3,3.4,1.4c0.2,0,0.4,0.1,0.6,0.3c1,1,2.1,1.6,3.5,2
	c0.3,0.1,0.5,0.2,0.6,0.5c0.3,0.5,0.7,0.6,1.3,0.4c0.3-0.1,0.6-0.2,0.9,0l5.1,1.6c0.3,0.1,0.5,0.3,0.5,0.5l0.5,1.8
	c0.1,0.4,0.3,0.4,0.5,0.1c0.1-0.1,0.1-0.1,0.2-0.2c0,0,0.1,0,0.2,0c0,0,0,0,0,0l0.2,0.5c0.2,0.3,0.4,0.4,0.6,0.1
	c1.7-2,1.8-4.1,0.4-6.5c-0.4-0.6-0.3-0.8,0.3-0.8c0.1,0,0.2,0,0.3,0c0.1,0,0.1,0,0.1-0.1l0.4-3.5c2.6,18.1,7,35.7,13.3,52.9
	c1.9,5.2,4.9,11.9,7.3,17.9c1.2,2.9,2.2,5.2,3.1,7.1c9.7,20.7,21.6,40.1,35.7,58.2c0.5,1.2,0.1,0.9-1.1-0.6
	c-0.1-0.2-0.3-0.2-0.5-0.1c-0.2,0.1-0.2,0.3-0.1,0.5l3.3,5.4c0,0.1,0,0.1,0,0.2c0,0-0.1,0-0.1,0l-0.9-0.3c-0.4-0.1-0.6,0-0.9,0.3
	c-1.2,1.5-2.7,2.4-4.6,2.5c-0.3,0-0.5,0.2-0.6,0.5c-0.1,0.2-0.2,0.3-0.3,0.4c-0.2,0.1-0.5,0.1-0.8,0c-1.9-0.5-3.7-0.7-5.6-0.6
	c-0.3,0-0.6-0.1-0.8-0.3c-2.2-1.8-4.7-3.3-7.4-4.2c-0.1,0-0.5,0-1,0.1c-0.9,0.1-1.6-0.2-2.2-1c-0.2-0.3-0.5-0.4-0.8-0.4
	c-1.4-0.1-2.5-0.6-3.4-1.5c-0.2-0.2-0.5-0.4-0.8-0.5c-0.7-0.2-1.3-0.5-1.8-1c-0.2-0.2-0.3-0.4-0.4-0.6c-0.2-0.6-0.7-1.1-1.3-1.3
	c-0.3-0.1-0.5-0.3-0.6-0.5l-3.1-5.1c-0.1-0.1-0.2-0.1-0.3-0.1c-0.1,0.1-0.1,0.2-0.1,0.2l0.1,0.3c0.2,0.6,0,0.7-0.6,0.5
	c-1-0.4-1.9-1-2.6-1.9c-0.3-0.3-0.6-0.5-1-0.6c-0.9-0.1-1.5-0.6-1.9-1.4c-0.2-0.4-0.5-0.6-0.9-0.6l-6.1,0.1c-0.8,0-1.4,0.6-1.4,1.4
	v4c0,0.3,0.1,0.5,0.2,0.8c0.3,0.5,0.8,1,1.4,1.4c0.3,0.2,0.4,0.6,0.2,0.9c-0.1,0.1-0.3,0.3-0.4,0.3c-1.3,0.2-2.1,1-2.6,2.2
	c-0.1,0.3-0.4,0.5-0.7,0.6c-0.3,0.1-0.6,0.1-0.8,0.1c-0.4,0-0.7,0.2-0.9,0.4c-1,1-2.2,1.1-3.5,0.4c-0.3-0.2-0.6-0.2-0.8-0.2
	c-0.2,0-0.5,0.1-0.8,0.3c-0.2,0.2-0.5,0.2-0.7,0.1c-0.5-0.2-0.8-0.2-1,0.2c-0.1,0.3-0.4,0.4-0.7,0.3c-0.5-0.2-0.9-0.2-1.3-0.1
	c-1.8,0.5-3,0.1-4.8-0.8c-0.3-0.2-0.6-0.1-0.9,0.1c-0.1,0.1-0.2,0.1-0.1-0.1c0-0.1,0.1-0.2,0.1-0.3c0.2-0.2,0.1-0.3-0.1-0.5
	c-1.3-0.7-2.6-0.8-3.9-0.4c-0.3,0.1-0.5,0.3-0.7,0.5c-0.4,0.5-0.8,0.7-1.4,0.6c-0.3,0-0.5-0.1-0.8-0.2c-0.4-0.2-0.7-0.2-1,0.2
	c-0.7,0.8-1.5,2.4-2.4,4.9c0,0.1-0.1,0.1-0.3,0.1c-0.2-0.1-0.3-0.1-0.4,0.2c-0.1,0.3,0,0.5,0.4,0.6c0.2,0.1,0.4,0.1,0.6,0.1
	s0.2,0,0.3,0.1c0.3,1,0,1.7-1,2.2c-6-9.4-9.9-15.6-11.7-18.5c-1.5-2.5-2.6-5.8-4.1-8.5c-6.2-11-11.2-21.6-15-31.7
	c-5.7-15.1-10-28.4-12.7-40c-3.7-15.6-6-26.4-7-32.3C175.3,559.4,174.5,550.9,173.8,539.9z"/>
<circle class="st11" cx="481.5" cy="565.5" r="24"/>
<ellipse transform="matrix(0.6414 -0.7672 0.7672 0.6414 -239.5474 618.2972)" class="st11" cx="541.7" cy="565.4" rx="24" ry="24.1"/>
<path class="st9" d="M806.1,679.3c-5.3,9.6-11.3,18.9-18,28.1c-1.8,2.5-4.6,6.1-8.4,10.7c-3.8,4.7-7.8,9.9-11.4,14.1
	c-10.7,12.3-21.6,23.1-32.9,32.4c-4.5,3.7-8.1,6.7-11,9.1c-7.1,5.9-14.3,10.5-21.8,15.6c-36.5,24.8-76.4,41.7-119.6,50.5
	c-4.3,0.9-8.7,1.8-13,2.6c-4.7,0.9-9.1,1.7-13.1,2.1c-39.6,4.8-78.9,3.2-117.9-4.6c-5.9-1.2-12.4-2.8-19.4-4.8
	c-12.4-3.6-22.2-6.7-29.5-9.4c-6.4-2.4-15.4-6.2-27-11.5c-3.2-1.5-7.1-3.5-11.8-6c-5.2-2.8-10.8-5.5-15.6-8.4
	c-20.2-12.1-39.7-26.1-56.8-42.3c-11.9-11.3-19.6-19-23-23.1c-6.9-8.1-13.6-16.5-20.1-24.9c-3.2-4.2-6.2-8.6-9-13.3
	c1-0.5,1.3-1.2,1-2.2c0-0.1-0.1-0.2-0.3-0.1s-0.3,0-0.6-0.1c-0.3-0.1-0.5-0.3-0.4-0.6c0.1-0.2,0.2-0.3,0.4-0.2
	c0.1,0.1,0.2,0,0.3-0.1c1-2.4,1.8-4.1,2.4-4.9c0.3-0.4,0.7-0.5,1-0.2c0.2,0.1,0.5,0.2,0.8,0.2c0.6,0,1.1-0.2,1.4-0.6
	c0.2-0.3,0.4-0.4,0.7-0.5c1.3-0.5,2.6-0.4,3.9,0.4c0.2,0.1,0.3,0.3,0.1,0.5c-0.1,0.1-0.1,0.2-0.1,0.3c0,0.2,0,0.2,0.1,0.1
	c0.3-0.2,0.6-0.2,0.9-0.1c1.8,0.9,2.9,1.3,4.8,0.8c0.4-0.1,0.9-0.1,1.3,0.1c0.3,0.1,0.6,0,0.7-0.3c0.2-0.4,0.5-0.4,1-0.2
	c0.3,0.1,0.5,0.1,0.7-0.1c0.3-0.2,0.5-0.3,0.8-0.3c0.2,0,0.5,0,0.8,0.2c1.3,0.7,2.5,0.6,3.5-0.4c0.3-0.3,0.6-0.4,0.9-0.4
	c0.3,0,0.5-0.1,0.8-0.1c0.3-0.1,0.6-0.3,0.7-0.6c0.5-1.2,1.3-2,2.6-2.2c0.4-0.1,0.6-0.4,0.5-0.8c0-0.2-0.1-0.3-0.3-0.4
	c-0.6-0.4-1.1-0.9-1.4-1.4c-0.1-0.2-0.2-0.5-0.2-0.8v-4c0-0.8,0.6-1.4,1.4-1.4l6.1-0.1c0.4,0,0.7,0.2,0.9,0.6c0.4,0.8,1,1.3,1.9,1.4
	c0.4,0.1,0.8,0.3,1,0.6c0.7,0.8,1.5,1.5,2.6,1.9c0.5,0.2,0.7,0,0.6-0.5l-0.1-0.3c0-0.1,0.1-0.3,0.2-0.3c0.1,0,0.2,0,0.2,0.1l3.1,5.1
	c0.1,0.2,0.4,0.4,0.6,0.5c0.7,0.3,1.1,0.7,1.3,1.3c0.1,0.2,0.2,0.5,0.4,0.6c0.5,0.5,1.1,0.8,1.8,1c0.3,0.1,0.6,0.3,0.8,0.5
	c0.9,1,2,1.5,3.4,1.5c0.3,0,0.6,0.1,0.8,0.4c0.6,0.7,1.3,1,2.2,1c0.5,0,0.9-0.1,1-0.1c2.7,1,5.2,2.4,7.4,4.2
	c0.2,0.2,0.5,0.3,0.8,0.3c1.9-0.1,3.8,0.1,5.6,0.6c0.4,0.1,0.7,0.1,0.8,0c0.1-0.1,0.2-0.2,0.3-0.4c0.1-0.3,0.3-0.4,0.6-0.5
	c1.9-0.2,3.4-1,4.6-2.5c0.2-0.3,0.5-0.4,0.9-0.3l0.9,0.3c0.1,0,0.1,0,0.2-0.1c0,0,0-0.1,0-0.1l-3.3-5.4c-0.1-0.2-0.1-0.4,0.1-0.5
	c0.2-0.1,0.4-0.1,0.5,0.1c1.2,1.6,1.5,1.8,1.1,0.6c7,8.8,14.4,17.1,22.2,25.2c5.5,5.7,9.1,11.6,13.2,18.1
	c13.8,21.9,37.9,37.3,64.2,37.3c68.6-0.1,137.1-0.1,205.7-0.2c8.5,0,14.9-0.5,19.1-1.4c18.7-4.2,37.5-17.8,47.5-33.5
	c4.6-7.2,7.9-12.5,13.9-18.6c20.3-21.1,37.4-43.3,51.9-69.6c1-0.6,1.9-0.7,2.8-0.3c0.1,0,0.2,0,0.2-0.1c0.2-0.7,0.5-1.4,1-2
	c0.1-0.2,0.3-0.2,0.5-0.2l6.8,0.1c0.3,0,0.5,0.1,0.7,0.3c2.1,2.4,4.3,1.9,7.2,2.2c1.1,0.1,1.5,0.4,2,1.3c0.2,0.3,0.5,0.4,0.8,0.3
	c0.7-0.3,1.3-0.1,1.7,0.5c0.2,0.3,0.4,0.4,0.8,0.4l3.2,0c0.4,0,0.8,0.3,0.9,0.7c0.5,1.7,1.6,2.3,3.4,1.8c0.4-0.1,0.5,0,0.4,0.4
	c0,0.1-0.1,0.2-0.1,0.2c-0.1,0.1-0.1,0.1,0,0.1l1.6,0.8c0.3,0.2,0.7,0.2,1,0.2c2.1-0.1,4.2,0.2,6.3,0.9c0.3,0.1,0.5,0.2,0.7,0.4
	l2.5,2.2c0.2,0.2,0.5,0.3,0.8,0.3c1.6,0,2.7,0.8,3.3,2.2c0.1,0.3,0.3,0.5,0.6,0.7c0.6,0.3,1,0.8,1.3,1.3c0.1,0.3,0.3,0.4,0.6,0.5
	c1.9,0.6,3.7,1.3,5.4,2.2c0.3,0.1,0.7,0.5,1.2,1c0.4,0.4,0.8,0.7,1.3,1.1c0.2,0.2,0.4,0.4,0.5,0.6c0.6,1.5,0.5,3-0.2,4.4
	c-0.2,0.4-0.2,0.7,0,1c0.7,1.3,0.5,2.5-0.8,3.6c-0.2,0.2-0.3,0.4-0.1,0.7L806.1,679.3z"/>
</svg>
